  0
SECTION
  2
HEADER
  9
$ACADVER
  1
AC1024
  9
$ACADMAINTVER
 70
     6
  9
$DWGCODEPAGE
  3
UNDEFINED
  9
$INSBASE
 10
0.0
 20
0.0
 30
0.0
  9
$EXTMIN
 10
1.000000000000000E+20
 20
1.000000000000000E+20
 30
1.000000000000000E+20
  9
$EXTMAX
 10
-1.000000000000000E+20
 20
-1.000000000000000E+20
 30
-1.000000000000000E+20
  9
$LIMMIN
 10
0.0
 20
0.0
  9
$LIMMAX
 10
12.0
 20
9.0
  9
$ORTHOMODE
 70
     0
  9
$REGENMODE
 70
     1
  9
$FILLMODE
 70
     1
  9
$QTEXTMODE
 70
     0
  9
$MIRRTEXT
 70
     1
  9
$LTSCALE
 40
1.0
  9
$ATTMODE
 70
     1
  9
$TEXTSIZE
 40
0.2
  9
$TRACEWID
 40
0.05
  9
$TEXTSTYLE
  7
Standard
  9
$CLAYER
  8
0
  9
$CELTYPE
  6
ByLayer
  9
$CECOLOR
 62
   256
  9
$CELTSCALE
 40
1.0
  9
$DISPSILH
 70
     0
  9
$DIMSCALE
 40
1.0
  9
$DIMASZ
 40
0.18
  9
$DIMEXO
 40
0.0625
  9
$DIMDLI
 40
0.38
  9
$DIMRND
 40
0.0
  9
$DIMDLE
 40
0.0
  9
$DIMEXE
 40
0.18
  9
$DIMTP
 40
0.0
  9
$DIMTM
 40
0.0
  9
$DIMTXT
 40
0.18
  9
$DIMCEN
 40
0.09
  9
$DIMTSZ
 40
0.0
  9
$DIMTOL
 70
     0
  9
$DIMLIM
 70
     0
  9
$DIMTIH
 70
     1
  9
$DIMTOH
 70
     1
  9
$DIMSE1
 70
     0
  9
$DIMSE2
 70
     0
  9
$DIMTAD
 70
     0
  9
$DIMZIN
 70
     0
  9
$DIMBLK
  1

  9
$DIMASO
 70
     1
  9
$DIMSHO
 70
     1
  9
$DIMPOST
  1

  9
$DIMAPOST
  1

  9
$DIMALT
 70
     0
  9
$DIMALTD
 70
     2
  9
$DIMALTF
 40
25.4
  9
$DIMLFAC
 40
1.0
  9
$DIMTOFL
 70
     0
  9
$DIMTVP
 40
0.0
  9
$DIMTIX
 70
     0
  9
$DIMSOXD
 70
     0
  9
$DIMSAH
 70
     0
  9
$DIMBLK1
  1

  9
$DIMBLK2
  1

  9
$DIMSTYLE
  2
Standard
  9
$DIMCLRD
 70
     0
  9
$DIMCLRE
 70
     0
  9
$DIMCLRT
 70
     0
  9
$DIMTFAC
 40
1.0
  9
$DIMGAP
 40
0.09
  9
$DIMJUST
 70
     0
  9
$DIMSD1
 70
     0
  9
$DIMSD2
 70
     0
  9
$DIMTOLJ
 70
     1
  9
$DIMTZIN
 70
     0
  9
$DIMALTZ
 70
     0
  9
$DIMALTTZ
 70
     0
  9
$DIMUPT
 70
     0
  9
$DIMDEC
 70
     4
  9
$DIMTDEC
 70
     4
  9
$DIMALTU
 70
     2
  9
$DIMALTTD
 70
     2
  9
$DIMTXSTY
  7
Standard
  9
$DIMAUNIT
 70
     0
  9
$DIMADEC
 70
     0
  9
$DIMALTRND
 40
0.0
  9
$DIMAZIN
 70
     0
  9
$DIMDSEP
 70
    46
  9
$DIMATFIT
 70
     3
  9
$DIMFRAC
 70
     0
  9
$DIMLDRBLK
  1

  9
$DIMLUNIT
 70
     2
  9
$DIMLWD
 70
    -2
  9
$DIMLWE
 70
    -2
  9
$DIMTMOVE
 70
     0
  9
$DIMFXL
 40
1.0
  9
$DIMFXLON
 70
     0
  9
$DIMJOGANG
 40
0.7853981633974483
  9
$DIMTFILL
 70
     0
  9
$DIMTFILLCLR
 70
     0
  9
$DIMARCSYM
 70
     0
  9
$DIMLTYPE
  6

  9
$DIMLTEX1
  6

  9
$DIMLTEX2
  6

  9
$DIMTXTDIRECTION
 70
     0
  9
$LUNITS
 70
     2
  9
$LUPREC
 70
     4
  9
$SKETCHINC
 40
0.1
  9
$FILLETRAD
 40
0.5
  9
$AUNITS
 70
     0
  9
$AUPREC
 70
     0
  9
$MENU
  1
.
  9
$ELEVATION
 40
0.0
  9
$PELEVATION
 40
0.0
  9
$THICKNESS
 40
0.0
  9
$LIMCHECK
 70
     0
  9
$CHAMFERA
 40
0.5
  9
$CHAMFERB
 40
0.5
  9
$CHAMFERC
 40
1.0
  9
$CHAMFERD
 40
0.0
  9
$SKPOLY
 70
     0
  9
$TDCREATE
 40
2459269.631064803
  9
$TDUCREATE
 40
2459269.839398148
  9
$TDUPDATE
 40
2459269.631064803
  9
$TDUUPDATE
 40
2459269.839398148
  9
$TDINDWG
 40
0.0000000116
  9
$TDUSRTIMER
 40
0.0000000116
  9
$USRTIMER
 70
     1
  9
$ANGBASE
 50
0.0
  9
$ANGDIR
 70
     0
  9
$PDMODE
 70
     0
  9
$PDSIZE
 40
0.0
  9
$PLINEWID
 40
0.0
  9
$SPLFRAME
 70
     0
  9
$SPLINETYPE
 70
     6
  9
$SPLINESEGS
 70
     8
  9
$HANDSEED
  5
AB
  9
$SURFTAB1
 70
     6
  9
$SURFTAB2
 70
     6
  9
$SURFTYPE
 70
     6
  9
$SURFU
 70
     6
  9
$SURFV
 70
     6
  9
$UCSBASE
  2

  9
$UCSNAME
  2

  9
$UCSORG
 10
0.0
 20
0.0
 30
0.0
  9
$UCSXDIR
 10
1.0
 20
0.0
 30
0.0
  9
$UCSYDIR
 10
0.0
 20
1.0
 30
0.0
  9
$UCSORTHOREF
  2

  9
$UCSORTHOVIEW
 70
     0
  9
$UCSORGTOP
 10
0.0
 20
0.0
 30
0.0
  9
$UCSORGBOTTOM
 10
0.0
 20
0.0
 30
0.0
  9
$UCSORGLEFT
 10
0.0
 20
0.0
 30
0.0
  9
$UCSORGRIGHT
 10
0.0
 20
0.0
 30
0.0
  9
$UCSORGFRONT
 10
0.0
 20
0.0
 30
0.0
  9
$UCSORGBACK
 10
0.0
 20
0.0
 30
0.0
  9
$PUCSBASE
  2

  9
$PUCSNAME
  2

  9
$PUCSORG
 10
0.0
 20
0.0
 30
0.0
  9
$PUCSXDIR
 10
1.0
 20
0.0
 30
0.0
  9
$PUCSYDIR
 10
0.0
 20
1.0
 30
0.0
  9
$PUCSORTHOREF
  2

  9
$PUCSORTHOVIEW
 70
     0
  9
$PUCSORGTOP
 10
0.0
 20
0.0
 30
0.0
  9
$PUCSORGBOTTOM
 10
0.0
 20
0.0
 30
0.0
  9
$PUCSORGLEFT
 10
0.0
 20
0.0
 30
0.0
  9
$PUCSORGRIGHT
 10
0.0
 20
0.0
 30
0.0
  9
$PUCSORGFRONT
 10
0.0
 20
0.0
 30
0.0
  9
$PUCSORGBACK
 10
0.0
 20
0.0
 30
0.0
  9
$USERI1
 70
     0
  9
$USERI2
 70
     0
  9
$USERI3
 70
     0
  9
$USERI4
 70
     0
  9
$USERI5
 70
     0
  9
$USERR1
 40
0.0
  9
$USERR2
 40
0.0
  9
$USERR3
 40
0.0
  9
$USERR4
 40
0.0
  9
$USERR5
 40
0.0
  9
$WORLDVIEW
 70
     1
  9
$SHADEDGE
 70
     3
  9
$SHADEDIF
 70
    70
  9
$TILEMODE
 70
     1
  9
$MAXACTVP
 70
    64
  9
$PINSBASE
 10
0.0
 20
0.0
 30
0.0
  9
$PLIMCHECK
 70
     0
  9
$PEXTMIN
 10
1.000000000000000E+20
 20
1.000000000000000E+20
 30
1.000000000000000E+20
  9
$PEXTMAX
 10
-1.000000000000000E+20
 20
-1.000000000000000E+20
 30
-1.000000000000000E+20
  9
$PLIMMIN
 10
0.0
 20
0.0
  9
$PLIMMAX
 10
12.0
 20
9.0
  9
$UNITMODE
 70
     0
  9
$VISRETAIN
 70
     1
  9
$PLINEGEN
 70
     0
  9
$PSLTSCALE
 70
     1
  9
$TREEDEPTH
 70
  3020
  9
$CMLSTYLE
  2
Standard
  9
$CMLJUST
 70
     0
  9
$CMLSCALE
 40
1.0
  9
$PROXYGRAPHICS
 70
     1
  9
$MEASUREMENT
 70
     0
  9
$CELWEIGHT
370
    -1
  9
$ENDCAPS
280
     0
  9
$JOINSTYLE
280
     0
  9
$LWDISPLAY
290
     1
  9
$INSUNITS
 70
     1
  9
$HYPERLINKBASE
  1

  9
$STYLESHEET
  1

  9
$XEDIT
290
     1
  9
$CEPSNTYPE
380
     0
  9
$PSTYLEMODE
290
     1
  9
$FINGERPRINTGUID
  2
{FC981958-9600-E196-CA0F-62A61C2BF0DB}
  9
$VERSIONGUID
  2
{FAEB1C32-E019-11D5-929B-00C0DF256EC4}
  9
$EXTNAMES
290
     1
  9
$PSVPSCALE
 40
0.0
  9
$OLESTARTUP
290
     0
  9
$SORTENTS
280
   127
  9
$INDEXCTL
280
     0
  9
$HIDETEXT
280
     1
  9
$XCLIPFRAME
280
     2
  9
$HALOGAP
280
     0
  9
$OBSCOLOR
 70
   257
  9
$OBSLTYPE
280
     0
  9
$INTERSECTIONDISPLAY
280
     0
  9
$INTERSECTIONCOLOR
 70
   257
  9
$DIMASSOC
280
     2
  9
$PROJECTNAME
  1

  9
$CAMERADISPLAY
290
     0
  9
$LENSLENGTH
 40
50.0
  9
$CAMERAHEIGHT
 40
0.0
  9
$STEPSPERSEC
 40
2.0
  9
$STEPSIZE
 40
6.0
  9
$3DDWFPREC
 40
2.0
  9
$PSOLWIDTH
 40
0.25
  9
$PSOLHEIGHT
 40
4.0
  9
$LOFTANG1
 40
1.570796326794897
  9
$LOFTANG2
 40
1.570796326794897
  9
$LOFTMAG1
 40
0.0
  9
$LOFTMAG2
 40
0.0
  9
$LOFTPARAM
 70
     7
  9
$LOFTNORMALS
280
     1
  9
$LATITUDE
 40
37.795
  9
$LONGITUDE
 40
-122.394
  9
$NORTHDIRECTION
 40
0.0
  9
$TIMEZONE
 70
 -8000
  9
$LIGHTGLYPHDISPLAY
280
     1
  9
$TILEMODELIGHTSYNCH
280
     1
  9
$CMATERIAL
347
3C
  9
$SOLIDHIST
280
     1
  9
$SHOWHIST
280
     1
  9
$DWFFRAME
280
     2
  9
$DGNFRAME
280
     2
  9
$REALWORLDSCALE
290
     1
  9
$INTERFERECOLOR
 62
   256
  9
$CSHADOW
280
     0
  9
$SHADOWPLANELOCATION
 40
0.0
  0
ENDSEC
  0
SECTION
  2
CLASSES
  0
CLASS
  1
ACDBDICTIONARYWDFLT
  2
AcDbDictionaryWithDefault
  3
ObjectDBX Classes
 90
        0
 91
        4
280
     0
281
     0
  0
CLASS
  1
VISUALSTYLE
  2
AcDbVisualStyle
  3
ObjectDBX Classes
 90
     4095
 91
        4
280
     0
281
     0
  0
CLASS
  1
MATERIAL
  2
AcDbMaterial
  3
ObjectDBX Classes
 90
     1153
 91
        4
280
     0
281
     0
  0
CLASS
  1
SUN
  2
AcDbSun
  3
SCENEOE
 90
     1024
 91
        4
280
     0
281
     0
  0
ENDSEC
  0
SECTION
  2
TABLES
  0
TABLE
  2
VPORT
  5
8
330
0
100
AcDbSymbolTable
 70
     1
  0
VPORT
  5
29
330
8
100
AcDbSymbolTableRecord
100
AcDbViewportTableRecord
  2
*Active
 70
     0
 10
0.0
 20
0.0
 11
1.0
 21
1.0
 12
0.0
 22
0.0
 13
0.0
 23
0.0
 14
0.5
 24
0.5
 15
0.5
 25
0.5
 16
0.0
 26
0.0
 36
1.0
 17
12.0
 27
-9.0
 37
0.0
 40
18.0
 41
1.333333333333333
 42
50.0
 43
0.0
 44
0.0
 50
0.0
 51
0.0
 71
     0
 72
   100
 73
     1
 74
     3
 75
     0
 76
     0
 77
     0
 78
     0
281
     0
 65
     1
110
0.0
120
0.0
130
0.0
111
1.0
121
0.0
131
0.0
112
0.0
122
1.0
132
0.0
 79
     0
146
0.0
 60
     3
 61
     5
292
     1
282
     1
141
0.0
142
0.0
 63
   250
361
3F
  0
ENDTAB
  0
TABLE
  2
LTYPE
  5
5
330
0
100
AcDbSymbolTable
 70
     1
  0
LTYPE
  5
14
330
5
100
AcDbSymbolTableRecord
100
AcDbLinetypeTableRecord
  2
ByBlock
 70
     0
  3

 72
    65
 73
     0
 40
0.0
  0
LTYPE
  5
15
330
5
100
AcDbSymbolTableRecord
100
AcDbLinetypeTableRecord
  2
ByLayer
 70
     0
  3

 72
    65
 73
     0
 40
0.0
  0
LTYPE
  5
16
330
5
100
AcDbSymbolTableRecord
100
AcDbLinetypeTableRecord
  2
Continuous
 70
     0
  3
Solid line
 72
    65
 73
     0
 40
0.0
  0
ENDTAB
  0
TABLE
  2
LAYER
  5
2
330
0
100
AcDbSymbolTable
 70
     3
  0
LAYER
  5
10
330
2
100
AcDbSymbolTableRecord
100
AcDbLayerTableRecord
  2
0
 70
     0
 62
     7
  6
Continuous
370
    -3
390
F
347
3E
  0
LAYER
  5
40
330
2
100
AcDbSymbolTableRecord
100
AcDbLayerTableRecord
  2
Layer 1
 70
     1
 62
     7
  6
Continuous
370
    -3
390
F
347
3E
  0
LAYER
  5
76
330
2
100
AcDbSymbolTableRecord
100
AcDbLayerTableRecord
  2
Layer 2
 70
     0
 62
     7
  6
Continuous
370
    -3
390
F
347
3E
  0
ENDTAB
  0
TABLE
  2
STYLE
  5
3
330
0
100
AcDbSymbolTable
 70
     1
  0
STYLE
  5
11
330
3
100
AcDbSymbolTableRecord
100
AcDbTextStyleTableRecord
  2
Standard
 70
     0
 40
0.0
 41
1.0
 50
0.0
 71
     0
 42
0.2
  3
txt
  4

  0
ENDTAB
  0
TABLE
  2
VIEW
  5
6
330
0
100
AcDbSymbolTable
 70
     0
  0
ENDTAB
  0
TABLE
  2
UCS
  5
7
330
0
100
AcDbSymbolTable
 70
     0
  0
ENDTAB
  0
TABLE
  2
APPID
  5
9
330
0
100
AcDbSymbolTable
 70
     1
  0
APPID
  5
12
330
9
100
AcDbSymbolTableRecord
100
AcDbRegAppTableRecord
  2
ACAD
 70
     0
  0
ENDTAB
  0
TABLE
  2
DIMSTYLE
  5
A
330
0
100
AcDbSymbolTable
 70
     1
100
AcDbDimStyleTable
  0
DIMSTYLE
105
27
330
A
100
AcDbSymbolTableRecord
100
AcDbDimStyleTableRecord
  2
Standard
 70
     0
178
     0
340
11
  0
ENDTAB
  0
TABLE
  2
BLOCK_RECORD
  5
1
330
0
100
AcDbSymbolTable
 70
     1
  0
BLOCK_RECORD
  5
1F
330
1
100
AcDbSymbolTableRecord
100
AcDbBlockTableRecord
  2
*Model_Space
340
22
 70
     0
280
     1
281
     0
  0
BLOCK_RECORD
  5
1B
330
1
100
AcDbSymbolTableRecord
100
AcDbBlockTableRecord
  2
*Paper_Space
340
1E
 70
     0
280
     1
281
     0
  0
BLOCK_RECORD
  5
23
330
1
100
AcDbSymbolTableRecord
100
AcDbBlockTableRecord
  2
*Paper_Space0
340
26
 70
     0
280
     1
281
     0
  0
ENDTAB
  0
ENDSEC
  0
SECTION
  2
BLOCKS
  0
BLOCK
  5
20
330
1F
100
AcDbEntity
  8
0
100
AcDbBlockBegin
  2
*Model_Space
 70
     0
 10
0.0
 20
0.0
 30
0.0
  3
*Model_Space
  1

  0
ENDBLK
  5
21
330
1F
100
AcDbEntity
  8
0
100
AcDbBlockEnd
  0
BLOCK
  5
1C
330
1B
100
AcDbEntity
 67
     1
  8
0
100
AcDbBlockBegin
  2
*Paper_Space
 70
     0
 10
0.0
 20
0.0
 30
0.0
  3
*Paper_Space
  1

  0
ENDBLK
  5
1D
330
1B
100
AcDbEntity
 67
     1
  8
0
100
AcDbBlockEnd
  0
BLOCK
  5
24
330
23
100
AcDbEntity
  8
0
100
AcDbBlockBegin
  2
*Paper_Space0
 70
     0
 10
0.0
 20
0.0
 30
0.0
  3
*Paper_Space0
  1

  0
ENDBLK
  5
25
330
23
100
AcDbEntity
  8
0
100
AcDbBlockEnd
  0
ENDSEC
  0
SECTION
  2
ENTITIES
  0
SPLINE
  5
41
330
1F
100
AcDbEntity
  8
Layer 1
 62
     1
420
 16711680
370
     5
100
AcDbSpline
210
0.0
220
0.0
230
1.0
 70
     8
 71
     3
 72
    14
 73
    10
 74
     0
 42
0.0000000001
 43
0.0000000001
 12
1.0
 22
0.0
 32
0.0
 13
1.0
 23
0.0
 33
0.0
 40
0.0
 40
0.0
 40
0.0
 40
0.0
 40
1.0
 40
1.0
 40
1.0
 40
2.0
 40
2.0
 40
2.0
 40
3.0
 40
3.0
 40
3.0
 40
3.0
 10
12.7166005669031
 20
-8.627426851140639
 30
0.0
 10
13.33401805179321
 20
-8.600274309587386
 30
0.0
 10
13.79153413670954
 20
-8.59176849221112
 30
0.0
 10
13.98215238671014
 20
-8.62742685275263
 30
0.0
 10
14.08287903369096
 20
-8.64626947193613
 30
0.0
 10
14.08729530205541
 20
-8.695904603460235
 30
0.0
 10
13.98215238671014
 20
-8.711859601370053
 30
0.0
 10
13.75211874790784
 20
-8.746766244525398
 30
0.0
 10
13.34937637978045
 20
-8.739012144535296
 30
0.0
 10
12.7166005669031
 20
-8.711859597757767
 30
0.0
  0
SPLINE
  5
42
330
1F
100
AcDbEntity
  8
Layer 1
 62
     1
420
 16711680
370
     5
100
AcDbSpline
210
0.0
220
0.0
230
1.0
 70
     8
 71
     3
 72
    14
 73
    10
 74
     0
 42
0.0000000001
 43
0.0000000001
 12
1.0
 22
0.0
 32
0.0
 13
1.0
 23
0.0
 33
0.0
 40
0.0
 40
0.0
 40
0.0
 40
0.0
 40
1.0
 40
1.0
 40
1.0
 40
2.0
 40
2.0
 40
2.0
 40
3.0
 40
3.0
 40
3.0
 40
3.0
 10
12.7166005669031
 20
-9.037908080320348
 30
0.0
 10
13.33401805179321
 20
-9.01075553876712
 30
0.0
 10
13.79153413670954
 20
-9.002249721390866
 30
0.0
 10
13.98215238671014
 20
-9.037908081932375
 30
0.0
 10
14.08287903369096
 20
-9.056750701115863
 30
0.0
 10
14.08729530205541
 20
-9.106385832639969
 30
0.0
 10
13.98215238671014
 20
-9.122340830549799
 30
0.0
 10
13.75211874790784
 20
-9.157247473705132
 30
0.0
 10
13.34937637978045
 20
-9.14949337371503
 30
0.0
 10
12.7166005669031
 20
-9.122340826937489
 30
0.0
  0
SPLINE
  5
43
330
1F
100
AcDbEntity
  8
Layer 1
 62
     1
420
 16711680
370
     5
100
AcDbSpline
210
0.0
220
0.0
230
1.0
 70
     8
 71
     3
 72
    14
 73
    10
 74
     0
 42
0.0000000001
 43
0.0000000001
 12
1.0
 22
0.0
 32
0.0
 13
1.0
 23
0.0
 33
0.0
 40
0.0
 40
0.0
 40
0.0
 40
0.0
 40
1.0
 40
1.0
 40
1.0
 40
2.0
 40
2.0
 40
2.0
 40
3.0
 40
3.0
 40
3.0
 40
3.0
 10
12.7166005669031
 20
-9.44388094172594
 30
0.0
 10
13.33401805179321
 20
-9.416728400172689
 30
0.0
 10
13.79153413670954
 20
-9.408222582796421
 30
0.0
 10
13.98215238671014
 20
-9.443880943337918
 30
0.0
 10
14.08287903369096
 20
-9.462723562521433
 30
0.0
 10
14.08729530205541
 20
-9.512358694045561
 30
0.0
 10
13.98215238671014
 20
-9.528313691955342
 30
0.0
 10
13.75211874790784
 20
-9.563220335110701
 30
0.0
 10
13.34937637978045
 20
-9.555466235120598
 30
0.0
 10
12.7166005669031
 20
-9.528313688343081
 30
0.0
  0
POLYLINE
  5
44
330
1F
100
AcDbEntity
  8
Layer 1
 62
     1
420
 16711680
370
     5
100
AcDb2dPolyline
 66
     1
 10
0.0
 20
0.0
 30
0.0
  0
VERTEX
  5
45
330
44
100
AcDbEntity
  8
Layer 1
 62
     1
420
 16711680
370
     5
100
AcDbVertex
100
AcDb2dVertex
 10
11.36656186767412
 20
-8.78086180453268
 30
0.0
  0
VERTEX
  5
A8
330
44
100
AcDbEntity
  8
0
100
AcDbVertex
100
AcDb2dVertex
 10
11.36656186767412
 20
-8.78086180453268
 30
0.0
  0
SEQEND
  5
46
330
44
100
AcDbEntity
  8
Layer 1
 62
     1
420
 16711680
370
     5
  0
POLYLINE
  5
47
330
1F
100
AcDbEntity
  8
Layer 1
 62
     1
420
 16711680
370
     5
100
AcDb2dPolyline
 66
     1
 10
0.0
 20
0.0
 30
0.0
  0
VERTEX
  5
48
330
47
100
AcDbEntity
  8
Layer 1
 62
     1
420
 16711680
370
     5
100
AcDbVertex
100
AcDb2dVertex
 10
10.50256359168946
 20
-8.359597962531073
 30
0.0
  0
VERTEX
  5
49
330
47
100
AcDbEntity
  8
Layer 1
 62
     1
420
 16711680
370
     5
100
AcDbVertex
100
AcDb2dVertex
 10
11.43128862957293
 20
-8.642833669108642
 30
0.0
  0
SEQEND
  5
4A
330
47
100
AcDbEntity
  8
Layer 1
 62
     1
420
 16711680
370
     5
  0
POLYLINE
  5
4B
330
1F
100
AcDbEntity
  8
Layer 1
 62
     1
420
 16711680
370
     5
100
AcDb2dPolyline
 66
     1
 10
0.0
 20
0.0
 30
0.0
  0
VERTEX
  5
4C
330
4B
100
AcDbEntity
  8
Layer 1
 62
     1
420
 16711680
370
     5
100
AcDbVertex
100
AcDb2dVertex
 10
12.7166005669031
 20
-8.870226085065408
 30
0.0
  0
VERTEX
  5
4D
330
4B
100
AcDbEntity
  8
Layer 1
 62
     1
420
 16711680
370
     5
100
AcDbVertex
100
AcDb2dVertex
 10
16.78377157758624
 20
-8.870226085065408
 30
0.0
  0
SEQEND
  5
4E
330
4B
100
AcDbEntity
  8
Layer 1
 62
     1
420
 16711680
370
     5
  0
POLYLINE
  5
4F
330
1F
100
AcDbEntity
  8
Layer 1
 62
     1
420
 16711680
370
     5
100
AcDb2dPolyline
 66
     1
 10
0.0
 20
0.0
 30
0.0
  0
VERTEX
  5
50
330
4F
100
AcDbEntity
  8
Layer 1
 62
     1
420
 16711680
370
     5
100
AcDbVertex
100
AcDb2dVertex
 10
12.7166005669031
 20
-9.271690578696886
 30
0.0
  0
VERTEX
  5
51
330
4F
100
AcDbEntity
  8
Layer 1
 62
     1
420
 16711680
370
     5
100
AcDbVertex
100
AcDb2dVertex
 10
16.78377157758624
 20
-9.271690578696886
 30
0.0
  0
SEQEND
  5
52
330
4F
100
AcDbEntity
  8
Layer 1
 62
     1
420
 16711680
370
     5
  0
SPLINE
  5
53
330
1F
100
AcDbEntity
  8
Layer 1
 62
     1
420
 16711680
370
     5
100
AcDbSpline
210
0.0
220
0.0
230
1.0
 70
     8
 71
     3
 72
     8
 73
     4
 74
     0
 42
0.0000000001
 43
0.0000000001
 12
1.0
 22
0.0
 32
0.0
 13
1.0
 23
0.0
 33
0.0
 40
0.0
 40
0.0
 40
0.0
 40
0.0
 40
1.0
 40
1.0
 40
1.0
 40
1.0
 10
8.25876723616534
 20
-10.04979172037661
 30
0.0
 10
8.257514320041208
 20
-10.04723587320864
 30
0.0
 10
8.256574209092857
 20
-10.0448080303267
 30
0.0
 10
8.25578159977211
 20
-10.04243952718
 30
0.0
  0
SPLINE
  5
54
330
1F
100
AcDbEntity
  8
Layer 1
 62
     1
420
 16711680
370
     5
100
AcDbSpline
210
0.0
220
0.0
230
1.0
 70
    11
 71
     3
 72
   161
 73
   157
 74
     0
 42
0.0000000001
 43
0.0000000001
 12
1.0
 22
0.0
 32
0.0
 13
1.0
 23
0.0
 33
0.0
 40
0.0
 40
0.0
 40
0.0
 40
0.0
 40
1.0
 40
1.0
 40
1.0
 40
2.0
 40
2.0
 40
2.0
 40
3.0
 40
3.0
 40
3.0
 40
4.0
 40
4.0
 40
4.0
 40
5.0
 40
5.0
 40
5.0
 40
6.0
 40
6.0
 40
6.0
 40
7.0
 40
7.0
 40
7.0
 40
8.0
 40
8.0
 40
8.0
 40
9.0
 40
9.0
 40
9.0
 40
10.0
 40
10.0
 40
10.0
 40
11.0
 40
11.0
 40
11.0
 40
12.0
 40
12.0
 40
12.0
 40
13.0
 40
13.0
 40
13.0
 40
14.0
 40
14.0
 40
14.0
 40
15.0
 40
15.0
 40
15.0
 40
16.0
 40
16.0
 40
16.0
 40
17.0
 40
17.0
 40
17.0
 40
18.0
 40
18.0
 40
18.0
 40
19.0
 40
19.0
 40
19.0
 40
20.0
 40
20.0
 40
20.0
 40
21.0
 40
21.0
 40
21.0
 40
22.0
 40
22.0
 40
22.0
 40
23.0
 40
23.0
 40
23.0
 40
24.0
 40
24.0
 40
24.0
 40
25.0
 40
25.0
 40
25.0
 40
26.0
 40
26.0
 40
26.0
 40
27.0
 40
27.0
 40
27.0
 40
28.0
 40
28.0
 40
28.0
 40
29.0
 40
29.0
 40
29.0
 40
30.0
 40
30.0
 40
30.0
 40
31.0
 40
31.0
 40
31.0
 40
32.0
 40
32.0
 40
32.0
 40
33.0
 40
33.0
 40
33.0
 40
34.0
 40
34.0
 40
34.0
 40
35.0
 40
35.0
 40
35.0
 40
36.0
 40
36.0
 40
36.0
 40
37.0
 40
37.0
 40
37.0
 40
38.0
 40
38.0
 40
38.0
 40
39.0
 40
39.0
 40
39.0
 40
40.0
 40
40.0
 40
40.0
 40
41.0
 40
41.0
 40
41.0
 40
42.0
 40
42.0
 40
42.0
 40
43.0
 40
43.0
 40
43.0
 40
44.0
 40
44.0
 40
44.0
 40
45.0
 40
45.0
 40
45.0
 40
46.0
 40
46.0
 40
46.0
 40
47.0
 40
47.0
 40
47.0
 40
48.0
 40
48.0
 40
48.0
 40
49.0
 40
49.0
 40
49.0
 40
50.0
 40
50.0
 40
50.0
 40
51.0
 40
51.0
 40
51.0
 40
52.0
 40
52.0
 40
52.0
 40
52.0
 10
14.75018607224471
 20
-8.086415165054417
 30
0.0
 10
14.3683646941111
 20
-8.087289132740214
 30
0.0
 10
12.57295699770955
 20
-8.080490341679832
 30
0.0
 10
12.57295699770955
 20
-8.080490341679832
 30
0.0
 10
11.83578455304808
 20
-8.415104565583912
 30
0.0
 10
12.33494999032761
 20
-8.864061139109404
 30
0.0
 10
11.89254005109149
 20
-8.966451004560794
 30
0.0
 10
11.82109670527987
 20
-8.98298559793102
 30
0.0
 10
11.75031626908195
 20
-8.995983543080758
 30
0.0
 10
11.68027842728508
 20
-9.005616077531714
 30
0.0
 10
11.69819733190746
 20
-8.972771534074683
 30
0.0
 10
11.69863983679028
 20
-8.93550787576305
 30
0.0
 10
11.69857541079202
 20
-8.874684647138919
 30
0.0
 10
11.69854658863489
 20
-8.848355606611575
 30
0.0
 10
11.69848894432065
 20
-8.807261992245255
 30
0.0
 10
11.6950794526757
 20
-8.7662573874818
 30
0.0
 10
11.69743778329635
 20
-8.763108990671904
 30
0.0
 10
11.69976729175989
 20
-8.759908035810794
 30
0.0
 10
11.70197812075294
 20
-8.756529909454457
 30
0.0
 10
11.73280765634322
 20
-8.709427723039527
 30
0.0
 10
11.73669186587014
 20
-8.657125680396296
 30
0.0
 10
11.73845849455938
 20
-8.63478511778779
 30
0.0
 10
11.74305986717223
 20
-8.576622852434058
 30
0.0
 10
11.72939816469827
 20
-8.52962917296357
 30
0.0
 10
11.71955794117396
 20
-8.503169585018693
 30
0.0
 10
11.38032793357848
 20
-8.201104053605933
 30
0.0
 10
10.99940243715919
 20
-8.032679235355065
 30
0.0
 10
10.73337053611753
 20
-8.075457250491784
 30
0.0
 10
10.53823435990225
 20
-8.106834407067304
 30
0.0
 10
10.25134793276466
 20
-8.275557619415395
 30
0.0
 10
10.12083527136058
 20
-8.296453683325984
 30
0.0
 10
10.02235165590919
 20
-8.312221098690568
 30
0.0
 10
10.32140357648211
 20
-8.60511694558727
 30
0.0
 10
10.53777150996737
 20
-8.7413550437318
 30
0.0
 10
10.53777235767786
 20
-8.741355891442304
 30
0.0
 10
10.99197649314878
 20
-9.01484849262503
 30
0.0
 10
11.52814660491093
 20
-8.861135690161921
 30
0.0
 10
11.53193078459843
 20
-8.87772962326739
 30
0.0
 10
11.53449426116093
 20
-8.896893814619387
 30
0.0
 10
11.53193078459843
 20
-8.923288976566
 30
0.0
 10
11.52757016176857
 20
-8.968194745066436
 30
0.0
 10
11.51179257387794
 20
-8.99959987608857
 30
0.0
 10
11.4987446138085
 20
-9.022944127933188
 30
0.0
 10
11.10735582664487
 20
-9.043236621965308
 30
0.0
 10
10.74435940737404
 20
-8.949835878692738
 30
0.0
 10
10.43278425953334
 20
-8.736661270674075
 30
0.0
 10
10.36670098723515
 20
-8.691448630971383
 30
0.0
 10
9.941862391315011
 20
-8.574741782826852
 30
0.0
 10
9.820496526243408
 20
-8.534985855635012
 30
0.0
 10
9.655475265663968
 20
-8.50246852843232
 30
0.0
 10
9.471590750961278
 20
-8.482204008846818
 30
0.0
 10
9.27829325882803
 20
-8.486761300513484
 30
0.0
 10
9.270718965479519
 20
-8.486114497399335
 30
0.0
 10
9.256370617497737
 20
-8.484867515248727
 30
0.0
 10
9.227876524344525
 20
-8.473522605580758
 30
0.0
 10
9.192722817476048
 20
-8.459526057457929
 30
0.0
 10
9.202753775863622
 20
-8.416646317060794
 30
0.0
 10
9.228942096447389
 20
-8.346794971574683
 30
0.0
 10
9.232276141857545
 20
-8.337903336103762
 30
0.0
 10
9.194300406722997
 20
-8.363871251956628
 30
0.0
 10
9.150376286985583
 20
-8.429616287763919
 30
0.0
 10
9.133999367769004
 20
-8.45412868468232
 30
0.0
 10
9.116401745427437
 20
-8.472363785322512
 30
0.0
 10
9.110079520492528
 20
-8.492481650990914
 30
0.0
 10
8.74705512677508
 20
-8.507954910810794
 30
0.0
 10
8.590705944646187
 20
-8.536382882544734
 30
0.0
 10
8.263598197250353
 20
-8.581722678822945
 30
0.0
 10
7.862553139741673
 20
-8.637310447377633
 30
0.0
 10
7.541178458480809
 20
-8.672549773006974
 30
0.0
 10
7.243264165403552
 20
-8.752447335669734
 30
0.0
 10
7.026613944320653
 20
-8.810551108998727
 30
0.0
 10
6.756726655909195
 20
-8.843080304148467
 30
0.0
 10
6.784991867226469
 20
-8.955773243059058
 30
0.0
 10
6.856248716727337
 20
-9.239875788903241
 30
0.0
 10
6.684382193832372
 20
-9.292627965823813
 30
0.0
 10
7.292229619505115
 20
-9.137262127878936
 30
0.0
 10
7.928092181896608
 20
-8.974734831600724
 30
0.0
 10
7.665301925820219
 20
-9.039291377282147
 30
0.0
 10
8.022650050006417
 20
-8.978012080407147
 30
0.0
 10
8.11781657425772
 20
-8.961692805504804
 30
0.0
 10
8.509861489351048
 20
-8.905308189076852
 30
0.0
 10
8.618225170720393
 20
-8.889209318905412
 30
0.0
 10
9.279817442313275
 20
-8.73826174810463
 30
0.0
 10
10.04275350459626
 20
-8.762173965986575
 30
0.0
 10
10.37557905933801
 20
-8.918857146053849
 30
0.0
 10
10.42249135860017
 20
-8.940941700090308
 30
0.0
 10
10.47030731725903
 20
-8.963069487362443
 30
0.0
 10
10.51883111418828
 20
-8.98486327669621
 30
0.0
 10
10.50421488968741
 20
-9.001044374786488
 30
0.0
 10
10.48518039804244
 20
-9.018245268612443
 30
0.0
 10
10.45821218379549
 20
-9.03304459858206
 30
0.0
 10
10.44743184932282
 20
-9.038960770185794
 30
0.0
 10
10.437708609848
 20
-9.043153546335967
 30
0.0
 10
10.42863556432933
 20
-9.046368912275637
 30
0.0
 10
10.42685282914053
 20
-9.043273073516957
 30
0.0
 10
10.42525998110452
 20
-9.040154346574683
 30
0.0
 10
10.42325599347431
 20
-9.037093263946645
 30
0.0
 10
10.38164018943785
 20
-8.97351073763371
 30
0.0
 10
10.31210249683801
 20
-8.95154062451522
 30
0.0
 10
10.28026927201162
 20
-8.941483387102027
 30
0.0
 10
9.73076382631935
 20
-8.767868037438397
 30
0.0
 10
9.259050230399213
 20
-9.052266434248294
 30
0.0
 10
9.259049382688708
 20
-9.052267281958796
 30
0.0
 10
9.042681449203478
 20
-9.188506227813832
 30
0.0
 10
8.743629528630562
 20
-9.48140122700003
 30
0.0
 10
8.842113144081951
 20
-9.497168642364613
 30
0.0
 10
8.972625805486018
 20
-9.518064706275203
 30
0.0
 10
9.259512232623617
 20
-9.686787918623294
 30
0.0
 10
9.454648408838894
 20
-9.718165922909318
 30
0.0
 10
9.720680309880562
 20
-9.760943090335532
 30
0.0
 10
10.10160580629982
 20
-9.592519119795169
 30
0.0
 10
10.44083581389531
 20
-9.290452740671904
 30
0.0
 10
10.44731656069435
 20
-9.273026355852027
 30
0.0
 10
10.45535116084626
 20
-9.246564224775637
 30
0.0
 10
10.45883864185754
 20
-9.214000273495255
 30
0.0
 10
10.46626712899947
 20
-9.210878155710967
 30
0.0
 10
10.4732556543901
 20
-9.207906930396296
 30
0.0
 10
10.47922099320303
 20
-9.205356169491349
 30
0.0
 10
10.54372158999123
 20
-9.177777603681887
 30
0.0
 10
10.5792109902191
 20
-9.161994929528241
 30
0.0
 10
10.60228567012362
 20
-9.122361072648902
 30
0.0
 10
10.61853034650164
 20
-9.094457833716609
 30
0.0
 10
10.62459062889098
 20
-9.061610747128068
 30
0.0
 10
10.62395060746084
 20
-9.030918540639352
 30
0.0
 10
10.91539008771258
 20
-9.15517085997529
 30
0.0
 10
11.22819102494133
 20
-9.257625999135445
 30
0.0
 10
11.53049645842656
 20
-9.256956307837703
 30
0.0
 10
11.5387836763085
 20
-9.272606739152808
 30
0.0
 10
11.55253354067482
 20
-9.288125775339873
 30
0.0
 10
11.56555098316614
 20
-9.307611248972686
 30
0.0
 10
11.60947595061406
 20
-9.373357132490481
 30
0.0
 10
11.6474499903276
 20
-9.399324200632842
 30
0.0
 10
11.64411679262794
 20
-9.390433412872426
 30
0.0
 10
11.61792931975468
 20
-9.32058121967581
 30
0.0
 10
11.6078992090776
 20
-9.277702326989179
 30
0.0
 10
11.64305206823558
 20
-9.263705778866349
 30
0.0
 10
11.69512183820086
 20
-9.242974170793433
 30
0.0
 10
11.70021827374774
 20
-9.25581783263154
 30
0.0
 10
11.7023341591644
 20
-9.244623815433188
 30
0.0
 10
11.77027646059669
 20
-9.234778505645863
 30
0.0
 10
11.83737783320954
 20
-9.218928862362443
 30
0.0
 10
11.90320085838315
 20
-9.19569566059378
 30
0.0
 10
12.08941233841789
 20
-9.129967578996558
 30
0.0
 10
12.15842614592657
 20
-9.129967578996558
 30
0.0
 10
12.2394876151106
 20
-9.19569566059378
 30
0.0
 10
12.35669546016268
 20
-9.290730789717044
 30
0.0
 10
12.1083447824856
 20
-9.45589707041371
 30
0.0
 10
12.56160880700817
 20
-9.686054710658937
 30
0.0
 10
12.56160880700817
 20
-9.686054710658937
 30
0.0
 10
14.38321738089321
 20
-9.689214755648461
 30
0.0
 10
14.75018607224471
 20
-9.688370175177825
 30
0.0
 10
17.30578557489151
 20
-9.682488448802864
 30
0.0
 10
17.15834480161763
 20
-9.886574866437563
 30
0.0
 10
17.17050586826779
 20
-8.86796646887981
 30
0.0
 10
17.18193978590125
 20
-7.910263920781694
 30
0.0
 10
17.31981067828499
 20
-8.080533438679469
 30
0.0
 10
14.75018607224471
 20
-8.086415165054417
 30
0.0
  0
SPLINE
  5
55
330
1F
100
AcDbEntity
  8
Layer 1
 62
     1
420
 16711680
370
     5
100
AcDbSpline
210
0.0
220
0.0
230
1.0
 70
     8
 71
     3
 72
    11
 73
     7
 74
     0
 42
0.0000000001
 43
0.0000000001
 12
1.0
 22
0.0
 32
0.0
 13
1.0
 23
0.0
 33
0.0
 40
0.0
 40
0.0
 40
0.0
 40
0.0
 40
1.0
 40
1.0
 40
1.0
 40
2.0
 40
2.0
 40
2.0
 40
2.0
 10
11.09810377084453
 20
-8.413128995514297
 30
0.0
 10
11.12732038877747
 20
-8.414490163392037
 30
0.0
 10
11.19332755801324
 20
-8.421571675119644
 30
0.0
 10
11.2597113816295
 20
-8.466596034088045
 30
0.0
 10
11.34205619055444
 20
-8.522445951706914
 30
0.0
 10
11.37220776911205
 20
-8.600884786266533
 30
0.0
 10
11.38107510104066
 20
-8.627274321612642
 30
0.0
  0
SPLINE
  5
56
330
1F
100
AcDbEntity
  8
Layer 1
 62
     1
420
 16711680
370
     5
100
AcDbSpline
210
0.0
220
0.0
230
1.0
 70
     8
 71
     3
 72
    11
 73
     7
 74
     0
 42
0.0000000001
 43
0.0000000001
 12
1.0
 22
0.0
 32
0.0
 13
1.0
 23
0.0
 33
0.0
 40
0.0
 40
0.0
 40
0.0
 40
0.0
 40
1.0
 40
1.0
 40
1.0
 40
2.0
 40
2.0
 40
2.0
 40
2.0
 10
10.69109181912471
 20
-8.580032026729214
 30
0.0
 10
10.71707839522887
 20
-8.59345444841132
 30
0.0
 10
10.77779035702197
 20
-8.620308719842518
 30
0.0
 10
10.85779103049131
 20
-8.614486591118041
 30
0.0
 10
10.95702672123243
 20
-8.6072645042971
 30
0.0
 10
11.02234376532668
 20
-8.554392468140184
 30
0.0
 10
11.04321284705526
 20
-8.535966438206376
 30
0.0
  0
POLYLINE
  5
57
330
1F
100
AcDbEntity
  8
Layer 1
 62
     1
420
 16711680
370
     5
100
AcDb2dPolyline
 66
     1
 10
0.0
 20
0.0
 30
0.0
  0
VERTEX
  5
58
330
57
100
AcDbEntity
  8
Layer 1
 62
     1
420
 16711680
370
     5
100
AcDbVertex
100
AcDb2dVertex
 10
9.177356354420567
 20
-9.446656332402956
 30
0.0
  0
VERTEX
  5
59
330
57
100
AcDbEntity
  8
Layer 1
 62
     1
420
 16711680
370
     5
100
AcDbVertex
100
AcDb2dVertex
 10
10.10608139230404
 20
-9.163420625825387
 30
0.0
  0
SEQEND
  5
5A
330
57
100
AcDbEntity
  8
Layer 1
 62
     1
420
 16711680
370
     5
  0
SPLINE
  5
5B
330
1F
100
AcDbEntity
  8
Layer 1
 62
     1
420
 16711680
370
     5
100
AcDbSpline
210
0.0
220
0.0
230
1.0
 70
     8
 71
     3
 72
    11
 73
     7
 74
     0
 42
0.0000000001
 43
0.0000000001
 12
1.0
 22
0.0
 32
0.0
 13
1.0
 23
0.0
 33
0.0
 40
0.0
 40
0.0
 40
0.0
 40
0.0
 40
1.0
 40
1.0
 40
1.0
 40
2.0
 40
2.0
 40
2.0
 40
2.0
 10
9.77289653357564
 20
-9.393125299419756
 30
0.0
 10
9.80211315150858
 20
-9.391764131542004
 30
0.0
 10
9.868120320744348
 20
-9.38468261981441
 30
0.0
 10
9.934504144360618
 20
-9.339658260845983
 30
0.0
 10
10.01684895328555
 20
-9.283808343227115
 30
0.0
 10
10.04700053184316
 20
-9.205369508667495
 30
0.0
 10
10.05586786377177
 20
-9.178979973321374
 30
0.0
  0
SPLINE
  5
5C
330
1F
100
AcDbEntity
  8
Layer 1
 62
     1
420
 16711680
370
     5
100
AcDbSpline
210
0.0
220
0.0
230
1.0
 70
     8
 71
     3
 72
    11
 73
     7
 74
     0
 42
0.0000000001
 43
0.0000000001
 12
1.0
 22
0.0
 32
0.0
 13
1.0
 23
0.0
 33
0.0
 40
0.0
 40
0.0
 40
0.0
 40
0.0
 40
1.0
 40
1.0
 40
1.0
 40
2.0
 40
2.0
 40
2.0
 40
2.0
 10
9.365884581855816
 20
-9.226222268204815
 30
0.0
 10
9.391871157959965
 20
-9.212799846522708
 30
0.0
 10
9.452583119753083
 20
-9.18594557509151
 30
0.0
 10
9.532583793222416
 20
-9.191767703815987
 30
0.0
 10
9.631819483963541
 20
-9.198989790636915
 30
0.0
 10
9.69713652805779
 20
-9.25186182679383
 30
0.0
 10
9.718005609786372
 20
-9.270287856727665
 30
0.0
  0
POLYLINE
  5
5D
330
1F
100
AcDbEntity
  8
Layer 1
 62
     1
420
 16711680
370
     5
100
AcDb2dPolyline
 66
     1
 10
0.0
 20
0.0
 30
0.0
  0
VERTEX
  5
5E
330
5D
100
AcDbEntity
  8
Layer 1
 62
     1
420
 16711680
370
     5
100
AcDbVertex
100
AcDb2dVertex
 10
14.05936235211624
 20
-9.079975067429384
 30
0.0
  0
VERTEX
  5
5F
330
5D
100
AcDbEntity
  8
Layer 1
 62
     1
420
 16711680
370
     5
100
AcDbVertex
100
AcDb2dVertex
 10
16.78377157758624
 20
-9.079975067429384
 30
0.0
  0
SEQEND
  5
60
330
5D
100
AcDbEntity
  8
Layer 1
 62
     1
420
 16711680
370
     5
  0
SPLINE
  5
61
330
1F
100
AcDbEntity
  8
Layer 1
 62
     1
420
 16711680
370
     5
100
AcDbSpline
210
0.0
220
0.0
230
1.0
 70
     8
 71
     3
 72
    14
 73
    10
 74
     0
 42
0.0000000001
 43
0.0000000001
 12
1.0
 22
0.0
 32
0.0
 13
1.0
 23
0.0
 33
0.0
 40
0.0
 40
0.0
 40
0.0
 40
0.0
 40
1.0
 40
1.0
 40
1.0
 40
2.0
 40
2.0
 40
2.0
 40
3.0
 40
3.0
 40
3.0
 40
3.0
 10
12.7166005669031
 20
-8.24664069625587
 30
0.0
 10
13.33401805179321
 20
-8.21948815470263
 30
0.0
 10
13.79153413670954
 20
-8.210982337326362
 30
0.0
 10
13.98215238671014
 20
-8.246640697867873
 30
0.0
 10
14.08287903369096
 20
-8.265483317051373
 30
0.0
 10
14.08729530205541
 20
-8.315118448575491
 30
0.0
 10
13.98215238671014
 20
-8.331073446485295
 30
0.0
 10
13.75211874790784
 20
-8.365980089640642
 30
0.0
 10
13.34937637978045
 20
-8.358225989650538
 30
0.0
 10
12.7166005669031
 20
-8.33107344287301
 30
0.0
  0
POLYLINE
  5
62
330
1F
100
AcDbEntity
  8
Layer 1
 62
     1
420
 16711680
370
     5
100
AcDb2dPolyline
 66
     1
 10
0.0
 20
0.0
 30
0.0
  0
VERTEX
  5
63
330
62
100
AcDbEntity
  8
Layer 1
 62
     1
420
 16711680
370
     5
100
AcDbVertex
100
AcDb2dVertex
 10
12.7166005669031
 20
-8.480423194632408
 30
0.0
  0
VERTEX
  5
64
330
62
100
AcDbEntity
  8
Layer 1
 62
     1
420
 16711680
370
     5
100
AcDbVertex
100
AcDb2dVertex
 10
16.78377157758624
 20
-8.480423194632408
 30
0.0
  0
SEQEND
  5
65
330
62
100
AcDbEntity
  8
Layer 1
 62
     1
420
 16711680
370
     5
  0
POLYLINE
  5
66
330
1F
100
AcDbEntity
  8
Layer 1
 62
     1
420
 16711680
370
     5
100
AcDb2dPolyline
 66
     1
 10
0.0
 20
0.0
 30
0.0
  0
VERTEX
  5
67
330
66
100
AcDbEntity
  8
Layer 1
 62
     1
420
 16711680
370
     5
100
AcDbVertex
100
AcDb2dVertex
 10
14.05936235211624
 20
-8.288707683364906
 30
0.0
  0
VERTEX
  5
68
330
66
100
AcDbEntity
  8
Layer 1
 62
     1
420
 16711680
370
     5
100
AcDbVertex
100
AcDb2dVertex
 10
16.78377157758624
 20
-8.288707683364906
 30
0.0
  0
SEQEND
  5
69
330
66
100
AcDbEntity
  8
Layer 1
 62
     1
420
 16711680
370
     5
  0
POLYLINE
  5
6A
330
1F
100
AcDbEntity
  8
Layer 1
 62
     1
420
 16711680
370
     5
100
AcDb2dPolyline
 66
     1
 10
0.0
 20
0.0
 30
0.0
  0
VERTEX
  5
6B
330
6A
100
AcDbEntity
  8
Layer 1
 62
     1
420
 16711680
370
     5
100
AcDbVertex
100
AcDb2dVertex
 10
14.05936235211624
 20
-8.660477102701394
 30
0.0
  0
VERTEX
  5
6C
330
6A
100
AcDbEntity
  8
Layer 1
 62
     1
420
 16711680
370
     5
100
AcDbVertex
100
AcDb2dVertex
 10
16.78377157758624
 20
-8.660477102701394
 30
0.0
  0
SEQEND
  5
6D
330
6A
100
AcDbEntity
  8
Layer 1
 62
     1
420
 16711680
370
     5
  0
POLYLINE
  5
6E
330
1F
100
AcDbEntity
  8
Layer 1
 62
     1
420
 16711680
370
     5
100
AcDb2dPolyline
 66
     1
 10
0.0
 20
0.0
 30
0.0
  0
VERTEX
  5
6F
330
6E
100
AcDbEntity
  8
Layer 1
 62
     1
420
 16711680
370
     5
100
AcDbVertex
100
AcDb2dVertex
 10
14.05936235211624
 20
-9.485947928834976
 30
0.0
  0
VERTEX
  5
70
330
6E
100
AcDbEntity
  8
Layer 1
 62
     1
420
 16711680
370
     5
100
AcDbVertex
100
AcDb2dVertex
 10
16.78377157758624
 20
-9.485947928834976
 30
0.0
  0
SEQEND
  5
71
330
6E
100
AcDbEntity
  8
Layer 1
 62
     1
420
 16711680
370
     5
  0
POLYLINE
  5
72
330
1F
100
AcDbEntity
  8
Layer 1
 62
     1
420
 16711680
370
     5
100
AcDb2dPolyline
 66
     1
 10
0.0
 20
0.0
 30
0.0
  0
VERTEX
  5
73
330
72
100
AcDbEntity
  8
Layer 1
 62
     1
420
 16711680
370
     5
100
AcDbVertex
100
AcDb2dVertex
 10
12.48935542775507
 20
-8.288493608357284
 30
0.0
  0
VERTEX
  5
74
330
72
100
AcDbEntity
  8
Layer 1
 62
     1
420
 16711680
370
     5
100
AcDbVertex
100
AcDb2dVertex
 10
12.48935542775507
 20
-9.447439329402313
 30
0.0
  0
SEQEND
  5
75
330
72
100
AcDbEntity
  8
Layer 1
 62
     1
420
 16711680
370
     5
  0
SPLINE
  5
77
330
1F
100
AcDbEntity
  8
Layer 2
 62
     1
420
 16711680
370
    35
100
AcDbSpline
210
0.0
220
0.0
230
1.0
 70
     8
 71
     3
 72
    14
 73
    10
 74
     0
 42
0.0000000001
 43
0.0000000001
 12
1.0
 22
0.0
 32
0.0
 13
1.0
 23
0.0
 33
0.0
 40
0.0
 40
0.0
 40
0.0
 40
0.0
 40
1.0
 40
1.0
 40
1.0
 40
2.0
 40
2.0
 40
2.0
 40
3.0
 40
3.0
 40
3.0
 40
3.0
 10
10.80752301965529
 20
-9.851170936514336
 30
0.0
 10
11.4249405045454
 20
-9.824018394961058
 30
0.0
 10
11.88245658946173
 20
-9.81551257758479
 30
0.0
 10
12.07307483946235
 20
-9.851170938126314
 30
0.0
 10
12.17380148644315
 20
-9.870013557309802
 30
0.0
 10
12.17821775480767
 20
-9.919648688833906
 30
0.0
 10
12.07307483946235
 20
-9.935603686743736
 30
0.0
 10
11.84304120066003
 20
-9.970510329899096
 30
0.0
 10
11.44029883253264
 20
-9.962756229908992
 30
0.0
 10
10.80752301965529
 20
-9.93560368313145
 30
0.0
  0
SPLINE
  5
78
330
1F
100
AcDbEntity
  8
Layer 2
 62
     1
420
 16711680
370
    35
100
AcDbSpline
210
0.0
220
0.0
230
1.0
 70
     8
 71
     3
 72
    14
 73
    10
 74
     0
 42
0.0000000001
 43
0.0000000001
 12
1.0
 22
0.0
 32
0.0
 13
1.0
 23
0.0
 33
0.0
 40
0.0
 40
0.0
 40
0.0
 40
0.0
 40
1.0
 40
1.0
 40
1.0
 40
2.0
 40
2.0
 40
2.0
 40
3.0
 40
3.0
 40
3.0
 40
3.0
 10
10.80752301965529
 20
-10.26165216569403
 30
0.0
 10
11.4249405045454
 20
-10.2344996241408
 30
0.0
 10
11.88245658946173
 20
-10.22599380676454
 30
0.0
 10
12.07307483946235
 20
-10.26165216730606
 30
0.0
 10
12.17380148644315
 20
-10.28049478648955
 30
0.0
 10
12.17821775480767
 20
-10.33012991801365
 30
0.0
 10
12.07307483946235
 20
-10.34608491592348
 30
0.0
 10
11.84304120066003
 20
-10.38099155907882
 30
0.0
 10
11.44029883253264
 20
-10.37323745908872
 30
0.0
 10
10.80752301965529
 20
-10.34608491231117
 30
0.0
  0
SPLINE
  5
79
330
1F
100
AcDbEntity
  8
Layer 2
 62
     1
420
 16711680
370
    35
100
AcDbSpline
210
0.0
220
0.0
230
1.0
 70
     8
 71
     3
 72
    14
 73
    10
 74
     0
 42
0.0000000001
 43
0.0000000001
 12
1.0
 22
0.0
 32
0.0
 13
1.0
 23
0.0
 33
0.0
 40
0.0
 40
0.0
 40
0.0
 40
0.0
 40
1.0
 40
1.0
 40
1.0
 40
2.0
 40
2.0
 40
2.0
 40
3.0
 40
3.0
 40
3.0
 40
3.0
 10
10.80752301965529
 20
-10.66762502709962
 30
0.0
 10
11.4249405045454
 20
-10.64047248554637
 30
0.0
 10
11.88245658946173
 20
-10.63196666817011
 30
0.0
 10
12.07307483946235
 20
-10.6676250287116
 30
0.0
 10
12.17380148644315
 20
-10.68646764789512
 30
0.0
 10
12.17821775480767
 20
-10.73610277941925
 30
0.0
 10
12.07307483946235
 20
-10.75205777732903
 30
0.0
 10
11.84304120066003
 20
-10.78696442048438
 30
0.0
 10
11.44029883253264
 20
-10.77921032049428
 30
0.0
 10
10.80752301965529
 20
-10.75205777371677
 30
0.0
  0
POLYLINE
  5
7A
330
1F
100
AcDbEntity
  8
Layer 2
 62
     1
420
 16711680
370
    35
100
AcDb2dPolyline
 66
     1
 10
0.0
 20
0.0
 30
0.0
  0
VERTEX
  5
7B
330
7A
100
AcDbEntity
  8
Layer 2
 62
     1
420
 16711680
370
    35
100
AcDbVertex
100
AcDb2dVertex
 10
8.59348604444166
 20
-9.583342047904756
 30
0.0
  0
VERTEX
  5
7C
330
7A
100
AcDbEntity
  8
Layer 2
 62
     1
420
 16711680
370
    35
100
AcDbVertex
100
AcDb2dVertex
 10
9.52221108232513
 20
-9.866577754482325
 30
0.0
  0
SEQEND
  5
7D
330
7A
100
AcDbEntity
  8
Layer 2
 62
     1
420
 16711680
370
    35
  0
POLYLINE
  5
7E
330
1F
100
AcDbEntity
  8
Layer 2
 62
     1
420
 16711680
370
    35
100
AcDb2dPolyline
 66
     1
 10
0.0
 20
0.0
 30
0.0
  0
VERTEX
  5
7F
330
7E
100
AcDbEntity
  8
Layer 2
 62
     1
420
 16711680
370
    35
100
AcDbVertex
100
AcDb2dVertex
 10
10.80752301965529
 20
-10.09397017043908
 30
0.0
  0
VERTEX
  5
80
330
7E
100
AcDbEntity
  8
Layer 2
 62
     1
420
 16711680
370
    35
100
AcDbVertex
100
AcDb2dVertex
 10
14.87469403033846
 20
-10.09397017043908
 30
0.0
  0
SEQEND
  5
81
330
7E
100
AcDbEntity
  8
Layer 2
 62
     1
420
 16711680
370
    35
  0
POLYLINE
  5
82
330
1F
100
AcDbEntity
  8
Layer 2
 62
     1
420
 16711680
370
    35
100
AcDb2dPolyline
 66
     1
 10
0.0
 20
0.0
 30
0.0
  0
VERTEX
  5
83
330
82
100
AcDbEntity
  8
Layer 2
 62
     1
420
 16711680
370
    35
100
AcDbVertex
100
AcDb2dVertex
 10
10.80752301965529
 20
-10.49543466407057
 30
0.0
  0
VERTEX
  5
84
330
82
100
AcDbEntity
  8
Layer 2
 62
     1
420
 16711680
370
    35
100
AcDbVertex
100
AcDb2dVertex
 10
14.87469403033846
 20
-10.49543466407057
 30
0.0
  0
SEQEND
  5
85
330
82
100
AcDbEntity
  8
Layer 2
 62
     1
420
 16711680
370
    35
  0
SPLINE
  5
86
330
1F
100
AcDbEntity
  8
Layer 2
 62
     1
420
 16711680
370
    35
100
AcDbSpline
210
0.0
220
0.0
230
1.0
 70
    11
 71
     3
 72
   161
 73
   157
 74
     0
 42
0.0000000001
 43
0.0000000001
 12
1.0
 22
0.0
 32
0.0
 13
1.0
 23
0.0
 33
0.0
 40
0.0
 40
0.0
 40
0.0
 40
0.0
 40
1.0
 40
1.0
 40
1.0
 40
2.0
 40
2.0
 40
2.0
 40
3.0
 40
3.0
 40
3.0
 40
4.0
 40
4.0
 40
4.0
 40
5.0
 40
5.0
 40
5.0
 40
6.0
 40
6.0
 40
6.0
 40
7.0
 40
7.0
 40
7.0
 40
8.0
 40
8.0
 40
8.0
 40
9.0
 40
9.0
 40
9.0
 40
10.0
 40
10.0
 40
10.0
 40
11.0
 40
11.0
 40
11.0
 40
12.0
 40
12.0
 40
12.0
 40
13.0
 40
13.0
 40
13.0
 40
14.0
 40
14.0
 40
14.0
 40
15.0
 40
15.0
 40
15.0
 40
16.0
 40
16.0
 40
16.0
 40
17.0
 40
17.0
 40
17.0
 40
18.0
 40
18.0
 40
18.0
 40
19.0
 40
19.0
 40
19.0
 40
20.0
 40
20.0
 40
20.0
 40
21.0
 40
21.0
 40
21.0
 40
22.0
 40
22.0
 40
22.0
 40
23.0
 40
23.0
 40
23.0
 40
24.0
 40
24.0
 40
24.0
 40
25.0
 40
25.0
 40
25.0
 40
26.0
 40
26.0
 40
26.0
 40
27.0
 40
27.0
 40
27.0
 40
28.0
 40
28.0
 40
28.0
 40
29.0
 40
29.0
 40
29.0
 40
30.0
 40
30.0
 40
30.0
 40
31.0
 40
31.0
 40
31.0
 40
32.0
 40
32.0
 40
32.0
 40
33.0
 40
33.0
 40
33.0
 40
34.0
 40
34.0
 40
34.0
 40
35.0
 40
35.0
 40
35.0
 40
36.0
 40
36.0
 40
36.0
 40
37.0
 40
37.0
 40
37.0
 40
38.0
 40
38.0
 40
38.0
 40
39.0
 40
39.0
 40
39.0
 40
40.0
 40
40.0
 40
40.0
 40
41.0
 40
41.0
 40
41.0
 40
42.0
 40
42.0
 40
42.0
 40
43.0
 40
43.0
 40
43.0
 40
44.0
 40
44.0
 40
44.0
 40
45.0
 40
45.0
 40
45.0
 40
46.0
 40
46.0
 40
46.0
 40
47.0
 40
47.0
 40
47.0
 40
48.0
 40
48.0
 40
48.0
 40
49.0
 40
49.0
 40
49.0
 40
50.0
 40
50.0
 40
50.0
 40
51.0
 40
51.0
 40
51.0
 40
52.0
 40
52.0
 40
52.0
 40
52.0
 10
12.8411085249969
 20
-9.310159250428114
 30
0.0
 10
12.45928714686331
 20
-9.311033218113884
 30
0.0
 10
10.66387945046174
 20
-9.304234427053517
 30
0.0
 10
10.66387945046174
 20
-9.304234427053517
 30
0.0
 10
9.926707005800267
 20
-9.638848650957597
 30
0.0
 10
10.4258724430798
 20
-10.08780522448309
 30
0.0
 10
9.983462503843686
 20
-10.19019508993448
 30
0.0
 10
9.912019158032042
 20
-10.2067296833047
 30
0.0
 10
9.841238721834126
 20
-10.21972762845444
 30
0.0
 10
9.77120088003725
 20
-10.2293601629054
 30
0.0
 10
9.78911978465966
 20
-10.19651561944837
 30
0.0
 10
9.78956228954246
 20
-10.15925196113673
 30
0.0
 10
9.789497863544195
 20
-10.0984287325126
 30
0.0
 10
9.78946904138709
 20
-10.07209969198526
 30
0.0
 10
9.789411397072854
 20
-10.03100607761894
 30
0.0
 10
9.786001905427876
 20
-9.990001472855484
 30
0.0
 10
9.788360236048549
 20
-9.98685307604559
 30
0.0
 10
9.79068974451209
 20
-9.983652121184479
 30
0.0
 10
9.792900573505145
 20
-9.98027399482814
 30
0.0
 10
9.823730109095424
 20
-9.93317180841321
 30
0.0
 10
9.82761431862232
 20
-9.880869765769981
 30
0.0
 10
9.829380947311556
 20
-9.858529203161474
 30
0.0
 10
9.833982319924404
 20
-9.800366937807741
 30
0.0
 10
9.820320617450445
 20
-9.753373258337255
 30
0.0
 10
9.81048039392614
 20
-9.726913670392378
 30
0.0
 10
9.471250386330654
 20
-9.424848138979616
 30
0.0
 10
9.090324889911395
 20
-9.256423320728748
 30
0.0
 10
8.824292988869729
 20
-9.299201335865467
 30
0.0
 10
8.62915681265445
 20
-9.330578492440988
 30
0.0
 10
8.342270385516851
 20
-9.499301704789078
 30
0.0
 10
8.211757724112784
 20
-9.520197768699669
 30
0.0
 10
8.113274108661395
 20
-9.535965184064253
 30
0.0
 10
8.412326029234311
 20
-9.828861030960953
 30
0.0
 10
8.628693962719542
 20
-9.965099129105484
 30
0.0
 10
8.628694810430046
 20
-9.965099976815988
 30
0.0
 10
9.082898945900979
 20
-10.23859257799871
 30
0.0
 10
9.61906905766313
 20
-10.08487977553561
 30
0.0
 10
9.62285323735063
 20
-10.10147370864108
 30
0.0
 10
9.62541671391313
 20
-10.12063789999307
 30
0.0
 10
9.62285323735063
 20
-10.14703306193969
 30
0.0
 10
9.61849261452077
 20
-10.19193883044012
 30
0.0
 10
9.602715026630145
 20
-10.22334396146226
 30
0.0
 10
9.5896670665607
 20
-10.24668821330687
 30
0.0
 10
9.19827827939706
 20
-10.26698070733899
 30
0.0
 10
8.835281860126226
 20
-10.17357996406642
 30
0.0
 10
8.523706712285515
 20
-9.96040535604776
 30
0.0
 10
8.457623439987337
 20
-9.915192716345068
 30
0.0
 10
8.032784844067198
 20
-9.798485868200537
 30
0.0
 10
7.911418978995584
 20
-9.758729941008697
 30
0.0
 10
7.746397718416157
 20
-9.726212613806005
 30
0.0
 10
7.562513203713479
 20
-9.705948094220503
 30
0.0
 10
7.369215711580219
 20
-9.710505385887169
 30
0.0
 10
7.361641418231695
 20
-9.70985858277302
 30
0.0
 10
7.347293070249937
 20
-9.708611600622412
 30
0.0
 10
7.318798977096712
 20
-9.697266690954443
 30
0.0
 10
7.283645270228223
 20
-9.683270142831613
 30
0.0
 10
7.293676228615809
 20
-9.640390402434479
 30
0.0
 10
7.31986454919959
 20
-9.570539056948366
 30
0.0
 10
7.323198594609734
 20
-9.561647421477447
 30
0.0
 10
7.285222859475184
 20
-9.58761533733031
 30
0.0
 10
7.241298739737784
 20
-9.653360373137604
 30
0.0
 10
7.224921820521192
 20
-9.677872770056005
 30
0.0
 10
7.207324198179612
 20
-9.696107870696197
 30
0.0
 10
7.201001973244729
 20
-9.7162257363646
 30
0.0
 10
6.837977579527268
 20
-9.731698996184479
 30
0.0
 10
6.681628397398362
 20
-9.760126967918419
 30
0.0
 10
6.354520650002528
 20
-9.80546676419663
 30
0.0
 10
5.953475592493848
 20
-9.861054532751318
 30
0.0
 10
5.632100911232997
 20
-9.896293858380659
 30
0.0
 10
5.334186618155741
 20
-9.976191421043419
 30
0.0
 10
5.117536397072841
 20
-10.03429519437241
 30
0.0
 10
4.847649108661383
 20
-10.06682438952215
 30
0.0
 10
4.875914319978657
 20
-10.17951732843274
 30
0.0
 10
4.947171169479526
 20
-10.46361987427693
 30
0.0
 10
4.775304646584559
 20
-10.5163720511975
 30
0.0
 10
5.383152072257303
 20
-10.36100621325262
 30
0.0
 10
6.019014634648796
 20
-10.19847891697441
 30
0.0
 10
5.756224378572407
 20
-10.26303546265583
 30
0.0
 10
6.113572502758605
 20
-10.20175616578083
 30
0.0
 10
6.208739027009907
 20
-10.18543689087849
 30
0.0
 10
6.600783942103223
 20
-10.12905227445054
 30
0.0
 10
6.709147623472581
 20
-10.1129534042791
 30
0.0
 10
7.370739895065462
 20
-9.962005833478315
 30
0.0
 10
8.133675957348448
 20
-9.98591805136026
 30
0.0
 10
8.466501512090215
 20
-10.14260123142753
 30
0.0
 10
8.513413811352368
 20
-10.16468578546399
 30
0.0
 10
8.56122977001121
 20
-10.18681357273613
 30
0.0
 10
8.609753566940462
 20
-10.20860736206989
 30
0.0
 10
8.595137342439594
 20
-10.22478846016017
 30
0.0
 10
8.57610285079463
 20
-10.24198935398613
 30
0.0
 10
8.549134636547667
 20
-10.25678868395575
 30
0.0
 10
8.53835430207501
 20
-10.26270485555948
 30
0.0
 10
8.528631062600185
 20
-10.26689763170965
 30
0.0
 10
8.519558017081534
 20
-10.27011299764932
 30
0.0
 10
8.51777528189272
 20
-10.26701715889064
 30
0.0
 10
8.516182433856695
 20
-10.26389843194837
 30
0.0
 10
8.514178446226486
 20
-10.26083734932033
 30
0.0
 10
8.472562642190029
 20
-10.19725482300739
 30
0.0
 10
8.403024949590215
 20
-10.1752847098889
 30
0.0
 10
8.371191724763825
 20
-10.16522747247571
 30
0.0
 10
7.821686279071539
 20
-9.991612122812082
 30
0.0
 10
7.3499726831514
 20
-10.27601051962198
 30
0.0
 10
7.349971835440909
 20
-10.27601136733248
 30
0.0
 10
7.133603901955653
 20
-10.41225031318752
 30
0.0
 10
6.834551981382737
 20
-10.70514531237371
 30
0.0
 10
6.933035596834126
 20
-10.7209127277383
 30
0.0
 10
7.063548258238206
 20
-10.74180879164889
 30
0.0
 10
7.350434685375792
 20
-10.91053200399698
 30
0.0
 10
7.54557086159107
 20
-10.941910008283
 30
0.0
 10
7.811602762632737
 20
-10.98468717570922
 30
0.0
 10
8.19252825905202
 20
-10.81626320516885
 30
0.0
 10
8.531758266647506
 20
-10.51419682604559
 30
0.0
 10
8.538239013446539
 20
-10.49677044122571
 30
0.0
 10
8.546273613598448
 20
-10.47030831014932
 30
0.0
 10
8.549761094609734
 20
-10.43774435886894
 30
0.0
 10
8.557189581751674
 20
-10.43462224108465
 30
0.0
 10
8.564178107142299
 20
-10.43165101576998
 30
0.0
 10
8.57014344595522
 20
-10.42910025486503
 30
0.0
 10
8.634644042743414
 20
-10.40152168905557
 30
0.0
 10
8.670133442971279
 20
-10.38573901490193
 30
0.0
 10
8.693208122875792
 20
-10.34610515802258
 30
0.0
 10
8.70945279925383
 20
-10.31820191909029
 30
0.0
 10
8.715513081643154
 20
-10.28535483250175
 30
0.0
 10
8.714873060213032
 20
-10.25466262601304
 30
0.0
 10
9.006312540464767
 20
-10.37891494534897
 30
0.0
 10
9.3191134776935
 20
-10.48137008450913
 30
0.0
 10
9.621418911178756
 20
-10.48070039321139
 30
0.0
 10
9.6297061290607
 20
-10.49635082452649
 30
0.0
 10
9.64345599342702
 20
-10.51186986071356
 30
0.0
 10
9.65647343591834
 20
-10.53135533434637
 30
0.0
 10
9.700398403366256
 20
-10.59710121786417
 30
0.0
 10
9.738372443079799
 20
-10.62306828600653
 30
0.0
 10
9.735039245380145
 20
-10.61417749824611
 30
0.0
 10
9.70885177250688
 20
-10.5443253050495
 30
0.0
 10
9.698821661829799
 20
-10.50144641236286
 30
0.0
 10
9.733974520987784
 20
-10.48744986424003
 30
0.0
 10
9.786044290953061
 20
-10.46671825616712
 30
0.0
 10
9.791140726499936
 20
-10.47956191800522
 30
0.0
 10
9.793256611916604
 20
-10.46836790080687
 30
0.0
 10
9.861198913348895
 20
-10.45852259101955
 30
0.0
 10
9.928300285961742
 20
-10.44267294773613
 30
0.0
 10
9.994123311135354
 20
-10.41943974596746
 30
0.0
 10
10.18033479117008
 20
-10.35371166437024
 30
0.0
 10
10.24934859867876
 20
-10.35371166437024
 30
0.0
 10
10.33041006786278
 20
-10.41943974596746
 30
0.0
 10
10.44761791291487
 20
-10.51447487509073
 30
0.0
 10
10.19926723523779
 20
-10.6796411557874
 30
0.0
 10
10.65253125976036
 20
-10.90979879603262
 30
0.0
 10
10.65253125976036
 20
-10.90979879603262
 30
0.0
 10
12.47413983364534
 20
-10.91295884102215
 30
0.0
 10
12.8411085249969
 20
-10.91211426055151
 30
0.0
 10
15.3967080276436
 20
-10.90623253417655
 30
0.0
 10
15.24926725436987
 20
-11.11031895181125
 30
0.0
 10
15.26142832102
 20
-10.0917105542535
 30
0.0
 10
15.27286223865346
 20
-9.134008006155378
 30
0.0
 10
15.41073313103723
 20
-9.304277524053152
 30
0.0
 10
12.8411085249969
 20
-9.310159250428114
 30
0.0
  0
SPLINE
  5
87
330
1F
100
AcDbEntity
  8
Layer 2
 62
     1
420
 16711680
370
    35
100
AcDbSpline
210
0.0
220
0.0
230
1.0
 70
     8
 71
     3
 72
    11
 73
     7
 74
     0
 42
0.0000000001
 43
0.0000000001
 12
1.0
 22
0.0
 32
0.0
 13
1.0
 23
0.0
 33
0.0
 40
0.0
 40
0.0
 40
0.0
 40
0.0
 40
1.0
 40
1.0
 40
1.0
 40
2.0
 40
2.0
 40
2.0
 40
2.0
 10
9.18902622359672
 20
-9.636873080887955
 30
0.0
 10
9.218242841529673
 20
-9.638234248765709
 30
0.0
 10
9.284250010765428
 20
-9.645315760493304
 30
0.0
 10
9.350633834381684
 20
-9.690340119461728
 30
0.0
 10
9.432978643306644
 20
-9.746190037080597
 30
0.0
 10
9.463130221864237
 20
-9.824628871640217
 30
0.0
 10
9.471997553792852
 20
-9.85101840698634
 30
0.0
  0
SPLINE
  5
88
330
1F
100
AcDbEntity
  8
Layer 2
 62
     1
420
 16711680
370
    35
100
AcDbSpline
210
0.0
220
0.0
230
1.0
 70
     8
 71
     3
 72
    11
 73
     7
 74
     0
 42
0.0000000001
 43
0.0000000001
 12
1.0
 22
0.0
 32
0.0
 13
1.0
 23
0.0
 33
0.0
 40
0.0
 40
0.0
 40
0.0
 40
0.0
 40
1.0
 40
1.0
 40
1.0
 40
2.0
 40
2.0
 40
2.0
 40
2.0
 10
8.782014271876909
 20
-9.803776112102897
 30
0.0
 10
8.808000847981058
 20
-9.817198533785005
 30
0.0
 10
8.868712809774163
 20
-9.844052805216203
 30
0.0
 10
8.948713483243496
 20
-9.838230676491724
 30
0.0
 10
9.047949173984621
 20
-9.831008589670798
 30
0.0
 10
9.11326621807887
 20
-9.778136553513882
 30
0.0
 10
9.134135299807465
 20
-9.759710523580047
 30
0.0
  0
POLYLINE
  5
89
330
1F
100
AcDbEntity
  8
Layer 2
 62
     1
420
 16711680
370
    35
100
AcDb2dPolyline
 66
     1
 10
0.0
 20
0.0
 30
0.0
  0
VERTEX
  5
8A
330
89
100
AcDbEntity
  8
Layer 2
 62
     1
420
 16711680
370
    35
100
AcDbVertex
100
AcDb2dVertex
 10
7.268278807172755
 20
-10.67040041777664
 30
0.0
  0
VERTEX
  5
8B
330
89
100
AcDbEntity
  8
Layer 2
 62
     1
420
 16711680
370
    35
100
AcDbVertex
100
AcDb2dVertex
 10
8.197003845056226
 20
-10.38716471119907
 30
0.0
  0
SEQEND
  5
8C
330
89
100
AcDbEntity
  8
Layer 2
 62
     1
420
 16711680
370
    35
  0
SPLINE
  5
8D
330
1F
100
AcDbEntity
  8
Layer 2
 62
     1
420
 16711680
370
    35
100
AcDbSpline
210
0.0
220
0.0
230
1.0
 70
     8
 71
     3
 72
    11
 73
     7
 74
     0
 42
0.0000000001
 43
0.0000000001
 12
1.0
 22
0.0
 32
0.0
 13
1.0
 23
0.0
 33
0.0
 40
0.0
 40
0.0
 40
0.0
 40
0.0
 40
1.0
 40
1.0
 40
1.0
 40
2.0
 40
2.0
 40
2.0
 40
2.0
 10
7.863818986327828
 20
-10.61686938479344
 30
0.0
 10
7.893035604260767
 20
-10.61550821691569
 30
0.0
 10
7.959042773496549
 20
-10.60842670518809
 30
0.0
 10
8.025426597112792
 20
-10.56340234621967
 30
0.0
 10
8.10777140603774
 20
-10.5075524286008
 30
0.0
 10
8.137922984595345
 20
-10.42911359404118
 30
0.0
 10
8.14679031652396
 20
-10.40272405869506
 30
0.0
  0
SPLINE
  5
8E
330
1F
100
AcDbEntity
  8
Layer 2
 62
     1
420
 16711680
370
    35
100
AcDbSpline
210
0.0
220
0.0
230
1.0
 70
     8
 71
     3
 72
    11
 73
     7
 74
     0
 42
0.0000000001
 43
0.0000000001
 12
1.0
 22
0.0
 32
0.0
 13
1.0
 23
0.0
 33
0.0
 40
0.0
 40
0.0
 40
0.0
 40
0.0
 40
1.0
 40
1.0
 40
1.0
 40
2.0
 40
2.0
 40
2.0
 40
2.0
 10
7.456807034608005
 20
-10.4499663535785
 30
0.0
 10
7.482793610712165
 20
-10.43654393189639
 30
0.0
 10
7.543505572505283
 20
-10.40968966046519
 30
0.0
 10
7.623506245974605
 20
-10.41551178918967
 30
0.0
 10
7.722741936715742
 20
-10.4227338760106
 30
0.0
 10
7.788058980809965
 20
-10.47560591216751
 30
0.0
 10
7.80892806253856
 20
-10.49403194210135
 30
0.0
  0
POLYLINE
  5
8F
330
1F
100
AcDbEntity
  8
Layer 2
 62
     1
420
 16711680
370
    35
100
AcDb2dPolyline
 66
     1
 10
0.0
 20
0.0
 30
0.0
  0
VERTEX
  5
90
330
8F
100
AcDbEntity
  8
Layer 2
 62
     1
420
 16711680
370
    35
100
AcDbVertex
100
AcDb2dVertex
 10
12.15028480486838
 20
-10.30371915280307
 30
0.0
  0
VERTEX
  5
91
330
8F
100
AcDbEntity
  8
Layer 2
 62
     1
420
 16711680
370
    35
100
AcDbVertex
100
AcDb2dVertex
 10
14.87469403033846
 20
-10.30371915280307
 30
0.0
  0
SEQEND
  5
92
330
8F
100
AcDbEntity
  8
Layer 2
 62
     1
420
 16711680
370
    35
  0
SPLINE
  5
93
330
1F
100
AcDbEntity
  8
Layer 2
 62
     1
420
 16711680
370
    35
100
AcDbSpline
210
0.0
220
0.0
230
1.0
 70
     8
 71
     3
 72
    14
 73
    10
 74
     0
 42
0.0000000001
 43
0.0000000001
 12
1.0
 22
0.0
 32
0.0
 13
1.0
 23
0.0
 33
0.0
 40
0.0
 40
0.0
 40
0.0
 40
0.0
 40
1.0
 40
1.0
 40
1.0
 40
2.0
 40
2.0
 40
2.0
 40
3.0
 40
3.0
 40
3.0
 40
3.0
 10
10.80752301965529
 20
-9.47038478162954
 30
0.0
 10
11.4249405045454
 20
-9.443232240076314
 30
0.0
 10
11.88245658946173
 20
-9.434726422700047
 30
0.0
 10
12.07307483946235
 20
-9.47038478324157
 30
0.0
 10
12.17380148644315
 20
-9.489227402425058
 30
0.0
 10
12.17821775480767
 20
-9.538862533949162
 30
0.0
 10
12.07307483946235
 20
-9.554817531858992
 30
0.0
 10
11.84304120066003
 20
-9.589724175014327
 30
0.0
 10
11.44029883253264
 20
-9.581970075024223
 30
0.0
 10
10.80752301965529
 20
-9.554817528246682
 30
0.0
  0
POLYLINE
  5
94
330
1F
100
AcDbEntity
  8
Layer 2
 62
     1
420
 16711680
370
    35
100
AcDb2dPolyline
 66
     1
 10
0.0
 20
0.0
 30
0.0
  0
VERTEX
  5
95
330
94
100
AcDbEntity
  8
Layer 2
 62
     1
420
 16711680
370
    35
100
AcDbVertex
100
AcDb2dVertex
 10
10.80752301965529
 20
-9.704167280006079
 30
0.0
  0
VERTEX
  5
96
330
94
100
AcDbEntity
  8
Layer 2
 62
     1
420
 16711680
370
    35
100
AcDbVertex
100
AcDb2dVertex
 10
14.87469403033846
 20
-9.704167280006079
 30
0.0
  0
SEQEND
  5
97
330
94
100
AcDbEntity
  8
Layer 2
 62
     1
420
 16711680
370
    35
  0
POLYLINE
  5
98
330
1F
100
AcDbEntity
  8
Layer 2
 62
     1
420
 16711680
370
    35
100
AcDb2dPolyline
 66
     1
 10
0.0
 20
0.0
 30
0.0
  0
VERTEX
  5
99
330
98
100
AcDbEntity
  8
Layer 2
 62
     1
420
 16711680
370
    35
100
AcDbVertex
100
AcDb2dVertex
 10
12.15028480486838
 20
-9.512451768738577
 30
0.0
  0
VERTEX
  5
9A
330
98
100
AcDbEntity
  8
Layer 2
 62
     1
420
 16711680
370
    35
100
AcDbVertex
100
AcDb2dVertex
 10
14.87469403033846
 20
-9.512451768738577
 30
0.0
  0
SEQEND
  5
9B
330
98
100
AcDbEntity
  8
Layer 2
 62
     1
420
 16711680
370
    35
  0
POLYLINE
  5
9C
330
1F
100
AcDbEntity
  8
Layer 2
 62
     1
420
 16711680
370
    35
100
AcDb2dPolyline
 66
     1
 10
0.0
 20
0.0
 30
0.0
  0
VERTEX
  5
9D
330
9C
100
AcDbEntity
  8
Layer 2
 62
     1
420
 16711680
370
    35
100
AcDbVertex
100
AcDb2dVertex
 10
12.15028480486838
 20
-9.884221188075065
 30
0.0
  0
VERTEX
  5
9E
330
9C
100
AcDbEntity
  8
Layer 2
 62
     1
420
 16711680
370
    35
100
AcDbVertex
100
AcDb2dVertex
 10
14.87469403033846
 20
-9.884221188075065
 30
0.0
  0
SEQEND
  5
9F
330
9C
100
AcDbEntity
  8
Layer 2
 62
     1
420
 16711680
370
    35
  0
POLYLINE
  5
A0
330
1F
100
AcDbEntity
  8
Layer 2
 62
     1
420
 16711680
370
    35
100
AcDb2dPolyline
 66
     1
 10
0.0
 20
0.0
 30
0.0
  0
VERTEX
  5
A1
330
A0
100
AcDbEntity
  8
Layer 2
 62
     1
420
 16711680
370
    35
100
AcDbVertex
100
AcDb2dVertex
 10
12.15028480486838
 20
-10.70969201420866
 30
0.0
  0
VERTEX
  5
A2
330
A0
100
AcDbEntity
  8
Layer 2
 62
     1
420
 16711680
370
    35
100
AcDbVertex
100
AcDb2dVertex
 10
14.87469403033846
 20
-10.70969201420866
 30
0.0
  0
SEQEND
  5
A3
330
A0
100
AcDbEntity
  8
Layer 2
 62
     1
420
 16711680
370
    35
  0
POLYLINE
  5
A4
330
1F
100
AcDbEntity
  8
Layer 2
 62
     1
420
 16711680
370
    35
100
AcDb2dPolyline
 66
     1
 10
0.0
 20
0.0
 30
0.0
  0
VERTEX
  5
A5
330
A4
100
AcDbEntity
  8
Layer 2
 62
     1
420
 16711680
370
    35
100
AcDbVertex
100
AcDb2dVertex
 10
10.58027788050726
 20
-9.512237693730969
 30
0.0
  0
VERTEX
  5
A6
330
A4
100
AcDbEntity
  8
Layer 2
 62
     1
420
 16711680
370
    35
100
AcDbVertex
100
AcDb2dVertex
 10
10.58027788050726
 20
-10.671183414776
 30
0.0
  0
SEQEND
  5
A7
330
A4
100
AcDbEntity
  8
Layer 2
 62
     1
420
 16711680
370
    35
  0
ENDSEC
  0
SECTION
  2
OBJECTS
  0
DICTIONARY
  5
C
330
0
100
AcDbDictionary
281
     1
  3
ACAD_GROUP
350
D
  3
ACAD_LAYOUT
350
1A
  3
ACAD_MATERIAL
350
3B
  3
ACAD_MLEADERSTYLE
350
AA
  3
ACAD_MLINESTYLE
350
17
  3
ACAD_PLOTSETTINGS
350
19
  3
ACAD_PLOTSTYLENAME
350
E
  3
ACAD_TABLESTYLE
350
A9
  3
ACAD_VISUALSTYLE
350
2A
  0
SUN
  5
3F
330
29
100
AcDbSun
 90
        1
290
     0
 63
     7
421
 16777215
 40
1.0
291
     1
 91
  2455826
 92
 54000000
292
     0
 70
     2
 71
   256
280
     1
  0
DICTIONARY
  5
D
102
{ACAD_REACTORS
330
C
102
}
330
C
100
AcDbDictionary
281
     1
  0
DICTIONARY
  5
1A
102
{ACAD_REACTORS
330
C
102
}
330
C
100
AcDbDictionary
281
     1
  3
Layout1
350
1E
  3
Layout2
350
26
  3
Model
350
22
  0
DICTIONARY
  5
3B
102
{ACAD_REACTORS
330
C
102
}
330
C
100
AcDbDictionary
281
     1
  3
ByBlock
350
3D
  3
ByLayer
350
3C
  3
Global
350
3E
  0
DICTIONARY
  5
AA
102
{ACAD_REACTORS
330
C
102
}
330
C
100
AcDbDictionary
281
     1
  0
DICTIONARY
  5
17
102
{ACAD_REACTORS
330
C
102
}
330
C
100
AcDbDictionary
281
     1
  3
Standard
350
18
  0
DICTIONARY
  5
19
102
{ACAD_REACTORS
330
C
102
}
330
C
100
AcDbDictionary
281
     1
  0
ACDBDICTIONARYWDFLT
  5
E
102
{ACAD_REACTORS
330
C
102
}
330
C
100
AcDbDictionary
281
     1
  3
Normal
350
F
100
AcDbDictionaryWithDefault
340
F
  0
DICTIONARY
  5
A9
102
{ACAD_REACTORS
330
C
102
}
330
C
100
AcDbDictionary
281
     1
  0
DICTIONARY
  5
2A
102
{ACAD_REACTORS
330
C
102
}
330
C
100
AcDbDictionary
281
     1
  3
2dWireframe
350
2F
  3
3D Hidden
350
31
  3
3dWireframe
350
30
  3
Basic
350
32
  3
Brighten
350
36
  3
ColorChange
350
3A
  3
Conceptual
350
34
  3
Dim
350
35
  3
Facepattern
350
39
  3
Flat
350
2B
  3
FlatWithEdges
350
2C
  3
Gouraud
350
2D
  3
GouraudWithEdges
350
2E
  3
Linepattern
350
38
  3
Realistic
350
33
  3
Thicken
350
37
  0
LAYOUT
  5
1E
102
{ACAD_REACTORS
330
1A
102
}
330
1A
100
AcDbPlotSettings
  1

  2
none_device
  4

  6

 40
0.0
 41
0.0
 42
0.0
 43
0.0
 44
0.0
 45
0.0
 46
0.0
 47
0.0
 48
0.0
 49
0.0
140
0.0
141
0.0
142
1.0
143
1.0
 70
   688
 72
     0
 73
     0
 74
     5
  7

 75
    16
 76
     0
 77
     2
 78
   300
147
1.0
148
0.0
149
0.0
100
AcDbLayout
  1
Layout1
 70
     1
 71
     1
 10
0.0
 20
0.0
 11
12.0
 21
9.0
 12
0.0
 22
0.0
 32
0.0
 14
1.000000000000000E+20
 24
1.000000000000000E+20
 34
1.000000000000000E+20
 15
-1.000000000000000E+20
 25
-1.000000000000000E+20
 35
-1.000000000000000E+20
146
0.0
 13
0.0
 23
0.0
 33
0.0
 16
1.0
 26
0.0
 36
0.0
 17
0.0
 27
1.0
 37
0.0
 76
     0
330
1B
  0
LAYOUT
  5
26
102
{ACAD_REACTORS
330
1A
102
}
330
1A
100
AcDbPlotSettings
  1

  2
none_device
  4

  6

 40
0.0
 41
0.0
 42
0.0
 43
0.0
 44
0.0
 45
0.0
 46
0.0
 47
0.0
 48
0.0
 49
0.0
140
0.0
141
0.0
142
1.0
143
1.0
 70
   688
 72
     0
 73
     0
 74
     5
  7

 75
    16
 76
     0
 77
     2
 78
   300
147
1.0
148
0.0
149
0.0
100
AcDbLayout
  1
Layout2
 70
     1
 71
     2
 10
0.0
 20
0.0
 11
0.0
 21
0.0
 12
0.0
 22
0.0
 32
0.0
 14
0.0
 24
0.0
 34
0.0
 15
0.0
 25
0.0
 35
0.0
146
0.0
 13
0.0
 23
0.0
 33
0.0
 16
1.0
 26
0.0
 36
0.0
 17
0.0
 27
1.0
 37
0.0
 76
     0
330
23
  0
LAYOUT
  5
22
102
{ACAD_REACTORS
330
1A
102
}
330
1A
100
AcDbPlotSettings
  1

  2
none_device
  4

  6

 40
0.0
 41
0.0
 42
0.0
 43
0.0
 44
0.0
 45
0.0
 46
0.0
 47
0.0
 48
0.0
 49
0.0
140
0.0
141
0.0
142
1.0
143
1.0
 70
  1712
 72
     0
 73
     0
 74
     0
  7

 75
     0
 76
     0
 77
     2
 78
   300
147
1.0
148
0.0
149
0.0
100
AcDbLayout
  1
Model
 70
     1
 71
     0
 10
0.0
 20
0.0
 11
12.0
 21
9.0
 12
0.0
 22
0.0
 32
0.0
 14
1.000000000000000E+20
 24
1.000000000000000E+20
 34
1.000000000000000E+20
 15
-1.000000000000000E+20
 25
-1.000000000000000E+20
 35
-1.000000000000000E+20
146
0.0
 13
0.0
 23
0.0
 33
0.0
 16
1.0
 26
0.0
 36
0.0
 17
0.0
 27
1.0
 37
0.0
 76
     0
330
1F
331
29
  0
MATERIAL
  5
3D
102
{ACAD_REACTORS
330
3B
102
}
330
3B
100
AcDbMaterial
  1
ByBlock
 72
     1
 94
      127
  0
MATERIAL
  5
3C
102
{ACAD_REACTORS
330
3B
102
}
330
3B
100
AcDbMaterial
  1
ByLayer
 72
     1
 94
      127
  0
MATERIAL
  5
3E
102
{ACAD_REACTORS
330
3B
102
}
330
3B
100
AcDbMaterial
  1
Global
 72
     1
 94
      127
  0
MLINESTYLE
  5
18
102
{ACAD_REACTORS
330
17
102
}
330
17
100
AcDbMlineStyle
  2
Standard
 70
     0
  3

 62
   256
 51
90.0
 52
90.0
 71
     2
 49
0.5
 62
   256
  6
BYLAYER
 49
-0.5
 62
   256
  6
BYLAYER
  0
ACDBPLACEHOLDER
  5
F
102
{ACAD_REACTORS
330
E
102
}
330
E
  0
VISUALSTYLE
  5
2F
102
{ACAD_REACTORS
330
2A
102
}
330
2A
100
AcDbVisualStyle
  2
2dWireframe
 70
     4
177
     2
291
     0
 71
     0
176
     1
 72
     2
176
     1
 73
     0
176
     1
 90
        0
176
     1
 40
-0.6
176
     1
 41
-30.0
176
     1
 62
     5
 63
     7
421
 16777215
176
     1
 74
     1
176
     1
 91
        4
176
     1
 64
     7
176
     1
 65
   257
176
     1
 75
     1
176
     1
175
     1
176
     1
 42
1.0
176
     1
 92
        0
176
     1
 66
   257
176
     1
 43
1.0
176
     1
 76
     1
176
     1
 77
     6
176
     1
 78
     2
176
     1
 67
     7
176
     1
 79
     5
176
     1
170
     0
176
     1
171
     0
176
     1
290
     0
176
     1
 93
        1
176
     1
 44
0.0
176
     1
173
     0
176
     1
  0
VISUALSTYLE
  5
31
102
{ACAD_REACTORS
330
2A
102
}
330
2A
100
AcDbVisualStyle
  2
3D Hidden
 70
     6
177
     2
291
     0
 71
     1
176
     1
 72
     2
176
     1
 73
     2
176
     1
 90
        0
176
     1
 40
-0.6
176
     1
 41
-30.0
176
     1
 62
     5
 63
     7
421
 16777215
176
     1
 74
     2
176
     1
 91
        2
176
     1
 64
     7
176
     1
 65
   257
176
     1
 75
     2
176
     1
175
     1
176
     1
 42
40.0
176
     1
 92
        0
176
     1
 66
   257
176
     1
 43
1.0
176
     1
 76
     1
176
     1
 77
     6
176
     1
 78
     2
176
     1
 67
     7
176
     1
 79
     3
176
     1
170
     0
176
     1
171
     0
176
     1
290
     0
176
     1
 93
        1
176
     1
 44
0.0
176
     1
173
     0
176
     1
  0
VISUALSTYLE
  5
30
102
{ACAD_REACTORS
330
2A
102
}
330
2A
100
AcDbVisualStyle
  2
3dWireframe
 70
     5
177
     2
291
     0
 71
     0
176
     1
 72
     2
176
     1
 73
     0
176
     1
 90
        0
176
     1
 40
-0.6
176
     1
 41
-30.0
176
     1
 62
     5
 63
     7
421
 16777215
176
     1
 74
     1
176
     1
 91
        4
176
     1
 64
     7
176
     1
 65
   257
176
     1
 75
     1
176
     1
175
     1
176
     1
 42
1.0
176
     1
 92
        0
176
     1
 66
   257
176
     1
 43
1.0
176
     1
 76
     1
176
     1
 77
     6
176
     1
 78
     2
176
     1
 67
     7
176
     1
 79
     5
176
     1
170
     0
176
     1
171
     0
176
     1
290
     0
176
     1
 93
        1
176
     1
 44
0.0
176
     1
173
     0
176
     1
  0
VISUALSTYLE
  5
32
102
{ACAD_REACTORS
330
2A
102
}
330
2A
100
AcDbVisualStyle
  2
Basic
 70
     7
177
     2
291
     1
 71
     1
176
     1
 72
     0
176
     1
 73
     1
176
     1
 90
        0
176
     1
 40
-0.6
176
     1
 41
-30.0
176
     1
 62
     5
 63
     7
421
 16777215
176
     1
 74
     0
176
     1
 91
        4
176
     1
 64
     7
176
     1
 65
   257
176
     1
 75
     1
176
     1
175
     1
176
     1
 42
1.0
176
     1
 92
        8
176
     1
 66
     7
176
     1
 43
1.0
176
     1
 76
     1
176
     1
 77
     6
176
     1
 78
     2
176
     1
 67
     7
176
     1
 79
     5
176
     1
170
     0
176
     1
171
     0
176
     1
290
     0
176
     1
 93
        1
176
     1
 44
0.0
176
     1
173
     0
176
     1
  0
VISUALSTYLE
  5
36
102
{ACAD_REACTORS
330
2A
102
}
330
2A
100
AcDbVisualStyle
  2
Brighten
 70
    12
177
     2
291
     1
 71
     2
176
     1
 72
     2
176
     1
 73
     0
176
     1
 90
        0
176
     1
 40
-0.6
176
     1
 41
-30.0
176
     1
 62
     5
 63
     7
421
 16777215
176
     1
 74
     1
176
     1
 91
        4
176
     1
 64
     7
176
     1
 65
   257
176
     1
 75
     1
176
     1
175
     1
176
     1
 42
1.0
176
     1
 92
        8
176
     1
 66
     7
176
     1
 43
1.0
176
     1
 76
     1
176
     1
 77
     6
176
     1
 78
     2
176
     1
 67
     7
176
     1
 79
     5
176
     1
170
     0
176
     1
171
     0
176
     1
290
     0
176
     1
 93
        1
176
     1
 44
50.0
176
     1
173
     0
176
     1
  0
VISUALSTYLE
  5
3A
102
{ACAD_REACTORS
330
2A
102
}
330
2A
100
AcDbVisualStyle
  2
ColorChange
 70
    16
177
     2
291
     1
 71
     2
176
     1
 72
     2
176
     1
 73
     3
176
     1
 90
        0
176
     1
 40
-0.6
176
     1
 41
-30.0
176
     1
 62
     5
 63
     8
421
  8421504
176
     1
 74
     1
176
     1
 91
        4
176
     1
 64
     7
176
     1
 65
   257
176
     1
 75
     1
176
     1
175
     1
176
     1
 42
1.0
176
     1
 92
        8
176
     1
 66
     8
424
  8421504
176
     1
 43
1.0
176
     1
 76
     1
176
     1
 77
     6
176
     1
 78
     2
176
     1
 67
     7
176
     1
 79
     5
176
     1
170
     0
176
     1
171
     0
176
     1
290
     0
176
     1
 93
        1
176
     1
 44
0.0
176
     1
173
     0
176
     1
  0
VISUALSTYLE
  5
34
102
{ACAD_REACTORS
330
2A
102
}
330
2A
100
AcDbVisualStyle
  2
Conceptual
 70
     9
177
     2
291
     0
 71
     3
176
     1
 72
     2
176
     1
 73
     0
176
     1
 90
        0
176
     1
 40
-0.6
176
     1
 41
-30.0
176
     1
 62
     5
 63
     7
421
 16777215
176
     1
 74
     2
176
     1
 91
        2
176
     1
 64
     7
176
     1
 65
   257
176
     1
 75
     1
176
     1
175
     1
176
     1
 42
40.0
176
     1
 92
        8
176
     1
 66
     7
176
     1
 43
1.0
176
     1
 76
     1
176
     1
 77
     6
176
     1
 78
     2
176
     1
 67
     7
176
     1
 79
     3
176
     1
170
     0
176
     1
171
     0
176
     1
290
     0
176
     1
 93
        1
176
     1
 44
0.0
176
     1
173
     0
176
     1
  0
VISUALSTYLE
  5
35
102
{ACAD_REACTORS
330
2A
102
}
330
2A
100
AcDbVisualStyle
  2
Dim
 70
    11
177
     2
291
     1
 71
     2
176
     1
 72
     2
176
     1
 73
     0
176
     1
 90
        0
176
     1
 40
-0.6
176
     1
 41
-30.0
176
     1
 62
     5
 63
     7
421
 16777215
176
     1
 74
     1
176
     1
 91
        4
176
     1
 64
     7
176
     1
 65
   257
176
     1
 75
     1
176
     1
175
     1
176
     1
 42
1.0
176
     1
 92
        8
176
     1
 66
     7
176
     1
 43
1.0
176
     1
 76
     1
176
     1
 77
     6
176
     1
 78
     2
176
     1
 67
     7
176
     1
 79
     5
176
     1
170
     0
176
     1
171
     0
176
     1
290
     0
176
     1
 93
        1
176
     1
 44
-50.0
176
     1
173
     0
176
     1
  0
VISUALSTYLE
  5
39
102
{ACAD_REACTORS
330
2A
102
}
330
2A
100
AcDbVisualStyle
  2
Facepattern
 70
    15
177
     2
291
     1
 71
     2
176
     1
 72
     2
176
     1
 73
     0
176
     1
 90
        0
176
     1
 40
-0.6
176
     1
 41
-30.0
176
     1
 62
     5
 63
     7
421
 16777215
176
     1
 74
     1
176
     1
 91
        4
176
     1
 64
     7
176
     1
 65
   257
176
     1
 75
     1
176
     1
175
     1
176
     1
 42
1.0
176
     1
 92
        8
176
     1
 66
     7
176
     1
 43
1.0
176
     1
 76
     1
176
     1
 77
     6
176
     1
 78
     2
176
     1
 67
     7
176
     1
 79
     5
176
     1
170
     0
176
     1
171
     0
176
     1
290
     0
176
     1
 93
        1
176
     1
 44
0.0
176
     1
173
     0
176
     1
  0
VISUALSTYLE
  5
2B
102
{ACAD_REACTORS
330
2A
102
}
330
2A
100
AcDbVisualStyle
  2
Flat
 70
     0
177
     2
291
     1
 71
     2
176
     1
 72
     1
176
     1
 73
     1
176
     1
 90
        2
176
     1
 40
-0.6
176
     1
 41
30.0
176
     1
 62
     5
 63
     7
421
 16777215
176
     1
 74
     0
176
     1
 91
        4
176
     1
 64
     7
176
     1
 65
   257
176
     1
 75
     1
176
     1
175
     1
176
     1
 42
1.0
176
     1
 92
        8
176
     1
 66
     7
176
     1
 43
1.0
176
     1
 76
     1
176
     1
 77
     6
176
     1
 78
     2
176
     1
 67
     7
176
     1
 79
     5
176
     1
170
     0
176
     1
171
     0
176
     1
290
     0
176
     1
 93
       13
176
     1
 44
0.0
176
     1
173
     0
176
     1
  0
VISUALSTYLE
  5
2C
102
{ACAD_REACTORS
330
2A
102
}
330
2A
100
AcDbVisualStyle
  2
FlatWithEdges
 70
     1
177
     2
291
     1
 71
     2
176
     1
 72
     1
176
     1
 73
     1
176
     1
 90
        2
176
     1
 40
-0.6
176
     1
 41
30.0
176
     1
 62
     5
 63
     7
421
 16777215
176
     1
 74
     1
176
     1
 91
        4
176
     1
 64
     7
176
     1
 65
   257
176
     1
 75
     1
176
     1
175
     1
176
     1
 42
1.0
176
     1
 92
        0
176
     1
 66
   257
176
     1
 43
1.0
176
     1
 76
     1
176
     1
 77
     6
176
     1
 78
     2
176
     1
 67
     7
176
     1
 79
     5
176
     1
170
     0
176
     1
171
     0
176
     1
290
     0
176
     1
 93
       13
176
     1
 44
0.0
176
     1
173
     0
176
     1
  0
VISUALSTYLE
  5
2D
102
{ACAD_REACTORS
330
2A
102
}
330
2A
100
AcDbVisualStyle
  2
Gouraud
 70
     2
177
     2
291
     1
 71
     2
176
     1
 72
     2
176
     1
 73
     1
176
     1
 90
        2
176
     1
 40
-0.6
176
     1
 41
30.0
176
     1
 62
     5
 63
     7
421
 16777215
176
     1
 74
     0
176
     1
 91
        4
176
     1
 64
     7
176
     1
 65
   257
176
     1
 75
     1
176
     1
175
     1
176
     1
 42
1.0
176
     1
 92
        0
176
     1
 66
     7
176
     1
 43
1.0
176
     1
 76
     1
176
     1
 77
     6
176
     1
 78
     2
176
     1
 67
     7
176
     1
 79
     5
176
     1
170
     0
176
     1
171
     0
176
     1
290
     0
176
     1
 93
       13
176
     1
 44
0.0
176
     1
173
     0
176
     1
  0
VISUALSTYLE
  5
2E
102
{ACAD_REACTORS
330
2A
102
}
330
2A
100
AcDbVisualStyle
  2
GouraudWithEdges
 70
     3
177
     2
291
     1
 71
     2
176
     1
 72
     2
176
     1
 73
     1
176
     1
 90
        2
176
     1
 40
-0.6
176
     1
 41
30.0
176
     1
 62
     5
 63
     7
421
 16777215
176
     1
 74
     1
176
     1
 91
        4
176
     1
 64
     7
176
     1
 65
   257
176
     1
 75
     1
176
     1
175
     1
176
     1
 42
1.0
176
     1
 92
        0
176
     1
 66
   257
176
     1
 43
1.0
176
     1
 76
     1
176
     1
 77
     6
176
     1
 78
     2
176
     1
 67
     7
176
     1
 79
     5
176
     1
170
     0
176
     1
171
     0
176
     1
290
     0
176
     1
 93
       13
176
     1
 44
0.0
176
     1
173
     0
176
     1
  0
VISUALSTYLE
  5
38
102
{ACAD_REACTORS
330
2A
102
}
330
2A
100
AcDbVisualStyle
  2
Linepattern
 70
    14
177
     2
291
     1
 71
     2
176
     1
 72
     2
176
     1
 73
     0
176
     1
 90
        0
176
     1
 40
-0.6
176
     1
 41
-30.0
176
     1
 62
     5
 63
     7
421
 16777215
176
     1
 74
     1
176
     1
 91
        4
176
     1
 64
     7
176
     1
 65
   257
176
     1
 75
     7
176
     1
175
     7
176
     1
 42
1.0
176
     1
 92
        8
176
     1
 66
     7
176
     1
 43
1.0
176
     1
 76
     1
176
     1
 77
     6
176
     1
 78
     2
176
     1
 67
     7
176
     1
 79
     5
176
     1
170
     0
176
     1
171
     0
176
     1
290
     0
176
     1
 93
        1
176
     1
 44
0.0
176
     1
173
     0
176
     1
  0
VISUALSTYLE
  5
33
102
{ACAD_REACTORS
330
2A
102
}
330
2A
100
AcDbVisualStyle
  2
Realistic
 70
     8
177
     2
291
     0
 71
     2
176
     1
 72
     2
176
     1
 73
     0
176
     1
 90
        0
176
     1
 40
-0.6
176
     1
 41
-30.0
176
     1
 62
     5
 63
     7
421
 16777215
176
     1
 74
     1
176
     1
 91
        0
176
     1
 64
     7
176
     1
 65
   257
176
     1
 75
     1
176
     1
175
     1
176
     1
 42
1.0
176
     1
 92
        8
176
     1
 66
     8
424
  7895160
176
     1
 43
1.0
176
     1
 76
     1
176
     1
 77
     6
176
     1
 78
     2
176
     1
 67
     7
176
     1
 79
     5
176
     1
170
     0
176
     1
171
     0
176
     1
290
     0
176
     1
 93
       13
176
     1
 44
0.0
176
     1
173
     0
176
     1
  0
VISUALSTYLE
  5
37
102
{ACAD_REACTORS
330
2A
102
}
330
2A
100
AcDbVisualStyle
  2
Thicken
 70
    13
177
     2
291
     1
 71
     2
176
     1
 72
     2
176
     1
 73
     0
176
     1
 90
        0
176
     1
 40
-0.6
176
     1
 41
-30.0
176
     1
 62
     5
 63
     7
421
 16777215
176
     1
 74
     1
176
     1
 91
        4
176
     1
 64
     7
176
     1
 65
   257
176
     1
 75
     1
176
     1
175
     1
176
     1
 42
1.0
176
     1
 92
       12
176
     1
 66
     7
176
     1
 43
1.0
176
     1
 76
     1
176
     1
 77
     6
176
     1
 78
     2
176
     1
 67
     7
176
     1
 79
     5
176
     1
170
     0
176
     1
171
     0
176
     1
290
     0
176
     1
 93
        1
176
     1
 44
0.0
176
     1
173
     0
176
     1
  0
ENDSEC
  0
EOF
