<?xml version="1.0" encoding="UTF-8" standalone="no"?>
<!DOCTYPE svg PUBLIC "-//W3C//DTD SVG 1.1//EN" "http://www.w3.org/Graphics/SVG/1.1/DTD/svg11.dtd">
<svg width="612pt" height="792pt" viewBox="0 0 612 792" overflow="visible" version="1.1" xmlns="http://www.w3.org/2000/svg">
  <path d="M233.3315,1001.71 C232.664,994.1895 228.2258,986.5023 222.0463,982.1638" stroke="#960000" stroke-width="0.24" fill-opacity="0" />
  <path d="M217.0229,979.2635 C210.1759,976.0812 201.2995,976.0812 194.4524,979.2635" stroke="#960000" stroke-width="0.24" fill-opacity="0" />
  <path d="M189.4291,982.1638 C183.2495,986.5023 178.8113,994.1895 178.1438,1001.71" stroke="#960000" stroke-width="0.24" fill-opacity="0" />
  <path d="M178.1438,1007.511 C178.8113,1015.032 183.2495,1022.719 189.4291,1027.057" stroke="#960000" stroke-width="0.24" fill-opacity="0" />
  <path d="M194.4524,1029.958 C201.2995,1033.14 210.1759,1033.14 217.0229,1029.958" stroke="#960000" stroke-width="0.24" fill-opacity="0" />
  <path d="M222.0463,1027.057 C228.2258,1022.719 232.664,1015.032 233.3315,1007.511" stroke="#960000" stroke-width="0.24" fill-opacity="0" />
  <path d="M250.6314,971.9934 C241.9543,959.6343 226.58,950.7579 211.5381,949.4229" stroke="#960000" stroke-width="0.24" fill-opacity="0" />
  <path d="M199.9372,949.4229 C184.8954,950.7579 169.521,959.6343 160.8439,971.9934" stroke="#960000" stroke-width="0.24" fill-opacity="0" />
  <path d="M155.0435,982.0401 C148.6787,995.7343 148.6787,1013.487 155.0435,1027.181" stroke="#960000" stroke-width="0.24" fill-opacity="0" />
  <path d="M160.8439,1037.228 C169.521,1049.587 184.8954,1058.463 199.9372,1059.798" stroke="#960000" stroke-width="0.24" fill-opacity="0" />
  <path d="M211.5381,1059.798 C226.58,1058.463 241.9543,1049.587 250.6314,1037.228" stroke="#960000" stroke-width="0.24" fill-opacity="0" />
  <path d="M256.4319,1027.181 C262.7966,1013.487 262.7966,995.7343 256.4319,982.0401" stroke="#960000" stroke-width="0.24" fill-opacity="0" />
  <path d="M239.5934,928.5693 C219.0522,919.0222 192.4231,919.0222 171.8819,928.5693" stroke="#960000" stroke-width="0.24" fill-opacity="0" />
  <path d="M156.8118,937.27 C138.2732,950.2856 124.9586,973.3472 122.9561,995.9099" stroke="#960000" stroke-width="0.24" fill-opacity="0" />
  <path d="M122.9561,1013.311 C124.9586,1035.874 138.2732,1058.936 156.8118,1071.951" stroke="#960000" stroke-width="0.24" fill-opacity="0" />
  <path d="M171.8819,1080.652 C192.4231,1090.199 219.0522,1090.199 239.5934,1080.652" stroke="#960000" stroke-width="0.24" fill-opacity="0" />
  <path d="M254.6635,1071.951 C273.2021,1058.936 286.5167,1035.874 288.5193,1013.311" stroke="#960000" stroke-width="0.24" fill-opacity="0" />
  <path d="M288.5193,995.9099 C286.5167,973.3472 273.2021,950.2856 254.6635,937.27" stroke="#960000" stroke-width="0.24" fill-opacity="0" />
  <path d="M194.1367,894.2352 C164.0531,896.9053 133.3044,914.658 115.9502,939.3762" stroke="#960000" stroke-width="0.24" fill-opacity="0" />
  <path d="M104.3492,959.4696 C91.61977,986.8579 91.61977,1022.363 104.3492,1049.752" stroke="#960000" stroke-width="0.24" fill-opacity="0" />
  <path d="M115.9502,1069.845 C133.3044,1094.563 164.0531,1112.316 194.1367,1114.986" stroke="#960000" stroke-width="0.24" fill-opacity="0" />
  <path d="M217.3386,1114.986 C247.4223,1112.316 278.171,1094.563 295.5252,1069.845" stroke="#960000" stroke-width="0.24" fill-opacity="0" />
  <path d="M307.1261,1049.752 C319.8556,1022.363 319.8556,986.8579 307.1261,959.4696" stroke="#960000" stroke-width="0.24" fill-opacity="0" />
  <path d="M295.5252,939.3762 C278.171,914.658 247.4223,896.9053 217.3386,894.2352" stroke="#960000" stroke-width="0.24" fill-opacity="0" />
  <path d="M310.5296,357.6505 C309.5153,354.7424 308.3788,351.8741 307.1261,349.0606" stroke="#000000" stroke-width="0.24" fill-opacity="0" />
  <path d="M307.1261,439.3427 C308.3788,436.5291 309.5153,433.6608 310.5296,430.7527" stroke="#000000" stroke-width="0.24" fill-opacity="0" />
  <path d="M310.5296,357.6505 C316.3783,345.5858 325.5145,334.7068 336.3868,326.861" stroke="#000000" stroke-width="0.24" fill-opacity="0" />
  <path d="M254.6635,461.5422 C265.5358,453.6964 274.672,442.8174 280.5208,430.7527" stroke="#000000" stroke-width="0.24" fill-opacity="0" />
  <path d="M280.5208,357.6505 C274.672,345.5858 265.5358,334.7068 254.6635,326.861" stroke="#000000" stroke-width="0.24" fill-opacity="0" />
  <path d="M280.5208,357.6505 C281.535,354.7424 282.6715,351.8741 283.9243,349.0606" stroke="#000000" stroke-width="0.24" fill-opacity="0" />
  <path d="M283.9243,439.3427 C282.6715,436.5291 281.535,433.6608 280.5208,430.7527" stroke="#000000" stroke-width="0.24" fill-opacity="0" />
  <path d="M295.5252,328.9672 C312.8794,304.249 343.6281,286.4962 373.7118,283.8261" stroke="#000000" stroke-width="0.24" fill-opacity="0" />
  <path d="M373.7118,504.5771 C343.6281,501.907 312.8794,484.1542 295.5252,459.436" stroke="#000000" stroke-width="0.24" fill-opacity="0" />
  <path d="M475.1002,459.436 C457.7459,484.1542 426.9973,501.907 396.9136,504.5771" stroke="#000000" stroke-width="0.24" fill-opacity="0" />
  <path d="M486.7011,349.0606 C499.4306,376.4489 499.4306,411.9543 486.7011,439.3427" stroke="#000000" stroke-width="0.24" fill-opacity="0" />
  <path d="M396.9136,283.8261 C426.9973,286.4962 457.7459,304.249 475.1002,328.9672" stroke="#000000" stroke-width="0.24" fill-opacity="0" />
  <path d="M419.1685,470.2429 C398.6272,479.79 371.9981,479.79 351.4569,470.2429" stroke="#000000" stroke-width="0.24" fill-opacity="0" />
  <path d="M468.0943,402.9023 C466.0917,425.4651 452.7772,448.5266 434.2385,461.5422" stroke="#000000" stroke-width="0.24" fill-opacity="0" />
  <path d="M434.2385,326.861 C452.7772,339.8766 466.0917,362.9381 468.0943,385.5009" stroke="#000000" stroke-width="0.24" fill-opacity="0" />
  <path d="M351.4569,318.1603 C371.9981,308.6132 398.6272,308.6132 419.1685,318.1603" stroke="#000000" stroke-width="0.24" fill-opacity="0" />
  <path d="M334.6185,416.7721 C328.2537,403.078 328.2537,385.3252 334.6185,371.6311" stroke="#000000" stroke-width="0.24" fill-opacity="0" />
  <path d="M379.5122,449.3893 C364.4704,448.0543 349.096,439.1779 340.4189,426.8188" stroke="#000000" stroke-width="0.24" fill-opacity="0" />
  <path d="M430.2064,426.8188 C421.5293,439.1779 406.155,448.0543 391.1131,449.3893" stroke="#000000" stroke-width="0.24" fill-opacity="0" />
  <path d="M436.0069,371.6311 C442.3716,385.3252 442.3716,403.078 436.0069,416.7721" stroke="#000000" stroke-width="0.24" fill-opacity="0" />
  <path d="M391.1132,339.0139 C406.155,340.3489 421.5293,349.2253 430.2064,361.5844" stroke="#000000" stroke-width="0.24" fill-opacity="0" />
  <path d="M340.4189,361.5844 C349.096,349.2253 364.4704,340.3489 379.5122,339.0139" stroke="#000000" stroke-width="0.24" fill-opacity="0" />
  <path d="M369.0041,416.6485 C362.8245,412.3099 358.3863,404.6228 357.7188,397.1018" stroke="#000000" stroke-width="0.24" fill-opacity="0" />
  <path d="M396.5979,419.5487 C389.7509,422.7311 380.8745,422.7311 374.0274,419.5487" stroke="#000000" stroke-width="0.24" fill-opacity="0" />
  <path d="M412.9066,397.1018 C412.239,404.6228 407.8008,412.3099 401.6213,416.6485" stroke="#000000" stroke-width="0.24" fill-opacity="0" />
  <path d="M401.6213,371.7547 C407.8008,376.0933 412.239,383.7805 412.9066,391.3014" stroke="#000000" stroke-width="0.24" fill-opacity="0" />
  <path d="M374.0274,368.8545 C380.8745,365.6721 389.7509,365.6721 396.5979,368.8545" stroke="#000000" stroke-width="0.24" fill-opacity="0" />
  <path d="M357.7188,391.3014 C358.3863,383.7805 362.8245,376.0933 369.0041,371.7547" stroke="#000000" stroke-width="0.24" fill-opacity="0" />
  <path d="M233.3315,391.3014 C232.664,383.7805 228.2258,376.0933 222.0463,371.7547" stroke="#000000" stroke-width="0.24" fill-opacity="0" />
  <path d="M217.0229,368.8545 C210.1759,365.6721 201.2995,365.6721 194.4524,368.8545" stroke="#000000" stroke-width="0.24" fill-opacity="0" />
  <path d="M189.4291,371.7547 C183.2495,376.0933 178.8113,383.7805 178.1438,391.3014" stroke="#000000" stroke-width="0.24" fill-opacity="0" />
  <path d="M178.1438,397.1018 C178.8113,404.6228 183.2495,412.3099 189.4291,416.6485" stroke="#000000" stroke-width="0.24" fill-opacity="0" />
  <path d="M194.4524,419.5487 C201.2995,422.7311 210.1759,422.7311 217.0229,419.5487" stroke="#000000" stroke-width="0.24" fill-opacity="0" />
  <path d="M222.0463,416.6485 C228.2258,412.3099 232.664,404.6228 233.3315,397.1018" stroke="#000000" stroke-width="0.24" fill-opacity="0" />
  <path d="M250.6314,361.5844 C241.9543,349.2253 226.58,340.3489 211.5381,339.0139" stroke="#000000" stroke-width="0.24" fill-opacity="0" />
  <path d="M199.9372,339.0139 C184.8954,340.3489 169.521,349.2253 160.8439,361.5844" stroke="#000000" stroke-width="0.24" fill-opacity="0" />
  <path d="M155.0435,371.6311 C148.6787,385.3252 148.6787,403.078 155.0435,416.7721" stroke="#000000" stroke-width="0.24" fill-opacity="0" />
  <path d="M160.8439,426.8188 C169.521,439.1779 184.8954,448.0543 199.9372,449.3893" stroke="#000000" stroke-width="0.24" fill-opacity="0" />
  <path d="M211.5381,449.3893 C226.58,448.0543 241.9543,439.1779 250.6314,426.8188" stroke="#000000" stroke-width="0.24" fill-opacity="0" />
  <path d="M256.4319,416.7721 C262.7966,403.078 262.7966,385.3252 256.4319,371.6311" stroke="#000000" stroke-width="0.24" fill-opacity="0" />
  <path d="M239.5934,318.1603 C219.0522,308.6132 192.4231,308.6132 171.8819,318.1603" stroke="#000000" stroke-width="0.24" fill-opacity="0" />
  <path d="M156.8118,326.861 C138.2732,339.8766 124.9586,362.9381 122.9561,385.5009" stroke="#000000" stroke-width="0.24" fill-opacity="0" />
  <path d="M122.9561,402.9023 C124.9586,425.4651 138.2732,448.5266 156.8118,461.5422" stroke="#000000" stroke-width="0.24" fill-opacity="0" />
  <path d="M171.8819,470.2429 C192.4231,479.79 219.0522,479.79 239.5934,470.2429" stroke="#000000" stroke-width="0.24" fill-opacity="0" />
  <path d="M194.1367,283.8261 C164.0531,286.4962 133.3044,304.249 115.9502,328.9672" stroke="#000000" stroke-width="0.24" fill-opacity="0" />
  <path d="M104.3492,349.0606 C91.61977,376.4489 91.61977,411.9543 104.3492,439.3427" stroke="#000000" stroke-width="0.24" fill-opacity="0" />
  <path d="M115.9502,459.436 C133.3044,484.1542 164.0531,501.907 194.1367,504.5771" stroke="#000000" stroke-width="0.24" fill-opacity="0" />
  <path d="M217.3386,504.5771 C247.4223,501.907 278.171,484.1542 295.5252,459.436" stroke="#000000" stroke-width="0.24" fill-opacity="0" />
  <path d="M295.5252,328.9672 C278.171,304.249 247.4223,286.4962 217.3386,283.8261" stroke="#000000" stroke-width="0.24" fill-opacity="0" />
  <path d="M295.5252,288.4471 C276.7389,272.2078 251.1488,260.3731 224.4428,256.7391 C197.7368,253.1051 169.9148,257.6718 147.4725,268.3009 C124.8448,278.5296 103.3569,296.7828 88.8426,319.4931 C74.32832,342.2033 66.78776,369.3704 67.00835,394.2016 C66.78776,419.0328 74.32832,446.2 88.8426,468.9102 C103.3569,491.6204 124.8448,509.8736 147.4725,520.1024 C169.9148,530.7314 197.7368,535.2982 224.4428,531.6641 C251.1488,528.0302 276.7389,516.1954 295.5252,499.9562 C314.3114,516.1954 339.9016,528.0302 366.6076,531.6641 C393.3136,535.2982 421.1355,530.7314 443.5779,520.1024 C466.2055,509.8736 487.6935,491.6204 502.2078,468.9102 C516.722,446.2 524.2626,419.0328 524.042,394.2016 C524.2626,369.3704 516.722,342.2033 502.2078,319.4931 C487.6935,296.7828 466.2055,278.5296 443.5779,268.3009 C421.1355,257.6718 393.3136,253.1051 366.6076,256.7391 C339.9016,260.3731 314.3114,272.2078 295.5252,288.4471 z" stroke="#000000" stroke-width="0.24" fill-opacity="0" />
  <path d="M336.3868,461.5422 C325.5145,453.6964 316.3783,442.8174 310.5296,430.7527" stroke="#000000" stroke-width="0.24" fill-opacity="0" />
</svg>