<?xml version="1.0" encoding="utf-8"?>
<!-- Generator: Adobe Illustrator 22.0.0, SVG Export Plug-In . SVG Version: 6.00 Build 0)  -->
<svg version="1.1" id="Layer_2_1_" xmlns="http://www.w3.org/2000/svg" xmlns:xlink="http://www.w3.org/1999/xlink" x="0px" y="0px"
	 viewBox="0 0 1280 1433.3" style="enable-background:new 0 0 1280 1433.3;" xml:space="preserve">
<style type="text/css">
	.st0{fill:none;stroke:#FF0000;stroke-width:0.9921;stroke-linecap:round;stroke-linejoin:round;stroke-miterlimit:10;}
</style>
<path class="st0" d="M152.8,680.8l4.7-34.3c0-6.6,4.3-17.8,10.9-17.8l307.7-3.5c16.3,0.5,19.5,1.9,22.1,5.2
	c3.3,4.1,2.7,7.4,7.2,12.9c0,0,0.1,0.1,0.1,0.1c4.2,5,11.6,5.3,16.6,1.2c12.9-10.3,128.5-96,164.8-132.3c2.3-2.3-2.9-4.8-4.2-6.4
	C634,450.5,525.9,366.2,525.9,366.2c-1.4-1.1-5.5-4.3-8.1-9.9c-4.1-8.7-4.9-23,3.6-30.7c8.1-7.4,20.5-4.9,27.1-3.6
	c1.9,0.4,6,1.3,10.8,3.6c16.8,8,25.4,25.6,27.1,28.9c12.6,25.1,93.5,119.3,115.2,146c4,4.9,9.5-7.3,9.3-7.6
	c-22-34.1-32.5-53.9-95.7-143.2c-28.4-40.1-42.6-58.5-35.5-71.9c5.3-9.9,20.4-14.6,32.4-12.2c18.4,3.7,28.8,24,45.6,67.9
	c0,0,57.7,150.9,66,148.5c0.7-0.2,4.4-2.9,8.7-2.9h0c4.1,0.3,7.1,3,8.2,4.2c25.5,24,28,28.3,57.6,71.8c0.9,1.3,3.1,4.6,2.9,8.7
	c-0.3,4.2-3.1,7.3-4.2,8.2c-109.6,93.7-168.2,150.8-191.1,170.3c-3.6,3-2,7.5,1.5,10.7c4.4,4.1,7.4,7.8,6.9,11.5
	c-0.1,1.1-0.2,0.7-0.6,2.8c-0.4,1.9-0.7,2.9-1.9,4.5c-2.4,3.3-3.2,8.5-8.8,8.8c-10,0.6-135.1,11-428.6,12.1c-6.6,0-13-1.8-13.8-8.4
	c-3.6-31.3-4.6-40-7.9-41.2c-1.8-0.7-5.2-0.3-8.8,3.9c-5.5,6.4-4.3,6.5-9.7,10.7c-3.8,2.9-20.7,0.1-27-2.6
	c-4.1-1.7-17.8-7.9-24.8-23.1c-5.9-12.9-3.4-24.5-0.9-36.2c2.4-11.1,7.7-15.2,15.2-20.5c9.1-6.4,17-8.3,23.1-7
	c13.8,3,22.5,11.5,24.8,13.9c8.1,8.5,6.6,7.1,8.3,6.5C153.8,688.6,153.5,684.9,152.8,680.8"/>
<line class="st0" x1="168.4" y1="651.2" x2="492.4" y2="651.2"/>
<line class="st0" x1="168.4" y1="675.5" x2="517.8" y2="675.5"/>
<line class="st0" x1="168.4" y1="699.8" x2="545.4" y2="699.8"/>
<line class="st0" x1="168.4" y1="724.1" x2="572.2" y2="724.1"/>
<line class="st0" x1="168.4" y1="748.4" x2="594.9" y2="748.4"/>
<line class="st0" x1="168.4" y1="772.7" x2="602.8" y2="766.6"/>
<line class="st0" x1="531.2" y1="666.4" x2="734.4" y2="492.9"/>
<line class="st0" x1="545.2" y1="682.8" x2="748.4" y2="509.3"/>
<line class="st0" x1="559.2" y1="699.2" x2="762.4" y2="525.6"/>
<line class="st0" x1="573.2" y1="715.6" x2="776.4" y2="542.1"/>
<line class="st0" x1="587.3" y1="732" x2="790.4" y2="558.5"/>
</svg>
