<?xml version="1.0" encoding="utf-8"?>
<!-- Generator: Adobe Illustrator 22.0.0, SVG Export Plug-In . SVG Version: 6.00 Build 0)  -->
<svg version="1.1" id="Layer_1" xmlns="http://www.w3.org/2000/svg" xmlns:xlink="http://www.w3.org/1999/xlink" x="0px" y="0px"
	 viewBox="0 0 282 388.5" style="enable-background:new 0 0 282 388.5;" xml:space="preserve">
<style type="text/css">
	.st0{fill-opacity:0;stroke:#000000;stroke-width:0.75;}
</style>
<path class="st0" d="M87.7,231.1c6,4.7,14.5,7,22,5.8"/>
<path class="st0" d="M76,208c0.1,7.6,3.6,15.7,9.2,20.9"/>
<path class="st0" d="M86.7,184.5c-5.9,4.8-10,12.6-10.6,20.2"/>
<path class="st0" d="M111.8,178.2c-7.4-1.6-16.1,0-22.4,4.3"/>
<path class="st0" d="M132.3,193.9c-3.4-6.8-10-12.5-17.3-14.8"/>
<path class="st0" d="M142.3,206.6c-0.1-9-4.1-18.5-10.5-24.9"/>
<path class="st0" d="M129.2,235.5c7-5.7,11.9-14.8,12.9-23.7"/>
<path class="st0" d="M98.4,243.2c8.8,1.9,19,0.1,26.6-4.7"/>
<path class="st0" d="M73.2,223.9c4,8.1,11.7,14.9,20.3,17.9"/>
<path class="st0" d="M72.5,192.2c-3.8,8.2-4.3,18.5-1.3,27"/>
<path class="st0" d="M96.9,171.9C88.1,174,79.7,180,75,187.7"/>
<path class="st0" d="M128,178.3c-7.1-5.6-17.1-8.4-26-7.3"/>
<path class="st0" d="M145.8,225.8c4.8-10.2,5.3-23.2,1.3-33.7"/>
<path class="st0" d="M116.4,250.2c11-2.6,21.4-10.3,27.1-20"/>
<path class="st0" d="M78.9,242.3c8.8,7,21.4,10.4,32.6,8.7"/>
<path class="st0" d="M61.7,208.2c0.1,11.3,5.2,23.2,13.5,30.9"/>
<path class="st0" d="M77.7,173.4c-8.8,7.1-14.9,18.6-15.8,29.8"/>
<path class="st0" d="M114.8,164.2c-11-2.5-23.8,0-33.1,6.2"/>
<path class="st0" d="M145.1,187.5c-4.9-10.1-14.8-18.6-25.5-22"/>
<path class="st0" d="M138.2,247.5c10-7.9,17.2-20.7,18.7-33.4"/>
<path class="st0" d="M94.7,257.7c12.5,2.9,26.9,0.5,37.8-6.2"/>
<path class="st0" d="M59.5,230.1c5.5,11.6,16.4,21.4,28.4,25.7"/>
<path class="st0" d="M59.2,185.3c-5.6,11.5-6.5,26.1-2.3,38.2"/>
<path class="st0" d="M93.9,157.2c-12.5,2.8-24.5,11.2-31.3,22"/>
<path class="st0" d="M137.6,166.8c-10-8-24-12.1-36.7-10.8"/>
<path class="st0" d="M157.3,207c0.1-12.8-5.5-26.3-14.5-35.4"/>
<path class="st0" d="M110.4,183.6c-11.4-3.5-27.3,7.2-28.4,19.1c-3.5,11.4,7.2,27.3,19.1,28.4c11.4,3.5,27.3-7.2,28.4-19.1
	C133,200.6,122.3,184.7,110.4,183.6z"/>
<path class="st0" d="M164.5,207.4c0.4-13.7-5.9-30.2-17.2-41.5c-11.3-11.3-27.8-17.6-41.5-17.2c-13.7-0.4-30.2,5.9-41.5,17.2
	c-11.3,11.3-17.6,27.8-17.2,41.5c-0.4,13.7,5.9,30.2,17.2,41.5c11.3,11.3,27.8,17.6,41.5,17.2c13.7,0.4,30.2-5.9,41.5-17.2
	C158.6,237.5,164.9,221.1,164.5,207.4z"/>
<path class="st0" d="M132.9,219.7c3.2-6.9,3.6-15.7,0.8-22.8"/>
<path class="st0" d="M113,236.3c7.4-1.8,14.5-7,18.3-13.6"/>
</svg>
