<?xml version="1.0" encoding="utf-8"?>
<!-- Generator: Adobe Illustrator 25.2.1, SVG Export Plug-In . SVG Version: 6.00 Build 0)  -->
<svg version="1.1" id="Layer_1" xmlns="http://www.w3.org/2000/svg" xmlns:xlink="http://www.w3.org/1999/xlink" x="0px" y="0px"
	 viewBox="0 0 1280 1743.7" style="enable-background:new 0 0 1280 1743.7;" xml:space="preserve">
<style type="text/css">
	.st0{fill:none;stroke:#FF0000;stroke-width:0.9921;stroke-linecap:round;stroke-linejoin:round;stroke-miterlimit:10;}
</style>
<path class="st0" d="M501.5,497.5c-36,12.6-356.9,124.9-347.3,252.4c9.4,124.3,333.9,275.9,567.4,163.2
	c182.9-88.3,295.6-331.7,227.7-428.9C868.8,368.9,549.2,480.7,501.5,497.5z"/>
<path class="st0" d="M330.7,626.5c7.9-11.5,27.5-36.6,62.6-51.2c52.2-21.8,99.7-4.2,110.1,0"/>
<path class="st0" d="M613.4,562c0.4-4.3,6-51.3,47.4-74c34.3-18.8,78.7-12.9,110.1,15.2"/>
<path class="st0" d="M522.4,753.5c15.1-67,119.3-123.1,163.5-91.9c30.7,21.7,35.7,87.7,5.4,127c-42.9,55.6-144.3,42.1-166.2,2.7
	C517.3,777.2,520.6,761.6,522.4,753.5z"/>
</svg>
