<?xml version="1.0" encoding="utf-8"?>
<!-- Generator: Adobe Illustrator 25.2.1, SVG Export Plug-In . SVG Version: 6.00 Build 0)  -->
<svg version="1.1" id="Layer_3" xmlns="http://www.w3.org/2000/svg" xmlns:xlink="http://www.w3.org/1999/xlink" x="0px" y="0px"
	 viewBox="0 0 221.2 166.5" style="enable-background:new 0 0 221.2 166.5;" xml:space="preserve">
<style type="text/css">
	.st0{fill:none;stroke:#ED1C24;stroke-width:7.200000e-02;stroke-miterlimit:10;}
</style>
<path class="st0" d="M141.3,119.7c16.3-2.4,26.3-19.7,37-33c5.7-7,8.9-15.2,10.7-23.8c0-2.5,0-5,0-7.5c-2.1-10.7-7.2-19.7-15.9-26.9
	c-8.3-6.9-17.8-11.8-28.4-14.3c-9.5-2.2-19.3-3.2-28.9-4.7c-1.4-0.2-2.8-0.3-4.2-0.5c-5,0-10,0-15.1,0c-6.2,0.8-12.5,1.4-18.7,2.5
	C62,14.4,47.4,20,35.7,31.2C28.8,37.7,24.4,45.4,23,54.6c0,0.3-0.3,0.5-0.5,0.8c0,2.5,0,5,0,7.5c5.9,26.7,26,42.8,47.9,57
	L141.3,119.7z"/>
<path class="st0" d="M77.7,112.5"/>
<path class="st0" d="M84.8,105.8"/>
<path class="st0" d="M126.9,105.9l5.3-3.2c3.1-2.2,5.9-4.3,8.8-6.2c1-0.7,8.6-7,8.6-7c3.4-3.9,6.5-7.6,9.6-11.2
	c0.5-0.5,4.8-9.5,4.8-9.5c2.2-6.5,1.6-12.4-1.6-17.9c-4.6-8-12-12.9-20.6-16.5c-10.5-4.3-21.6-5.6-32.9-5.9c-14-0.4-27.6,1-40.5,6.5
	c-8.9,3.8-16.4,9.1-20.4,18c-2.3,5-2.5,10.2-0.6,15.9l3.7,8.1c3.5,4.1,7,8.2,10.8,12.7l5.8,4.9c4.2,3,7.9,5.6,11.8,8.3l5.2,3"/>
<path class="st0" d="M126.9,105.9"/>
<path class="st0" d="M133.9,112.7"/>
<path class="st0" d="M77.7,112.5l-4.2-2.4c-4.8-3.4-9.2-6.5-14.5-10.2l-7.1-6c-4.6-5.4-8.9-10.5-13.3-15.6l-4.6-10
	c-2.4-6.9-2.1-13.3,0.7-19.5c4.9-10.9,14.2-17.5,25.1-22.1c15.9-6.7,32.6-8.5,49.8-8c13.9,0.4,27.6,1.9,40.5,7.2
	c10.6,4.3,19.7,10.4,25.3,20.3c3.9,6.9,4.7,14.1,2,22.1c0,0-5.4,11.1-5.9,11.7c-3.9,4.4-7.7,9-11.9,13.8c0,0-9.3,7.8-10.6,8.6
	c-3.6,2.3-7,4.9-10.9,7.6l-4.4,2.6"/>
<line class="st0" x1="82.6" y1="115" x2="100.9" y2="94.6"/>
<line class="st0" x1="130" y1="116.7" x2="109.9" y2="95.4"/>
<path class="st0" d="M121.4,100.1C122.8,99.4,120,100.7,121.4,100.1l5.7-3.4c2.5-1.8,4.8-3.5,7.1-5c0.8-0.5,6.9-5.7,6.9-5.7
	c2.7-3.2,5.2-6.1,7.8-9.1c0.4-0.4,3.9-7.7,3.9-7.7c1.8-5.2,1.3-10-1.3-14.5c-3.7-6.5-9.7-10.4-16.6-13.3c-8.5-3.5-17.4-4.5-26.6-4.8
	c-11.3-0.3-22.3,0.8-32.7,5.2c-7.2,3-13.2,7.4-16.5,14.5c-1.8,4.1-2.1,8.3-0.5,12.8l3,6.5c2.8,3.3,5.7,6.7,8.7,10.2l4.7,3.9
	c3.4,2.4,6.3,4.5,9.5,6.7l5.7,3.3c1.3,0.7-1.3-0.7,0,0"/>
<path class="st0" d="M114,92.9c1-0.5,1.9-1,2.9-1.5l4.1-2.4c1.8-1.3,3.4-2.5,5.1-3.6c0.6-0.4,5-4.1,5-4.1c2-2.3,3.7-4.4,5.6-6.5
	c0.3-0.3,2.8-5.5,2.8-5.5c1.3-3.7,0.9-7.1-0.9-10.4c-2.7-4.6-6.9-7.5-11.9-9.5c-6.1-2.5-12.5-3.2-19-3.4c-8.1-0.2-15.9,0.6-23.4,3.7
	c-5.1,2.2-9.5,5.3-11.8,10.4c-1.3,2.9-1.5,5.9-0.3,9.2l2.2,4.7c2,2.4,4.1,4.8,6.2,7.3l3.3,2.8c2.5,1.7,4.5,3.2,6.8,4.8l4.1,2.4
	c0.9,0.5,1.8,1,2.7,1.5"/>
</svg>
