<?xml version="1.0" encoding="utf-8"?>
<!-- Generator: Adobe Illustrator 25.2.1, SVG Export Plug-In . SVG Version: 6.00 Build 0)  -->
<svg version="1.1" id="Layer_1" xmlns="http://www.w3.org/2000/svg" xmlns:xlink="http://www.w3.org/1999/xlink" x="0px" y="0px"
	 viewBox="0 0 336.7 234" style="enable-background:new 0 0 336.7 234;" xml:space="preserve">
<style type="text/css">
	.st0{fill:none;stroke:#FF0000;stroke-width:7.000000e-02;stroke-miterlimit:10;}
	.st1{fill:none;stroke:#21409A;stroke-width:7.000000e-02;stroke-miterlimit:10;}
</style>
<path class="st0" d="M140.2,47.3c-5.4,0.1-10.7,0.6-16,1.7c-3.3,0.7-14.9,6.8-21.1,8.1c-13.9,3-26.2,0.5-29.7-3
	c-6.3-6.4-20.7-0.5-33.2-10.9c-3.3-2.7,9-2.8,20.7-1.1c9.5,1.5,20.7,4.5,30.1,3.5c13-1.5,28.6-5.7,38-5.6c7.1,0,14.9,3.8,18.6,4.2"
	/>
<path class="st0" d="M196.5,47.3c5.4,0.1,10.7,0.6,16,1.7c3.3,0.7,14.9,6.8,21.1,8.1c13.9,3,26.3,0.5,29.7-3
	c6.3-6.4,20.7-0.5,33.2-10.9c3.3-2.7-9-2.8-20.7-1.1c-9.5,1.5-20.7,4.5-30.1,3.5c-13-1.5-28.6-5.7-38-5.6c-7.1,0-14.9,3.8-18.6,4.2"
	/>
<path class="st0" d="M336.5,38.1c-0.2-0.7-0.6-1.4-1.2-1.8c-8.2-7.4-49.1-4.2-49.1-4.2c-6.8,0.5-8.4,0.7-10.9,1
	c-11,1.4-13.3,2.9-21.4,3.2c-4.2,0.1-8.4,0-12.5-0.4c-7.4-0.5-12.9-1.2-14.5-1.5c-5.2-0.7-15.8-2-30.1-3.2
	c-5.3-0.4-10.7-0.1-15.9,1.1c0.4-5.5,0-9.8-1.8-12.1s-2.8-0.3,0-2.5c2.5-1.9,3.2-5.7,0.8-9.8c-1.2-2-3.3-2.1-5-3.1
	c-1.1-0.6-3.6-4.8-6.6-4.8c-2.8,0-4.1,2.2-6.4,4.9c-0.8,0.9-2.5,0.3-4.7,2.4c-1.1,1-3.4,5.9-0.1,8.7c2.7,2.2,3,1.9,0.8,3.8
	s-2.2,6.2-1.7,12.5c-5.4-1.2-10.9-1.6-16.3-1.2c-14.3,1.1-24.9,2.4-30.1,3.2c-1.6,0.2-7.1,1-14.5,1.5c-4.2,0.4-8.3,0.5-12.5,0.4
	c-8.2-0.4-10.5-1.8-21.5-3.2c-2.5-0.3-4.2-0.5-10.9-1c0,0-41-3.1-49.2,4.2c-0.6,0.5-1,1.1-1.2,1.8c-0.8,3,2.7,6.7,3.8,7.8
	c5.4,5.7,12.4,7.1,18.5,8.2c4.8,0.8,9.6,1.2,14.5,1.2c5,0.1,4.9-0.2,8.6-0.1c4.1,0.2,9.7,0.5,15.6,3c5.2,2.2,5.1,3.8,10.1,6.4
	c3.5,1.8,8.7,4.9,16.6,5.3c17.5,0.8,33-4.7,48.2-12c7.6-3.7,16.4-4.7,22.7-5.1l2.5,20.2c1.2,4.1,2.1,8.3,2.6,12.6
	c-0.9,2.3-1.4,4.8-1.4,7.2c-0.1,3.1,0.6,6.3,2.2,9c0,0.4,0,0.8,0,1.2c-1.6,3.1-2.4,6.6-2.3,10.2c-0.1,3.1,0.5,6.3,1.6,9.2
	c0,0.7,0,1.5-0.1,2.2c-1.2,2.8-1.8,5.8-1.7,8.8c-0.1,2.8,0.4,5.7,1.4,8.4c0,1.1,0,2.2,0,3.3c-2,5.6-2,11.6-0.1,17.2v3.4
	c-1,2.2-1.6,4.6-1.5,7c-0.1,2.6,0.5,5.1,1.6,7.4c0,1.9,0,3.8,0.1,5.6c-0.6,2-0.9,4.1-0.9,6.1c-0.1,2.5,0.3,4.9,1.1,7.2
	c0,1.3,0.1,2.5,0.1,3.7c-0.9,2-1.4,4.2-1.4,6.5c-0.1,2.5,0.5,5,1.7,7.2c-0.5,1.4-0.8,2.8-0.8,4.3c0,2.7,0.7,5.1,1.8,6.2
	c0.4,4.4,1,6.9,1.5,6.9s1.1-2.4,1.6-6.8c1.1-1.2,1.9-3.5,1.9-6.3c0-1.3-0.2-2.7-0.6-3.9c1.4-2.3,2.2-4.9,2.1-7.6
	c0.1-2.5-0.5-5-1.7-7.2c0-0.6,0.1-1.2,0.1-1.8c1.2-2.6,1.8-5.5,1.7-8.4c0.1-2.5-0.4-5-1.2-7.4c0-1.2,0.1-2.5,0.1-3.8
	c1.4-2.4,2.2-5.2,2.1-8c0.1-2.7-0.5-5.4-1.8-7.7v-1.8c2.5-6.1,2.6-12.9,0.1-19c0-0.5,0-1,0-1.6c1.3-2.9,2-6,1.9-9.1
	c0.1-3.3-0.6-6.6-2-9.6c0-0.2,0-0.4,0-0.7c1.5-3.1,2.2-6.5,2.1-9.9c0-4.6-1-8.6-2.6-10.8l0,0c1.6-2,2.7-5.4,2.7-9.4
	c0-1.9-0.2-3.8-0.7-5.6c1.1-13.3,2.5-12.6,2.6-14.2c0.3-4.3,0.9-8.8,1.5-13.3l1-7.1c6.2,0.4,15,1.4,22.6,5.1
	c15.2,7.3,30.8,12.8,48.2,12c7.9-0.4,13.1-3.5,16.6-5.2c5-2.5,4.9-4.1,10.1-6.4c5.9-2.6,11.5-2.8,15.7-3c3.7-0.2,3.6,0.2,8.6,0.1
	c4.8,0,9.7-0.4,14.5-1.2c6.1-1.1,13.1-2.5,18.5-8.2C333.9,44.7,337.4,41.1,336.5,38.1z"/>
<path class="st1" d="M164.2,9.6c-0.3,3.7-0.4,7.8,0.3,9.6c1.3,3.2,2,6,1,8.4c0,0-1,2-2.5,1.8s-2.4-2.1-2.6-3.7
	c-0.4-2.3,0.9-3.6,1.6-6.5c0.6-3.3,0.7-6.7,0.4-10"/>
<path class="st1" d="M174,9.4c-0.3,3.7-0.4,7.8,0.3,9.6c1.3,3.2,2,6,1,8.4c0,0-1,2-2.5,1.8s-2.4-2.1-2.6-3.7
	c-0.4-2.3,0.9-3.6,1.6-6.5c0.6-3.3,0.7-6.7,0.4-10.1"/>
</svg>
