<svg xmlns="http://www.w3.org/2000/svg" viewBox="0 0 336.71 233.97"><defs><style>.cls-1,.cls-2{fill:none;stroke-miterlimit:10;stroke-width:0.07px;}.cls-1{stroke:red;}.cls-2{stroke:#21409a;}</style></defs><g id="Layer_2" data-name="Layer 2"><g id="Layer_8" data-name="Layer 8"><path class="cls-1" d="M140.24,47.27a81.69,81.69,0,0,0-16,1.74c-3.33.71-14.92,6.76-21.11,8.12-13.92,3-26.25.54-29.72-3-6.29-6.4-20.67-.48-33.24-10.85-3.33-2.74,9-2.85,20.67-1.06,9.53,1.46,20.69,4.53,30.08,3.46,13-1.49,28.61-5.71,38-5.63,7.05,0,14.89,3.77,18.56,4.25"/><path class="cls-1" d="M196.47,47.27a81.53,81.53,0,0,1,16,1.74c3.33.71,14.92,6.76,21.11,8.12,13.92,3,26.26.54,29.73-3,6.29-6.4,20.67-.48,33.24-10.85,3.32-2.74-9-2.85-20.67-1.06-9.53,1.46-20.69,4.53-30.08,3.46-13-1.49-28.61-5.71-38-5.63-7.05,0-14.9,3.77-18.57,4.25"/><path class="cls-1" d="M336.55,38.07a3.77,3.77,0,0,0-1.19-1.83C327.19,28.87,286.22,32,286.22,32c-6.77.52-8.38.66-10.92,1-11,1.38-13.28,2.87-21.44,3.23a106.62,106.62,0,0,1-12.51-.39c-7.38-.48-12.85-1.25-14.47-1.48-5.24-.72-15.84-2-30.13-3.17a54.32,54.32,0,0,0-15.88,1.09c.36-5.5,0-9.81-1.82-12.07s-2.78-.34,0-2.49c2.46-1.89,3.24-5.67.81-9.79-1.19-2-3.3-2.13-5-3.08C173.77,4.2,171.28,0,168.28,0c-2.78,0-4.13,2.25-6.39,4.93-.77.91-2.5.34-4.67,2.38-1.07,1-3.38,5.93-.05,8.67,2.69,2.21,3,1.9.84,3.8s-2.25,6.23-1.69,12.53A54.62,54.62,0,0,0,140,31.15c-14.28,1.14-24.88,2.45-30.12,3.17-1.63.23-7.09,1-14.47,1.48a106.67,106.67,0,0,1-12.51.39C74.68,35.83,72.4,34.34,61.4,33c-2.54-.31-4.15-.45-10.91-1,0,0-41-3.12-49.15,4.25A3.77,3.77,0,0,0,.16,38.07c-.81,3,2.66,6.67,3.77,7.83,5.39,5.7,12.41,7.1,18.52,8.24a84.8,84.8,0,0,0,14.47,1.23c5,.09,4.89-.25,8.61-.06,4.13.2,9.73.48,15.65,3,5.21,2.25,5.09,3.85,10.08,6.36C74.73,66.45,80,69.6,87.86,70c17.49.81,33-4.68,48.24-12,7.64-3.69,16.45-4.73,22.69-5.11l2.47,20.25a77.08,77.08,0,0,1,2.57,12.6,18.74,18.74,0,0,0-1.4,7.24,16.65,16.65,0,0,0,2.2,9c0,.4,0,.79,0,1.18a21.32,21.32,0,0,0-2.29,10.16,23.11,23.11,0,0,0,1.64,9.19c0,.74,0,1.48-.05,2.23a21.63,21.63,0,0,0-1.72,8.77,22.32,22.32,0,0,0,1.4,8.35c0,1.09,0,2.19,0,3.3a26.32,26.32,0,0,0-.1,17.23v3.4a16.12,16.12,0,0,0-1.53,7,15.67,15.67,0,0,0,1.62,7.4c0,1.91,0,3.8.07,5.64a21.4,21.4,0,0,0-.88,6.15,20.39,20.39,0,0,0,1.15,7.22c0,1.26.07,2.5.11,3.7a14.78,14.78,0,0,0-1.38,6.46,14,14,0,0,0,1.69,7.21,12.41,12.41,0,0,0-.75,4.32c0,2.7.7,5.05,1.77,6.25.45,4.41,1,6.86,1.52,6.86s1.1-2.42,1.61-6.79c1.11-1.16,1.88-3.52,1.9-6.26a13.14,13.14,0,0,0-.55-3.93,13.27,13.27,0,0,0,2.07-7.58,13.86,13.86,0,0,0-1.72-7.24c0-.6.06-1.22.08-1.84A18.71,18.71,0,0,0,172,192a20.08,20.08,0,0,0-1.22-7.38c0-1.24.07-2.49.1-3.76a15.06,15.06,0,0,0,2.12-8,15.32,15.32,0,0,0-1.82-7.74l0-1.82a25.37,25.37,0,0,0,.14-19c0-.52,0-1,0-1.57a21.13,21.13,0,0,0,1.9-9.15,20.52,20.52,0,0,0-2-9.6c0-.23,0-.45,0-.68a21.75,21.75,0,0,0,2.14-9.91c0-4.57-1-8.58-2.55-10.85v0c1.59-2,2.66-5.44,2.69-9.43a20.47,20.47,0,0,0-.71-5.58c1.05-13.29,2.54-12.57,2.65-14.18.32-4.31.88-8.82,1.54-13.31l1-7.12c6.23.39,15,1.44,22.62,5.11,15.21,7.35,30.75,12.84,48.23,12,7.89-.36,13.14-3.51,16.61-5.25,5-2.51,4.87-4.11,10.07-6.36,5.93-2.56,11.52-2.84,15.66-3,3.71-.19,3.65.15,8.61.06a84.62,84.62,0,0,0,14.46-1.23c6.11-1.14,13.14-2.54,18.53-8.24C333.89,44.74,337.36,41.07,336.55,38.07Z"/><path class="cls-2" d="M164.25,9.58c-.33,3.68-.41,7.8.31,9.63,1.27,3.23,2,6,1,8.37,0,0-1,2-2.47,1.82s-2.36-2.13-2.61-3.69c-.36-2.31.87-3.62,1.63-6.53a38.91,38.91,0,0,0,.37-10"/><path class="cls-2" d="M174,9.37c-.33,3.68-.41,7.79.31,9.63,1.27,3.23,2,6,1,8.37,0,0-1,2-2.47,1.82s-2.36-2.13-2.61-3.69c-.36-2.31.88-3.62,1.63-6.53a39,39,0,0,0,.37-10.06"/></g></g></svg>