<?xml version="1.0" encoding="utf-8"?>
<!-- Generator: Adobe Illustrator 22.0.0, SVG Export Plug-In . SVG Version: 6.00 Build 0)  -->
<svg version="1.1" id="Layer_1" xmlns="http://www.w3.org/2000/svg" xmlns:xlink="http://www.w3.org/1999/xlink" x="0px" y="0px"
	 viewBox="0 0 1280 1024" style="enable-background:new 0 0 1280 1024;" xml:space="preserve">
<style type="text/css">
	.st0{fill:none;stroke:#FF0000;stroke-width:0.9921;stroke-linecap:round;stroke-linejoin:round;stroke-miterlimit:10;}
</style>
<g id="SPLINE_1_">
	<path class="st0" d="M1120.1,538.3c38.1,6.9,66.2,12.7,77.4,17.5c5.9,2.5,5.5,5.5-1.1,5c-14.5-1.1-39.1-7.1-77.4-17.5"/>
</g>
<g id="SPLINE_3_">
	<path class="st0" d="M1118.4,479.5c37.7-9.2,65.7-15.3,77.8-15.5c6.4-0.1,7.3,2.8,1,5.1c-13.7,4.9-38.6,9.4-77.8,15.5"/>
</g>
<g id="SPLINE_5_">
	<path class="st0" d="M1122.5,508.2c38.7-1.7,67.4-2.2,79.4,0c6.3,1.2,6.6,4.2,0,5.2c-14.4,2.1-39.7,1.7-79.4,0"/>
</g>
<g id="SPLINE_7_">
	<path class="st0" d="M1100.7,538.3c-38.1,6.9-66.2,12.7-77.4,17.5c-5.9,2.5-5.5,5.5,1.1,5c14.5-1.1,39.1-7.1,77.4-17.5"/>
</g>
<g id="SPLINE_9_">
	<path class="st0" d="M1102.5,479.5c-37.7-9.2-65.7-15.3-77.8-15.5c-6.4-0.1-7.3,2.8-1,5.1c13.7,4.9,38.6,9.4,77.8,15.5"/>
</g>
<g id="SPLINE_10_">
	<path class="st0" d="M1098.4,508.2c-38.7-1.7-67.4-2.2-79.4,0c-6.3,1.2-6.6,4.2,0,5.2c14.4,2.1,39.7,1.7,79.4,0"/>
</g>
<g id="POLYLINE_5_">
	<path class="st0" d="M848.5,499.3"/>
</g>
<g id="POLYLINE_6_">
	<line class="st0" x1="600.4" y1="487" x2="658.3" y2="444.5"/>
</g>
<g id="POLYLINE_7_">
	<path class="st0" d="M1098.4,522.9H757.6c0.1,0.1,0.3,0.1,0.4,0.2c28.4,13.1,44.4,48.4,36.6,57.7c-2.5,3-8.5,2.5-20.3,1.4
		c-23.6-2.2-37-3.4-49-13.1c-13.1-10.6-25.5-31.9-18.3-43.7c0.6-0.9,1.2-1.7,2-2.5h-53c0.1,0.1,0.1,0.2,0.2,0.3
		c0.5,1.5-1.5,2.3-2.1,5.3c-1.2,5.8,4.3,11.4,3.9,11.7c-0.2,0.2-1.8-1.8-3.8-4.1c-1-1.1-2.3-2.5-5-5.3c-5.2-5.4-7.4-7-8-7.9H-0.2
		v-23.6h469.6c0.9-1,3.2-2.8,7.7-7.6c2.7-2.8,4-4.2,5-5.3c2.1-2.3,3.6-4.2,3.8-4.1c0.4,0.3-5.1,5.9-3.9,11.7c0.6,3,2.5,3.8,2.1,5.2
		H590c-1.8-1.2-3.3-2.7-4.4-4.5c-7.2-11.8,5.2-33.2,18.3-43.7c12-9.7,25.4-10.9,49-13.1c11.8-1.1,17.7-1.6,20.3,1.4
		c7.8,9.4-8.3,44.7-36.6,57.7c-1.7,0.8-3.5,1.5-5.3,2.2h186.9c0-1,2-2,8.2-8.4c2.7-2.8,4-4.2,5-5.3c2.1-2.3,3.6-4.2,3.8-4.1
		c0.4,0.3-5.1,5.9-3.9,11.7c0.6,3,2.6,3.8,2.1,5.3c-0.1,0.3-0.3,0.6-0.5,0.8h265.5l1.1-4.8c-74.5-6.5-121.3-13.5-145.8-29
		c-11.2-7.1-7.8-21.5,4.9-24.7c24-6.1,76.3,6.9,145.8,29h12.1c69.6-22.1,121.8-35,145.8-29c12.7,3.2,16.1,17.6,4.9,24.7
		c-24.5,15.5-71.3,22.4-145.8,29l1.1,3.8c72.5-8.1,126.3-10.6,148.7,0c11.8,5.6,12.4,20.4,0,25.2c-27,10.4-74.3,8.1-148.7,0
		l-0.2,5.1c72.5,8.1,125.5,17.4,145,32.7c10.3,8.1,7.6,22.6-5.5,24.6c-28.7,4.2-74.3-8.5-145-32.7h-12.7
		c-70.7,24.3-116.4,36.9-145,32.7c-13.1-1.9-15.8-16.5-5.5-24.6c19.5-15.3,72.5-24.7,145-32.7L1098.4,522.9z"/>
</g>
</svg>
