<?xml version="1.0" encoding="utf-8"?>
<!-- Generator: Adobe Illustrator 22.0.0, SVG Export Plug-In . SVG Version: 6.00 Build 0)  -->
<svg version="1.1" id="Layer_1" xmlns="http://www.w3.org/2000/svg" xmlns:xlink="http://www.w3.org/1999/xlink" x="0px" y="0px"
	 viewBox="0 0 1280 1024" style="enable-background:new 0 0 1280 1024;" xml:space="preserve">
<style type="text/css">
	.st0{fill:none;stroke:#FF0000;stroke-width:0.9921;stroke-linecap:round;stroke-linejoin:round;stroke-miterlimit:10;}
</style>
<g id="POLYLINE">
	<polyline class="st0" points="-0.2,371.9 1280.2,371.9 1280.2,652.1 -0.2,652.1 -0.2,371.9 	"/>
</g>
<g id="POLYLINE_1_">
	<line class="st0" x1="33.9" y1="424.8" x2="33.9" y2="593.3"/>
</g>
<g id="POLYLINE_2_">
	<line class="st0" x1="32.8" y1="401.4" x2="1253.5" y2="401.4"/>
</g>
<g id="POLYLINE_3_">
	<line class="st0" x1="32.8" y1="626.8" x2="1253.5" y2="626.8"/>
</g>
<g id="POLYLINE_4_">
	<line class="st0" x1="1253.3" y1="427.8" x2="1253.3" y2="596.2"/>
</g>
<g id="POLYLINE_5_">
	<polyline class="st0" points="64.2,498.1 64.2,424.8 616.8,424.8 	"/>
</g>
<g id="POLYLINE_6_">
	<polyline class="st0" points="1227.5,529.8 1227.5,603.2 674.9,603.2 	"/>
</g>
<g id="POLYLINE_7_">
	<polyline class="st0" points="64.2,529.8 64.2,603.1 616.8,603.1 	"/>
</g>
<g id="POLYLINE_8_">
	<polyline class="st0" points="1227.5,498.1 1227.5,424.8 674.9,424.8 	"/>
</g>
<g id="POLYLINE_9_">
	<line class="st0" x1="89.8" y1="463.9" x2="89.8" y2="562.6"/>
</g>
<g id="POLYLINE_10_">
	<line class="st0" x1="88.9" y1="450.1" x2="1204.4" y2="450.1"/>
</g>
<g id="POLYLINE_11_">
	<line class="st0" x1="88.9" y1="582.2" x2="1204.4" y2="582.2"/>
</g>
<g id="POLYLINE_12_">
	<line class="st0" x1="1204.2" y1="465.6" x2="1204.2" y2="564.3"/>
</g>
<g id="POLYLINE_13_">
	<line class="st0" x1="138.3" y1="508" x2="138.3" y2="519.9"/>
</g>
<g id="POLYLINE_14_">
	<line class="st0" x1="137.4" y1="498.1" x2="1155.9" y2="498.1"/>
</g>
<g id="POLYLINE_15_">
	<line class="st0" x1="137.4" y1="529.8" x2="1155.9" y2="529.8"/>
</g>
<g id="POLYLINE_16_">
	<line class="st0" x1="1155.7" y1="509.4" x2="1155.7" y2="520.8"/>
</g>
<g id="POLYLINE_17_">
	<polyline class="st0" points="117.1,498.1 117.1,476.3 621.6,476.3 	"/>
</g>
<g id="POLYLINE_18_">
	<polyline class="st0" points="1179,521.6 1179,553.3 674.5,553.3 	"/>
</g>
<g id="POLYLINE_19_">
	<polyline class="st0" points="117.1,529.8 117.1,553.3 621.6,553.3 	"/>
</g>
<g id="POLYLINE_20_">
	<polyline class="st0" points="1179,498.1 1179,476.3 674.5,476.3 	"/>
</g>
</svg>
