<?xml version="1.0" encoding="utf-8"?>
<!-- Generator: Adobe Illustrator 25.2.1, SVG Export Plug-In . SVG Version: 6.00 Build 0)  -->
<svg version="1.1" id="Layer_2_1_" xmlns="http://www.w3.org/2000/svg" xmlns:xlink="http://www.w3.org/1999/xlink" x="0px" y="0px"
	 viewBox="0 0 1280 1743.7" style="enable-background:new 0 0 1280 1743.7;" xml:space="preserve">
<style type="text/css">
	.st0{fill:none;stroke:#FF0000;stroke-width:0.9921;stroke-linecap:round;stroke-linejoin:round;stroke-miterlimit:10;}
</style>
<g>
	<g>
		<g id="SPLINE_1_">
			<path class="st0" d="M540.1,624.4c0.1,47-0.7,268.3-0.7,268.3c41.2,90.8,96.6,29.3,109.2,83.8c2,8.8,3.6,17.5,4.8,26.2
				c-4-2.2-8.6-2.3-16.1-2.3c-3.2,0-8.3,0-13.4,0.4c-0.4-0.3-0.8-0.6-1.2-0.9c-5.8-3.8-12.2-4.3-15-4.5c-7.2-0.6-13,1.1-16.2,2.3
				c-37.2,41.8-58,88.7-52.7,121.5c3.9,24,24.7,59.4,27.2,75.5c1.9,12.1,38-24.7,54.8-51.4c0,0,33.7-56,14.8-122
				c2-0.5,4.4-0.8,7.7-0.5c5.5,0.5,9.4,2.5,12.3,4.1c2.5,48.2-9,93-35.3,131.3c-5.6,8.1-20,60.5-24.9,75.4c-4,20.3-6.5,43-5.9,66.8
				c-0.1,0.9-0.2,2.7-1.6,6.2c-1.7,4.3-7,3.1-15.6-0.1c-1.1-0.4,2.1,4.3,10.2,9.7c3,2,5.3,4.2,7.7,5c1.9,44.7,5.4,64,11,104.3
				c6.8,49.4,11.2,89,21,125.7c7.2,26.7,11.2,60,25.1,56.5c35-8.8,41.5,12.4,22.4-62.5c-20-78.3-12.1-46-19.6-90
				c-2-11.7-9-60-10.9-73.4c-18.6-81.5-15.7-175.5,3.7-216.5c2.7-5.8,5.4-11.7,8.1-17.7c2,1.8,4.1,4.1,5.9,7.5
				c0.7,1.3,1.2,2.5,1.6,3.6c-0.4,0.2-0.8,0.4-1.1,0.7c-7.8,5.1-10.5,13.7-11.8,17.6c-21.4,67.7,13.7,125.8,13.7,125.8
				c16.8,26.7,52.9,63.5,54.8,51.4c2.6-16.1,23.4-51.4,27.2-75.5c5.3-32.8-15.5-79.7-52.7-121.5c-2.1-0.8-5.4-1.8-9.4-2.2
				c-0.4-0.9-0.8-1.8-1.1-2.5c-3.4-7.9-5.3-12.3-10.2-15.2c-3.4-2-7.5-2.7-11.3-2.7c15.3-35.9,27.9-74.5,27.9-111.7
				c1.9-1,3.8-2.7,6.2-4.3c8.1-5.4,11.3-10.1,10.2-9.7c-8.6,3.2-13.9,4.5-15.6,0.1c-2.6-6.4-1-7-2.4-7.3c-1.2-8.4-3.2-16.6-6-24.8
				c-8.1-22.9-8.1-31.4,0-41.4c11.7-14.4,32.1,16.2,60.4-39.7c0,0,0.4-224.5,0.3-269.7c-0.7-314.9,24.4-296.7-101.1-298.2
				C518.4,324.8,539.4,307.8,540.1,624.4z"/>
		</g>
	</g>
</g>
<line class="st0" x1="554.2" y1="871.8" x2="715.2" y2="871.8"/>
<path class="st0" d="M556.2,844.9c-0.3-34.3,0.8-82.6,2.4-102.6c1-12.7,3.9-25.8,7.2-25.8c1.9,0,3.4,3.2,4.7,13.2
	c1.6,12.3,2.5,27.7,3.3,41.8c1.7,30.2,2.4,37.7,2.6,61.5c0,4.6,0,8.3,0,10.8"/>
<line class="st0" x1="565.3" y1="716.5" x2="562.1" y2="366.8"/>
<line class="st0" x1="584.8" y1="366.8" x2="584.8" y2="844.9"/>
<path class="st0" d="M594.3,844.9c-0.3-34.3,0.8-82.6,2.4-102.6c1-12.7,3.9-25.8,7.2-25.8c1.9,0,3.4,3.2,4.7,13.2
	c1.6,12.3,2.5,27.7,3.3,41.8c1.7,30.2,2.4,37.7,2.6,61.5c0,4.6,0,8.3,0,10.8"/>
<line class="st0" x1="603.5" y1="716.5" x2="600.3" y2="366.8"/>
<line class="st0" x1="623" y1="366.8" x2="623" y2="844.9"/>
<path class="st0" d="M631.6,844.9c-0.3-34.3,0.8-82.6,2.4-102.6c1-12.7,3.9-25.8,7.2-25.8c1.9,0,3.4,3.2,4.7,13.2
	c1.6,12.3,2.5,27.7,3.3,41.8c1.7,30.2,2.4,37.7,2.6,61.5c0,4.6,0,8.3,0,10.8"/>
<line class="st0" x1="640.7" y1="716.5" x2="637.5" y2="366.8"/>
<line class="st0" x1="660.2" y1="366.8" x2="660.2" y2="844.9"/>
<path class="st0" d="M668.4,844.9c-0.3-34.3,0.8-82.6,2.4-102.6c1-12.7,3.9-25.8,7.2-25.8c1.9,0,3.4,3.2,4.7,13.2
	c1.6,12.3,2.5,27.7,3.3,41.8c1.7,30.2,2.4,37.7,2.6,61.5c0,4.6,0,8.3,0,10.8"/>
<line class="st0" x1="677.6" y1="716.5" x2="674.4" y2="366.8"/>
<line class="st0" x1="697.1" y1="366.8" x2="697.1" y2="844.9"/>
<path class="st0" d="M702.6,844.9c-0.3-34.3,0.8-82.6,2.4-102.6c1-12.7,3.9-25.8,7.2-25.8c1.9,0,3.4,3.2,4.7,13.2
	c1.6,12.3,2.5,27.7,3.3,41.8c1.7,30.2,2.4,37.7,2.6,61.5c0,4.6,0,8.3,0,10.8"/>
<line class="st0" x1="711.7" y1="716.5" x2="708.5" y2="366.8"/>
<line class="st0" x1="604.4" y1="1032.7" x2="576.4" y2="1146.6"/>
<path class="st0" d="M568.9,1060.6c0.5-2.3,4.3-18.1,19.1-25c6.6-3.1,12.8-3.1,16.4-2.9"/>
<path class="st0" d="M612.7,1111.6c0.6-2.2,3.5-13.3-2.9-24.4c-4.8-8.5-12.2-12.1-14.9-13.2"/>
<line class="st0" x1="670.1" y1="1187.4" x2="702.7" y2="1299.2"/>
<path class="st0" d="M702.8,1212.9c-0.6-2.2-5.1-17.8-18.3-23.7c-5.9-2.6-11.3-2.3-14.4-1.8"/>
<path class="st0" d="M668.9,1266.6c-0.7-2.1-4-13,0.7-24.5c3.5-8.7,9.6-12.8,11.8-14.1"/>
</svg>
