<?xml version="1.0" encoding="utf-8"?>
<!-- Generator: Adobe Illustrator 25.2.1, SVG Export Plug-In . SVG Version: 6.00 Build 0)  -->
<svg version="1.1" id="Layer_2_1_" xmlns="http://www.w3.org/2000/svg" xmlns:xlink="http://www.w3.org/1999/xlink" x="0px" y="0px"
	 viewBox="0 0 1280 1743.7" style="enable-background:new 0 0 1280 1743.7;" xml:space="preserve">
<style type="text/css">
	.st0{fill:none;stroke:#FF0000;stroke-width:0.9921;stroke-linecap:round;stroke-linejoin:round;stroke-miterlimit:10;}
</style>

	</g>
</g>
<line class="st0" x1="554.2" y1="871.8" x2="715.2" y2="871.8"/>
<path class="st0" d="M556.2,844.9c-0.3-34.3,0.8-82.6,2.4-102.6c1-12.7,3.9-25.8,7.2-25.8c1.9,0,3.4,3.2,4.7,13.2
	c1.6,12.3,2.5,27.7,3.3,41.8c1.7,30.2,2.4,37.7,2.6,61.5c0,4.6,0,8.3,0,10.8"/>
<line class="st0" x1="565.3" y1="716.5" x2="562.1" y2="366.8"/>
<line class="st0" x1="584.8" y1="366.8" x2="584.8" y2="844.9"/>
<path class="st0" d="M594.3,844.9c-0.3-34.3,0.8-82.6,2.4-102.6c1-12.7,3.9-25.8,7.2-25.8c1.9,0,3.4,3.2,4.7,13.2
	c1.6,12.3,2.5,27.7,3.3,41.8c1.7,30.2,2.4,37.7,2.6,61.5c0,4.6,0,8.3,0,10.8"/>
<line class="st0" x1="603.5" y1="716.5" x2="600.3" y2="366.8"/>
<line class="st0" x1="623" y1="366.8" x2="623" y2="844.9"/>
<path class="st0" d="M631.6,844.9c-0.3-34.3,0.8-82.6,2.4-102.6c1-12.7,3.9-25.8,7.2-25.8c1.9,0,3.4,3.2,4.7,13.2
	c1.6,12.3,2.5,27.7,3.3,41.8c1.7,30.2,2.4,37.7,2.6,61.5c0,4.6,0,8.3,0,10.8"/>
<line class="st0" x1="640.7" y1="716.5" x2="637.5" y2="366.8"/>
<line class="st0" x1="660.2" y1="366.8" x2="660.2" y2="844.9"/>
<path class="st0" d="M668.4,844.9c-0.3-34.3,0.8-82.6,2.4-102.6c1-12.7,3.9-25.8,7.2-25.8c1.9,0,3.4,3.2,4.7,13.2
	c1.6,12.3,2.5,27.7,3.3,41.8c1.7,30.2,2.4,37.7,2.6,61.5c0,4.6,0,8.3,0,10.8"/>
<line class="st0" x1="677.6" y1="716.5" x2="674.4" y2="366.8"/>
<line class="st0" x1="697.1" y1="366.8" x2="697.1" y2="844.9"/>
<path class="st0" d="M702.6,844.9c-0.3-34.3,0.8-82.6,2.4-102.6c1-12.7,3.9-25.8,7.2-25.8c1.9,0,3.4,3.2,4.7,13.2
	c1.6,12.3,2.5,27.7,3.3,41.8c1.7,30.2,2.4,37.7,2.6,61.5c0,4.6,0,8.3,0,10.8"/>
<line class="st0" x1="711.7" y1="716.5" x2="708.5" y2="366.8"/>
<line class="st0" x1="604.4" y1="1032.7" x2="576.4" y2="1146.6"/>
<path class="st0" d="M568.9,1060.6c0.5-2.3,4.3-18.1,19.1-25c6.6-3.1,12.8-3.1,16.4-2.9"/>
<path class="st0" d="M612.7,1111.6c0.6-2.2,3.5-13.3-2.9-24.4c-4.8-8.5-12.2-12.1-14.9-13.2"/>
<line class="st0" x1="670.1" y1="1187.4" x2="702.7" y2="1299.2"/>
<path class="st0" d="M702.8,1212.9c-0.6-2.2-5.1-17.8-18.3-23.7c-5.9-2.6-11.3-2.3-14.4-1.8"/>
<path class="st0" d="M668.9,1266.6c-0.7-2.1-4-13,0.7-24.5c3.5-8.7,9.6-12.8,11.8-14.1"/>
</svg>
