<?xml version="1.0" encoding="utf-8"?>
<!-- Generator: Adobe Illustrator 25.2.1, SVG Export Plug-In . SVG Version: 6.00 Build 0)  -->
<svg version="1.1" id="Layer_1" xmlns="http://www.w3.org/2000/svg" xmlns:xlink="http://www.w3.org/1999/xlink" x="0px" y="0px"
	 viewBox="0 0 263.6 1290.3" style="enable-background:new 0 0 263.6 1290.3;" xml:space="preserve">
<style type="text/css">
	.st0{fill:none;stroke:#FF0000;stroke-width:0.9921;stroke-linecap:round;stroke-linejoin:round;stroke-miterlimit:10;}
</style>
<path class="st0" d="M98.4,535.1c-3.4-76.4-4.4-133,0-156.6c2.3-12.5,8.5-13,10.4,0c4.3,28.5,3.4,78.3,0,156.6"/>
<path class="st0" d="M149.2,535.1c-3.4-76.4-4.4-133,0-156.6c2.3-12.5,8.5-13,10.4,0c4.3,28.5,3.4,78.3,0,156.6"/>
<path class="st0" d="M199.3,535.1c-3.4-76.4-4.4-133,0-156.6c2.3-12.5,8.5-13,10.4,0c4.3,28.5,3.4,78.3,0,156.6"/>
<line class="st0" x1="65.2" y1="809" x2="100.3" y2="694.1"/>
<line class="st0" x1="128.4" y1="535.1" x2="128.4" y2="59.3"/>
<line class="st0" x1="178.1" y1="535.1" x2="178.1" y2="31.8"/>
<path class="st0" d="M81,960.5c-0.2,2.2-0.7,4.3-1.6,6.2c-1.7,4.3-7,3.1-15.7-0.1c-1.1-0.4,2.1,4.3,10.3,9.7c3,2,5.3,4.2,7.8,5"/>
<path class="st0" d="M147.3,685.8c2.5,48.4-9,93.3-35.4,131.9c-5.6,8.2-20,60.7-25,75.7c-4.4,22.1-6.4,44.5-6,67"/>
<path class="st0" d="M127.3,682.1c2.5-0.6,5.1-0.7,7.7-0.5c4.4,0.4,8.6,1.9,12.3,4.1"/>
<path class="st0" d="M115.6,661.5c-0.4-0.3-0.8-0.6-1.2-0.9c-4.6-2.8-9.7-4.3-15.1-4.5c-5.5-0.4-11.1,0.4-16.3,2.3
	c-37.4,42-58.2,89.1-52.9,122c3.9,24.1,24.8,59.6,27.3,75.8c2,12.2,38.2-24.8,55-51.6c0,0,33.9-56.2,14.8-122.5"/>
<path class="st0" d="M145.2,663.3c-4.1-2.2-8.7-2.3-16.2-2.3c-3.2,0-8.3,0-13.4,0.4"/>
<path class="st0" d="M174.7,660.6c-1.2-8.5-3.2-16.8-6-24.8c-8.1-23-8.1-31.6,0-41.6c11.8-14.5,32.2,16.2,60.7-39.9
	c0,0,1.5-225.4,0.3-270.8c-11.3-414.5,1.2-252.1-101.2-251.6c-105.8,0.6-83.7-164.5-97,251.6c-1.5,47.2-0.7,269.4-0.7,269.4
	c41.4,91.2,97,29.5,109.6,84.2c2,8.9,3.7,17.6,4.8,26.3"/>
<path class="st0" d="M176.3,681.8c1.9-1,3.8-2.7,6.3-4.3c8.1-5.4,11.4-10.1,10.3-9.7c-8.6,3.2-14,4.5-15.7,0.1
	c-2.6-6.4-1-7.1-2.4-7.3"/>
<path class="st0" d="M148.3,794c15.5-36.1,28.1-74.8,28-112.2"/>
<path class="st0" d="M170.9,814.4l-1.1-2.5c-3.4-8-5.4-12.4-10.3-15.2c-3.5-1.9-7.4-2.8-11.3-2.7"/>
<path class="st0" d="M150.2,818.1c-0.4,0.2-0.8,0.4-1.2,0.7c-7.9,5.2-10.6,13.7-11.8,17.7c-21.5,68,13.7,126.3,13.7,126.3
	c16.9,26.8,53.1,63.8,55,51.6c2.6-16.1,23.5-51.6,27.3-75.8c5.3-32.9-15.5-80-52.9-122c-3.1-1.1-6.2-1.9-9.5-2.2"/>
<path class="st0" d="M142.6,807c2.4,2.1,4.4,4.7,6,7.5c0.7,1.2,1.2,2.4,1.7,3.7"/>
<path class="st0" d="M81.7,981.3c1.9,44.9,5.4,64.3,11,104.7c6.9,49.6,11.2,89.4,21.1,126.2c7.2,26.8,11.2,60.1,25.2,56.7
	c35.2-8.8,41.7,12.4,22.5-62.8c-20.1-78.7-12-46.2-19.7-90.4c-2-11.8-9-60.3-11-73.7c-18.7-81.8-15.7-176.2,3.6-217.4
	c2.7-5.8,5.5-11.7,8.2-17.7"/>
<path class="st0" d="M71.9,735.3c0.7-16,11.3-30,26.5-35"/>
<path class="st0" d="M92.5,785.7c3.3-6.4,4.8-13.5,4.3-20.6c-0.7-8.5-4.1-16.5-9.7-22.9"/>
<line class="st0" x1="199.7" y1="973" x2="164.7" y2="858.1"/>
<path class="st0" d="M193.1,899.3c-0.7-16-11.2-30-26.4-35"/>
<path class="st0" d="M172.5,949.7c-7.4-14.2-5.2-31.6,5.5-43.6"/>
<line class="st0" x1="154.4" y1="368.9" x2="154.4" y2="59.3"/>
<path class="st0" d="M51.3,535.1c-3.4-76.4-4.4-133,0-156.6c2.3-12.5,8.5-13,10.4,0c4.3,28.5,3.4,78.3,0,156.6"/>
<line class="st0" x1="80.2" y1="535.1" x2="80.2" y2="31.8"/>
<line class="st0" x1="56.5" y1="368.9" x2="56.5" y2="31.8"/>
<line class="st0" x1="102.5" y1="368.9" x2="102.5" y2="59.3"/>
<line class="st0" x1="204.6" y1="368.9" x2="204.6" y2="31.8"/>
<line class="st0" x1="56.4" y1="559.1" x2="199.8" y2="559.1"/>
</svg>
