<?xml version="1.0" encoding="utf-8"?>
<!-- Generator: Adobe Illustrator 22.0.0, SVG Export Plug-In . SVG Version: 6.00 Build 0)  -->
<svg version="1.1" id="Layer_2_1_" xmlns="http://www.w3.org/2000/svg" xmlns:xlink="http://www.w3.org/1999/xlink" x="0px" y="0px"
	 viewBox="0 0 1280 1024" style="enable-background:new 0 0 1280 1024;" xml:space="preserve">
<style type="text/css">
	.st0{fill:none;stroke:#FF0000;stroke-width:0.9921;stroke-linecap:round;stroke-linejoin:round;stroke-miterlimit:10;}
</style>
<symbol  id="pedal" viewBox="-83.2 -8.6 166.4 17.2">
	<g id="SPLINE_4_">
		<path class="st0" d="M-82.7,5.2c76.1,3.3,132.5,4.4,155.9,0c12.4-2.3,13-8.4,0-10.4c-28.3-4.3-78-3.3-155.9,0"/>
	</g>
</symbol>
<symbol  id="rose" viewBox="-640.8 -102.6 1281.5 205.1">
	<g id="SPLINE_2_">
		<path class="st0" d="M341.3,99.9c-47-0.1-268.3,0.7-268.3,0.7C-17.8,59.4,43.7,4-10.8-8.6c-8.8-2-17.5-3.6-26.2-4.8
			c2.2,4,2.3,8.6,2.3,16.1c0,3.2,0,8.3-0.4,13.4c0.3,0.4,0.6,0.8,0.9,1.2c3.8,5.8,4.3,12.2,4.5,15c0.6,7.2-1.1,13-2.3,16.2
			c-41.8,37.2-88.7,58-121.5,52.7c-24-3.9-59.4-24.7-75.5-27.2c-12.1-1.9,24.7-38,51.4-54.8c0,0,56-33.7,122-14.8
			c0.5-2,0.8-4.4,0.5-7.7c-0.5-5.5-2.5-9.4-4.1-12.3c-48.2-2.5-93,9-131.3,35.3c-8.1,5.6-60.5,20-75.4,24.9c-20.3,4-43,6.5-66.8,5.9
			c-0.9,0.1-2.7,0.2-6.2,1.6c-4.3,1.7-3.1,7,0.1,15.6c0.4,1.1-4.3-2.1-9.7-10.2c-2-3-4.2-5.3-5-7.7c-44.7-1.9-64-5.4-104.3-11
			c-49.4-6.8-89-11.2-125.7-21c-26.7-7.2-60-11.2-56.5-25.1c8.8-35-12.4-41.5,62.5-22.4c78.3,20,46,12.1,90,19.6
			c11.7,2,60,9,73.4,10.9c81.5,18.6,175.5,15.7,216.5-3.7c5.8-2.7,11.7-5.4,17.7-8.1c-1.8-2-4.1-4.1-7.5-5.9
			c-1.3-0.7-2.5-1.2-3.6-1.6c-0.2,0.4-0.4,0.8-0.7,1.1c-5.1,7.8-13.7,10.5-17.6,11.8C-277,15.8-335.1-19.3-335.1-19.3
			c-26.7-16.8-63.5-52.9-51.4-54.8c16.1-2.6,51.4-23.4,75.5-27.2c32.8-5.3,79.7,15.5,121.5,52.7c0.8,2.1,1.8,5.4,2.2,9.4
			c0.9,0.4,1.8,0.8,2.5,1.1c7.9,3.4,12.3,5.3,15.2,10.2c2,3.4,2.7,7.5,2.7,11.3C-131-31.9-92.4-44.5-55.2-44.5
			c1-1.9,2.7-3.8,4.3-6.2c5.4-8.1,10.1-11.3,9.7-10.2c-3.2,8.6-4.5,13.9-0.1,15.6c6.4,2.6,7,1,7.3,2.4c8.4,1.2,16.6,3.2,24.8,6
			c22.9,8.1,31.4,8.1,41.4,0C46.6-48.6,16-69,71.9-97.3c0,0,224.5-0.4,269.7-0.3C656.5-96.9,638.3-122,639.8,3.5
			C640.9,121.6,657.9,100.6,341.3,99.9z"/>
	</g>
</symbol>
<symbol  id="vein" viewBox="-57.7 -17.9 115.4 35.9">
	<g id="POLYLINE_2_">
		<line class="st0" x1="-57.2" y1="17.5" x2="57.2" y2="-17.5"/>
	</g>
	<g id="SPLINE_8_">
		<path class="st0" d="M16.2,10.9c3.6-0.2,11.7-1,19.9-6.6c10.1-6.9,13.9-16.5,15-19.8"/>
	</g>
	<g id="SPLINE_7_">
		<path class="st0" d="M-34-9.8c3.2-1.7,10.7-5,20.5-4.2C-1.3-13.1,8.1-5.6,10.7-3.2"/>
	</g>
</symbol>
<g id="SPLINE_10_">
	<path class="st0" d="M730.9,478.8c76.1-3.3,132.5-4.4,155.9,0c12.4,2.3,13,8.4,0,10.4c-28.3,4.3-78,3.3-155.9,0"/>
</g>
<g id="SPLINE_11_">
	<path class="st0" d="M730.9,529.4c76.1-3.3,132.5-4.4,155.9,0c12.4,2.3,13,8.4,0,10.4c-28.3,4.3-78,3.3-155.9,0"/>
</g>
<g id="SPLINE_12_">
	<path class="st0" d="M730.9,579.5c76.1-3.3,132.5-4.4,155.9,0c12.4,2.3,13,8.4,0,10.4c-28.3,4.3-78,3.3-155.9,0"/>
</g>
<g id="POLYLINE_12_">
	<line class="st0" x1="730.9" y1="508.8" x2="1232.1" y2="508.8"/>
</g>
<g id="POLYLINE_13_">
	<line class="st0" x1="730.9" y1="558.2" x2="1232.1" y2="558.2"/>
</g>
<use xlink:href="#rose"  width="1281.5" height="205.1" x="-640.8" y="-102.6" transform="matrix(1 0 0 -1 640.2124 512.15)" style="overflow:visible;"/>
<use xlink:href="#vein"  width="115.4" height="35.9" x="-57.7" y="-17.9" transform="matrix(1 0 0 -1 515.3 463.25)" style="overflow:visible;"/>
<g id="POLYLINE_14_">
	<line class="st0" x1="294.8" y1="579.8" x2="409.2" y2="544.9"/>
</g>
<g id="SPLINE_16_">
	<path class="st0" d="M368.2,573.2c3.6-0.2,11.7-1,19.9-6.6c10.1-6.9,13.9-16.5,15-19.8"/>
</g>
<g id="SPLINE_17_">
	<path class="st0" d="M318,552.6c3.2-1.7,10.7-5,20.5-4.2c12.2,0.9,21.2,8.5,23.8,10.8"/>
</g>
<g id="POLYLINE_15_">
	<line class="st0" x1="896.4" y1="534.6" x2="1232.1" y2="534.6"/>
</g>
<use xlink:href="#pedal"  width="166.4" height="17.2" x="-83.2" y="-8.6" transform="matrix(1 0 0 -1 813.6132 437.08)" style="overflow:visible;"/>
<g id="POLYLINE_16_">
	<line class="st0" x1="730.9" y1="460.7" x2="1232.1" y2="460.7"/>
</g>
<g id="POLYLINE_17_">
	<line class="st0" x1="896.4" y1="437.1" x2="1232.1" y2="437.1"/>
</g>
<g id="POLYLINE_18_">
	<line class="st0" x1="896.3" y1="484" x2="1232.1" y2="484"/>
</g>
<g id="POLYLINE_19_">
	<line class="st0" x1="896.4" y1="584.6" x2="1232.1" y2="584.6"/>
</g>
<g id="POLYLINE_20_">
	<line class="st0" x1="702.9" y1="437.1" x2="702.9" y2="579.9"/>
</g>
</svg>
