<?xml version="1.0" encoding="utf-8"?>
<!-- Generator: Adobe Illustrator 22.0.0, SVG Export Plug-In . SVG Version: 6.00 Build 0)  -->
<svg version="1.1" id="Layer_2_1_" xmlns="http://www.w3.org/2000/svg" xmlns:xlink="http://www.w3.org/1999/xlink" x="0px" y="0px"
	 viewBox="0 0 1280 1024" style="enable-background:new 0 0 1280 1024;" xml:space="preserve">
<style type="text/css">
	.st0{fill:none;stroke:#ED1C24;stroke-miterlimit:10;}
</style>
<g>
	<line class="st0" x1="746" y1="520.7" x2="746" y2="830.9"/>
	<line class="st0" x1="758.1" y1="520.7" x2="758.1" y2="830.9"/>
	<line class="st0" x1="734" y1="520.7" x2="734" y2="830.9"/>
	<line class="st0" x1="722" y1="514.3" x2="722" y2="830.9"/>
	<line class="st0" x1="710" y1="514.3" x2="710" y2="830.9"/>
	<line class="st0" x1="698" y1="520.7" x2="698" y2="830.9"/>
	<line class="st0" x1="686" y1="520.7" x2="686" y2="830.9"/>
	<line class="st0" x1="674" y1="520.7" x2="674" y2="830.9"/>
	<path class="st0" d="M770.7,520.7v310.1l0.1-0.8l-1.8,8.3h-47v28.8h-12v-0.7v-28.8v0.7h-45.4l-3.3-7.5V520.4l0,0
		c0.2-1,7.2-8.6,7.2-8.6h11.9l0,0c-3.1-5.8-8.6-38.2-10.5-45.2c-2-7.5-3.9-15-5.7-22.6c-0.8-3.5-2.1-6.2-4.1-8.3
		c-5.3-5.4-8.7-13.6-12.1-22c1.6-1.4,3-2.7,4.5-4c0.8-0.8,1.4-0.5,2,0.8c1.2,2.8,2.5,5.5,3.8,8.2c0.8,1.7,1.8,3.3,2.7,4.9
		c0.3-0.7,0.3-1.2,0.3-1.6c0-6.9,0-13.8,0-20.7c0-1.7,0.5-2.5,1.5-2.6c1.1-0.1,2.3-0.1,3.5-0.2c1,0,1.5,0.8,1.5,2.3
		c0,1.8,0,3.6,0,5.4c0.3,7.8,0.6,15.5,0.9,23.3c0,0.9,0.4,1.8,0.6,2.7c0.2,0,0.4,0,0.6,0c1.5-7.9,2.9-15.7,4.4-23.4
		c2.2,0.5,4.3,1,6.4,1.5c0,0.5-0.1,0.9-0.2,1.3c-1.8,11.5-4,22.9-7,33.8c-0.7,2.6-0.9,5-0.1,7.6c1.3,4.3,2.8,9.5,4.8,15.8
		c1,3,2.3,5.7,3.5,8.8c0.6,2.6,4.4,18.6,7.5,19.9c5.9,2.4,11.4-1.4,15.3-3.3c-13.5-4.8-23.2-17.7-23.2-32.9
		c0-19.3,15.6-34.9,34.9-34.9c19.3,0,34.9,15.6,34.9,34.9c0,15.5-10.7,26.8-21.8,31.9c0,0,9.6,6.9,15.3,4.6c3-1.2,6.8-17.6,7.4-19.8
		l0,0c1.3-3.1,2.6-5.8,3.5-8.8c2.1-6.3,3.5-11.6,4.8-15.8c0.8-2.6,0.6-5-0.1-7.6c-3-11-5.2-22.3-7-33.8c-0.1-0.4-0.1-0.9-0.2-1.3
		c2.1-0.5,4.2-1,6.4-1.5c1.4,7.7,2.9,15.6,4.4,23.4c0.2,0,0.4,0,0.6,0c0.2-0.9,0.5-1.8,0.6-2.7c0.3-7.8,0.6-15.5,0.9-23.3
		c0.1-1.8,0-3.6,0-5.4c0-1.5,0.5-2.4,1.5-2.3c1.1,0,2.3,0.1,3.5,0.2c1,0.1,1.5,0.9,1.5,2.6c0,6.9,0,13.8,0,20.7c0,0.4,0,0.9,0.3,1.6
		c0.9-1.6,1.9-3.2,2.7-4.9c1.3-2.7,2.6-5.5,3.8-8.2c0.5-1.2,1.1-1.5,2-0.8c1.5,1.3,2.9,2.6,4.5,4c-3.4,8.4-6.8,16.6-12.1,22
		c-2.1,2.1-3.3,4.8-4.1,8.3c-1.8,7.6-3.7,15.2-5.7,22.6c-1.9,6.9-9.7,38.5-12.8,44.3v0.5h12.5C767.3,516.4,770.6,519.7,770.7,520.7"
		/>
	<path class="st0" d="M716.1,454.9c-0.9,0.5-2.5,1.1-3.6,2c-0.6,0.5-1,1.8-1,2.6c0.3,2.8,1.8,5.2,3.9,7c1,0.9,2.2,0.9,3.1-0.3
		c1-1.3,2.1-2.6,2.8-4.1C723.8,457.4,720.5,455.5,716.1,454.9z"/>
	<path class="st0" d="M728.6,452.5c2.8,0,4.9-1.9,4.8-4.4c0-2.4-2.5-4.9-4.8-4.9c-2.2,0-4.6,2.5-4.6,4.7
		C724,450.3,726.2,452.5,728.6,452.5z"/>
	<path class="st0" d="M704.8,452.5c2.8,0,4.7-1.8,4.8-4.2c0-2.4-2.3-4.9-4.6-5c-2.2,0-4.7,2.5-4.8,4.7
		C700.1,450.3,702.4,452.5,704.8,452.5z"/>
	<path class="st0" d="M727.5,479.3c2,0,3.6-1.5,3.6-3.3c0-1.7-2-3.8-3.6-3.7c-1.7,0-3.5,2-3.5,3.8
		C724.1,477.9,725.6,479.3,727.5,479.3z"/>
	<path class="st0" d="M720.4,478.2c0-1.5-2-3.6-3.5-3.6c-1.7,0-3.5,2-3.5,3.7c0,1.8,1.6,3.4,3.6,3.4
		C718.6,481.8,720.4,480,720.4,478.2z"/>
	<path class="st0" d="M697.8,472.2c1.8,0,3.6-1.8,3.6-3.6c0-1.5-2-3.5-3.5-3.5c-1.6,0-3.5,1.9-3.6,3.7
		C694.2,470.6,695.8,472.2,697.8,472.2z"/>
	<path class="st0" d="M706.1,479.3c1.8,0,3.6-1.8,3.6-3.6c0-1.5-2-3.5-3.5-3.5c-1.7-0.1-3.5,1.8-3.6,3.7
		C702.6,477.8,704.1,479.3,706.1,479.3z"/>
	<path class="st0" d="M736,472.2c1.8,0,3.5-1.7,3.5-3.5c0-1.6-1.9-3.6-3.5-3.6c-1.7,0-3.5,1.9-3.5,3.7
		C732.4,470.7,734,472.2,736,472.2z"/>
</g>
</svg>
