<?xml version="1.0" encoding="utf-8"?>
<!-- Generator: Adobe Illustrator 25.2.1, SVG Export Plug-In . SVG Version: 6.00 Build 0)  -->
<svg version="1.1" id="Layer_2_1_" xmlns="http://www.w3.org/2000/svg" xmlns:xlink="http://www.w3.org/1999/xlink" x="0px" y="0px"
	 viewBox="0 0 1280 1024" style="enable-background:new 0 0 1280 1024;" xml:space="preserve">
<style type="text/css">
	.st0{fill:none;stroke:#000000;stroke-miterlimit:10;}
	.st1{fill:none;stroke:#ED1C24;stroke-miterlimit:10;}
</style>
<path class="st0" d="M445.8,484.1c-16.2,4.8-120.4,37.7-165.1,141.9c-50.2,116.9,16.5,225.3,25.6,239.6
	c92.2,144.3,350.2,210.9,500,76.8C923,837.9,945.1,637.6,855.1,526.1c-35.3-43.7-81.1-65.5-114-76.8L744.2,9H605.3l-23.1,447.3
	L581.5,8.9H443.6L445.8,484.1z"/>
<line class="st0" x1="476.6" y1="758.3" x2="478.9" y2="849"/>
<line class="st0" x1="516.1" y1="765.3" x2="516.1" y2="853.7"/>
<line class="st0" x1="553.3" y1="765.3" x2="553.3" y2="853.7"/>
<line class="st0" x1="585.2" y1="764.1" x2="587.6" y2="854.8"/>
<path class="st0" d="M648.2,857.2"/>
<path class="st0" d="M648.2,768.8"/>
<line class="st0" x1="625.7" y1="768.8" x2="625.7" y2="857.2"/>
<line class="st0" x1="665.1" y1="768.8" x2="663.7" y2="866.5"/>
<line class="st0" x1="695" y1="764.1" x2="693.6" y2="861.8"/>
<path class="st1" d="M475.8,655.2c20.2,0,35.3-13.7,34.6-31.7c0-17.3-18-35.3-34.6-35.3c-15.9,0-33.1,18-33.1,33.9
	C442.7,639.3,458.5,655.2,475.8,655.2z"/>
<path class="st1" d="M693.6,655.2c20.2,0,35.3-13.7,34.6-31.7c0-17.3-18-35.3-34.6-35.3c-15.9,0-33.1,18-33.1,33.9
	C660.5,639.3,676.3,655.2,693.6,655.2z"/>
</svg>
