<?xml version="1.0" encoding="utf-8"?>
<!-- Generator: Adobe Illustrator 25.2.1, SVG Export Plug-In . SVG Version: 6.00 Build 0)  -->
<svg version="1.1" id="Layer_3" xmlns="http://www.w3.org/2000/svg" xmlns:xlink="http://www.w3.org/1999/xlink" x="0px" y="0px"
	 viewBox="0 0 221.2 166.5" style="enable-background:new 0 0 221.2 166.5;" xml:space="preserve">
<style type="text/css">
	.st0{fill:none;stroke:#ED1C24;stroke-width:7.200000e-02;stroke-miterlimit:10;}
	.st1{fill:none;stroke:#21409A;stroke-width:7.200000e-02;stroke-miterlimit:10;}
</style>

<line class="st0" x1="-1.2" y1="29.1" x2="309" y2="29.1"/>
<line class="st0" x1="-1.4" y1="138.5" x2="309" y2="138.5"/>
<line class="st0" x1="309" y1="138.5" x2="316.9" y2="134.9"/>
<line class="st0" x1="308.2" y1="29" x2="316.5" y2="30.8"/>
<line class="st0" x1="-10" y1="36.4" x2="-10" y2="65.8"/>
<line class="st0" x1="-10" y1="101.8" x2="-10" y2="131.3"/>
<line class="st0" x1="316.5" y1="30.8" x2="316.5" y2="77.8"/>
<line class="st0" x1="316.5" y1="89.8" x2="316.5" y2="135.3"/>
<path class="st1" d="M-10,36.4c4.5-3.9,7.8-7.1,8.9-7.3 M-43.6,47.9c-3.1-1.3-5.8-2.6-8.8-3.5c-6.3-2.1-11.6-3.5-15.8-4.8
	c-2.6-0.8-5-0.6-7.6,0.1c-10.9,3-22.3,5.2-33.8,7c-0.4,0.1-0.9,0.1-1.3,0.2c-0.5-2.1-1-4.2-1.5-6.4c7.7-1.4,15.6-2.9,23.4-4.4
	c0-0.2,0-0.4,0-0.6c-0.9-0.2-1.8-0.5-2.7-0.6c-7.8-0.3-15.5-0.6-23.3-0.9c-1.8-0.1-3.6,0-5.4,0c-1.6,0-2.4-0.5-2.3-1.5
	c0-1.2,0.1-2.3,0.2-3.5c0.1-1,0.9-1.5,2.6-1.5c6.9,0,13.8,0,20.7,0c0.4,0,0.9,0,1.6-0.3c-1.6-0.9-3.2-1.9-4.9-2.7
	c-2.7-1.3-5.5-2.6-8.2-3.8c-1.2-0.5-1.5-1.1-0.8-1.9c1.3-1.4,2.6-2.9,4-4.5c8.4,3.4,16.6,6.8,22,12.1c2.1,2.1,4.8,3.3,8.3,4.1
	c7.6,1.8,15.2,3.7,22.6,5.7c6.9,1.9,38.5,9.7,44.3,12.8"/>
<path class="st1" d="M-10,130.6c4.5,4.2,7.5,7.8,8.6,8 M-44,118.1c-3.1,1.3-5.8,2.6-8.8,3.5c-6.3,2.1-11.6,3.5-15.8,4.8
	c-2.6,0.8-5,0.6-7.6-0.1c-10.9-3-22.3-5.2-33.8-7c-0.4-0.1-0.9-0.1-1.3-0.2c-0.5,2.1-1,4.2-1.5,6.4c7.7,1.4,15.6,2.9,23.4,4.4
	c0,0.2,0,0.4,0,0.6c-0.9,0.2-1.8,0.5-2.7,0.6c-7.8,0.3-15.5,0.6-23.3,0.9c-1.8,0.1-3.6,0-5.4,0c-1.6,0-2.4,0.5-2.3,1.5
	c0,1.2,0.1,2.3,0.2,3.5c0.1,1,0.9,1.5,2.6,1.5c6.9,0,13.8,0,20.7,0c0.4,0,0.9,0,1.6,0.3c-1.6,0.9-3.2,1.9-4.9,2.7
	c-2.7,1.3-5.5,2.6-8.2,3.8c-1.2,0.5-1.5,1.1-0.8,1.9c1.3,1.4,2.6,2.9,4,4.5c8.4-3.4,16.6-6.8,22-12.1c2.1-2.1,4.8-3.3,8.3-4.1
	c7.6-1.8,15.2-3.7,22.6-5.7c6.9-1.9,39.4-7.4,45.2-10.5"/>
<path class="st1" d="M-64.7,84.7c0.5,0.9,1.1,2.4,2,3.6c0.5,0.6,1.8,1,2.6,0.9c2.8-0.3,5.2-1.8,7-3.9c0.9-1.1,0.9-2.2-0.3-3.1
	c-1.3-1-2.6-2.1-4.1-2.8C-62.2,77-64.1,80.4-64.7,84.7z M-67.1,72.2c0-2.8-1.9-4.9-4.4-4.8c-2.4,0-4.9,2.5-4.9,4.8
	c0,2.2,2.5,4.6,4.7,4.6C-69.3,76.8-67.1,74.7-67.1,72.2z M-67.1,96.1c0-2.7-1.8-4.7-4.2-4.8c-2.4,0-4.9,2.3-5,4.6
	c0,2.2,2.5,4.7,4.7,4.8C-69.3,100.7-67.1,98.5-67.1,96.1z M-40.3,73.3c0-2-1.5-3.6-3.3-3.6c-1.7,0-3.8,2-3.7,3.6
	c0.1,1.7,2,3.5,3.8,3.5C-41.7,76.7-40.3,75.2-40.3,73.3z M-41.4,80.4c-1.6,0-3.6,2-3.6,3.5c0,1.7,1.9,3.5,3.7,3.5
	c1.8,0,3.4-1.6,3.4-3.6C-37.8,82.2-39.6,80.5-41.4,80.4z M-47.4,103.1c0-1.8-1.8-3.6-3.6-3.6c-1.5,0-3.4,2.1-3.5,3.5
	c0,1.7,1.9,3.5,3.7,3.6C-49,106.6-47.4,105-47.4,103.1z M-40.3,94.8c0-1.8-1.8-3.6-3.6-3.6c-1.5,0-3.5,2-3.5,3.5
	c-0.1,1.7,1.8,3.5,3.7,3.6C-41.8,98.2-40.3,96.7-40.3,94.8z M-47.4,64.9c0-1.8-1.7-3.5-3.5-3.5c-1.6,0-3.6,1.9-3.6,3.5
	c0,1.7,1.9,3.5,3.7,3.5C-48.9,68.4-47.4,66.9-47.4,64.9z"/>
<path class="st1" d="M-27.4,95.4c-4.8,13.5-17.7,23.2-32.9,23.2c-19.3,0-34.9-15.6-34.9-34.9c0-19.3,15.6-34.9,34.9-34.9
	c15.5,0,26.8,10.7,31.9,21.8"/>
<path class="st1" d="M-28.4,70.7c1.6-5.8,6.9-9.6,4.6-15.3c-1.2-3.1-17.6-6.7-19.8-7.5"/>
<path class="st1" d="M-27.4,95.4c0.1,3.4,5.7,9.4,3.3,15.3c-1.2,3.1-17.3,6.8-19.9,7.5"/>
<line class="st0" x1="316.5" y1="77.8" x2="345.3" y2="77.8"/>
<line class="st0" x1="315.8" y1="89.8" x2="344.6" y2="89.8"/>
<line class="st0" x1="345.3" y1="77.8" x2="345.3" y2="89.8"/>
</svg>
