<svg xmlns="http://www.w3.org/2000/svg" viewBox="0 0 468.69 137.85"><defs><style>.cls-1,.cls-2{fill:none;stroke-miterlimit:10;stroke-width:0.07px;}.cls-1{stroke:#ed1c24;}.cls-2{stroke:#21409a;}</style></defs><g id="Layer_2" data-name="Layer 2"><g id="Layer_7" data-name="Layer 7"><line class="cls-1" x1="122.19" y1="39.71" x2="432.3" y2="39.71"/><line class="cls-1" x1="122.19" y1="27.7" x2="432.3" y2="27.7"/><line class="cls-1" x1="122.19" y1="51.73" x2="432.3" y2="51.73"/><line class="cls-1" x1="115.7" y1="63.74" x2="432.3" y2="63.74"/><line class="cls-1" x1="115.7" y1="75.75" x2="432.3" y2="75.75"/><line class="cls-1" x1="122.19" y1="87.76" x2="432.3" y2="87.76"/><line class="cls-1" x1="122.19" y1="99.77" x2="432.3" y2="99.77"/><line class="cls-1" x1="122.19" y1="111.79" x2="432.3" y2="111.79"/><line class="cls-1" x1="122.19" y1="15.02" x2="432.3" y2="15.02"/><line class="cls-1" x1="121.9" y1="124.47" x2="432.3" y2="124.47"/><line class="cls-1" x1="432.3" y1="124.47" x2="440.22" y2="120.8"/><line class="cls-1" x1="431.51" y1="14.88" x2="439.82" y2="16.71"/><line class="cls-1" x1="113.33" y1="22.3" x2="113.33" y2="51.73"/><line class="cls-1" x1="113.33" y1="87.76" x2="113.33" y2="117.26"/><line class="cls-1" x1="439.82" y1="16.71" x2="439.82" y2="63.74"/><line class="cls-1" x1="439.82" y1="75.75" x2="439.82" y2="121.19"/><path class="cls-2" d="M113.33,22.3c4.53-3.87,7.8-7.11,8.86-7.28M79.72,33.81c-3.1-1.27-5.81-2.57-8.79-3.55-6.3-2.07-11.58-3.53-15.84-4.84a13.2,13.2,0,0,0-7.6.06,316.57,316.57,0,0,1-33.8,7c-.43.07-.88.1-1.35.16-.51-2.13-1-4.21-1.54-6.44l23.42-4.38,0-.61a16.3,16.3,0,0,0-2.74-.58q-11.64-.51-23.31-.93c-1.79-.06-3.59,0-5.39,0-1.56,0-2.37-.52-2.33-1.53s.06-2.31.17-3.46.91-1.5,2.63-1.49c6.9,0,13.79,0,20.68,0A4.11,4.11,0,0,0,25.53,13c-1.63-.92-3.19-1.9-4.92-2.74-2.68-1.32-5.45-2.56-8.22-3.8-1.2-.53-1.5-1.12-.76-1.94C13,3.05,14.23,1.59,15.6,0c8.44,3.39,16.59,6.77,22,12.11a17.08,17.08,0,0,0,8.32,4.13C53.51,18.12,61.09,20,68.54,22c6.94,1.89,38.48,9.68,44.28,12.8"/><path class="cls-2" d="M113.33,116.48c4.45,4.15,7.54,7.82,8.57,8M79.33,104c-3.1,1.27-5.82,2.56-8.79,3.54-6.3,2.08-11.58,3.54-15.84,4.85a13.2,13.2,0,0,1-7.6-.06,314.31,314.31,0,0,0-33.81-7c-.43-.07-.87-.1-1.34-.16-.51,2.13-1,4.2-1.55,6.44L33.83,116l0,.61a17.6,17.6,0,0,1-2.74.58q-11.65.51-23.31.93c-1.79.06-3.6,0-5.39,0-1.56,0-2.37.52-2.33,1.53s.06,2.31.17,3.46.91,1.5,2.63,1.49c6.89,0,13.79,0,20.68,0a3.87,3.87,0,0,1,1.61.27c-1.63.92-3.19,1.9-4.91,2.74-2.68,1.32-5.45,2.56-8.23,3.79-1.19.54-1.5,1.13-.75,1.95,1.31,1.45,2.59,2.9,4,4.46,8.43-3.4,16.59-6.77,22-12.11a17.14,17.14,0,0,1,8.31-4.14c7.58-1.84,15.16-3.68,22.61-5.72,6.94-1.89,39.38-7.37,45.18-10.49"/><path class="cls-2" d="M58.66,70.65a19.88,19.88,0,0,0,2,3.64,3.37,3.37,0,0,0,2.62.94,10.66,10.66,0,0,0,7-3.92A2,2,0,0,0,70,68.18,27.77,27.77,0,0,0,66,65.38C61.17,63,59.2,66.3,58.66,70.65Zm-2.41-12.5c0-2.77-1.86-4.87-4.36-4.84S47,55.82,47,58.1a5.28,5.28,0,0,0,4.71,4.61A4.67,4.67,0,0,0,56.25,58.15Zm0,23.83c0-2.75-1.76-4.73-4.24-4.77a5.26,5.26,0,0,0-5,4.64c-.05,2.2,2.48,4.73,4.74,4.75A4.74,4.74,0,0,0,56.25,82Zm26.8-22.77a3.45,3.45,0,0,0-3.34-3.58c-1.73,0-3.78,2-3.73,3.59a4,4,0,0,0,3.82,3.46A3.37,3.37,0,0,0,83.05,59.21ZM82,66.36a4.21,4.21,0,0,0-3.58,3.54,4,4,0,0,0,3.73,3.53,3.55,3.55,0,0,0,3.4-3.56A3.9,3.9,0,0,0,82,66.36ZM75.92,89a3.86,3.86,0,0,0-3.62-3.58,4.43,4.43,0,0,0-3.48,3.52c0,1.65,1.92,3.54,3.7,3.57A3.43,3.43,0,0,0,75.92,89Zm7.16-8.3a3.79,3.79,0,0,0-3.57-3.6A4.34,4.34,0,0,0,76,80.55c-.07,1.66,1.85,3.54,3.66,3.58A3.38,3.38,0,0,0,83.08,80.7ZM75.92,50.8a3.7,3.7,0,0,0-3.49-3.49,4.15,4.15,0,0,0-3.6,3.49,4,4,0,0,0,3.72,3.5A3.37,3.37,0,0,0,75.92,50.8Z"/><path class="cls-2" d="M95.94,81.31a34.87,34.87,0,1,1-32.88-46.5C78.6,34.81,89.89,45.52,95,56.6"/><path class="cls-2" d="M95,56.6c1.55-5.8,6.93-9.58,4.58-15.34-1.24-3-17.6-6.75-19.82-7.45"/><path class="cls-2" d="M95.94,81.31c.06,3.44,5.66,9.42,3.27,15.28-1.24,3-17.27,6.84-19.88,7.45"/><line class="cls-1" x1="439.82" y1="63.74" x2="468.66" y2="63.74"/><line class="cls-1" x1="439.15" y1="75.75" x2="467.98" y2="75.75"/><line class="cls-1" x1="468.66" y1="63.74" x2="468.66" y2="75.75"/></g></g></svg>