<?xml version="1.0" encoding="utf-8"?>
<!-- Generator: Adobe Illustrator 25.2.1, SVG Export Plug-In . SVG Version: 6.00 Build 0)  -->
<svg version="1.1" id="Layer_1" xmlns="http://www.w3.org/2000/svg" xmlns:xlink="http://www.w3.org/1999/xlink" x="0px" y="0px"
	 viewBox="0 0 1280 1743.7" style="enable-background:new 0 0 1280 1743.7;" xml:space="preserve">
<style type="text/css">
	.st0{fill:none;stroke:#FF0000;stroke-width:0.9921;stroke-linecap:round;stroke-linejoin:round;stroke-miterlimit:10;}
</style>
<path class="st0" d="M415.1,732c-6.4-24.2-0.3-94,24.5-97.1c19-2.4,36.4,47.6,38,66.7c1.5,18.4-7.3,65.5-25.3,69.2
	C439.1,773.6,418.6,745,415.1,732z"/>
<path class="st0" d="M836.2,739.6c6.4-24.2,0.3-94-24.5-97.1c-19-2.4-36.4,47.6-38,66.7c-1.5,18.4,7.3,65.5,25.3,69.2
	C812.2,781.2,832.8,752.6,836.2,739.6z"/>
<polygon class="st0" points="706.1,918.9 696.2,928.8 662.7,929.9 657.7,924 648.6,930.2 659.9,940.4 698.4,940.4 712.8,925.5 "/>
<polygon class="st0" points="638,924.6 627.3,932.8 588,925.8 573.7,913 566.5,919 579.7,932.8 627.3,941.6 642,929.4 "/>
<polyline class="st0" points="773.6,820 1066.5,745.2 1069.6,754.4 773.6,830.7 "/>
<polyline class="st0" points="771,854.6 1072.8,835.9 1074.1,845.5 769,865.1 "/>
<polyline class="st0" points="766.9,896.3 1063.8,953.3 1062.7,962.9 762.3,906 "/>
<polyline class="st0" points="506.2,831.1 213.2,756.2 210.2,765.4 506.2,841.8 "/>
<polyline class="st0" points="508.7,865.6 206.9,846.9 205.6,856.5 510.7,876.2 "/>
<polyline class="st0" points="512.9,907.4 215.9,964.4 217.1,974 517.4,917.1 "/>
<polygon class="st0" points="643.4,861.4 643.4,917.1 645.3,918.7 654.2,914.5 652.7,861.4 "/>
<path class="st0" d="M663.3,823.5h-30.4c-5.5,0-9.1,5.7-6.7,10.7l9.1,18.6l8.1-0.2v3.1l9.1-0.3l-0.1-3l8.8-0.2l8.7-18
	C672.3,829.2,668.7,823.5,663.3,823.5z"/>
<path class="st0" d="M683.1,1471.1l34.3,30.6l54.9,11.2l175.2,4.1l79.9-18.2l72.9-68.2l42.4-38.7l23.5-52.9l12.7-66.1l-19.9-65.6
	l-28.7-43.6l-53-9.4H1005v-9l-46.6-10.3c71-35.4,150.3-87.1,186.7-118.2c47.7-40.7,54.2-173.6,52.1-239.8
	c-2.4-75.7-46.7-143.7-102.7-198.6l64.1-181.1l-209.4,79c-67.2-27.6-153.9-39.4-217.9-50c-78-12.9-301.2,8.3-376.2,34.9
	c-14.5,5.1-30.1,12.9-46.2,22.5l-229-86.4l77.1,217.9c-12.9,14.9-24.2,29.4-33.4,42.9c-42,61.7-58.9,261.1-27.5,330
	c101.4,222.2,530.3,212.4,757.1,184.9l-6.7,18.5l8.7,26.6l-24.9,0.8l-2.7,7.7l3.5,4.3l31.4-2.4l9.3-5.8l13.3,3.4l-1.3,1.8l-17.2,9.1
	l-23.1,8.1l-2.8,4.4l8.4,4.7l19.2-5.3l19.2-12.2l4.2-8.9l26.4,6.7h29.7l-4,4.7l-20.3,10.2v7.5l13.9-2.7l13.4-9.6l7.6-10h14.5v2.5
	l11.2,11.9h-15l-16.5,2.5l-4.1,2.8l9.1,5.6h44.3l8.1-10.6v-14.7l-2.2-20.5l-5.1-9.6l2.2-2.7l8.5-19.1l-2-17h28.1l44.1,2.3l37.4,9
	l20.5,29.9l20.8,63.8l-13.1,62.8l-23.2,45.3l-45.8,48.8l-41.5,37.1l-24.8,17.7l-60.9,16.4l-71.1,5l-46.8-3.1l-63-2.5L728,1486
	l-25.6-24.3l-11.2-5.6"/>
<rect class="st0" width="1280" height="1743.7"/>
</svg>
