<?xml version="1.0" encoding="utf-8"?>
<!-- Generator: Adobe Illustrator 25.2.1, SVG Export Plug-In . SVG Version: 6.00 Build 0)  -->
<svg version="1.1" id="Layer_2_1_" xmlns="http://www.w3.org/2000/svg" xmlns:xlink="http://www.w3.org/1999/xlink" x="0px" y="0px"
	 viewBox="0 0 1176.1 2432.4" style="enable-background:new 0 0 1176.1 2432.4;" xml:space="preserve">
<style type="text/css">
	.st0{fill-opacity:0;stroke:#000000;stroke-width:0.75;}
</style>
<path class="st0" d="M715.8,1276.6l3.1-6l3.8-5.4l5.2-3.9l6.6-0.9"/>
<path class="st0" d="M727.6,1234.3c-5.2-8.8-6.1-19.1-8.4-29l-13.9-40.4"/>
<path class="st0" d="M666.2,1169.1l0.3,0.8l0.8,1.9l1.7,4.6l1.8,5.6l0.9,3.1l1.4,5.1l1,3.6l0.1,0.3"/>
<path class="st0" d="M630.6,1145.7l0.3-0.3l3-2.5l1.9-1.5l6.8-4.5l7.2-3.6l6.9-2.3l6.5-1.2l6-0.2l5.4,0.7l4.8,1.4l3.5,1.6l1.3,0.8
	l1.1,0.8l1.7,1.3l1.7,1.6l1.6,1.8l1.6,2.1l1.6,2.4l1.7,2.7l1.7,3.1l1.1,2.2"/>
<path class="st0" d="M632.1,1216.9l-4.6-1.9l-4.7-1.9l-2.3-1l-4.4-1.9l-4-1.8l-1.8-0.9l-1.7-0.9l-2.7-1.5l-2.1-1.3l-1-0.7l-1.6-1.2
	l-0.7-0.6l-0.5-0.5l-0.4-0.4l-0.2-0.3l-0.2-0.2l-0.1-0.1l-0.1-0.2l0-0.1l0-0.2l0-0.3l0-0.6l0-0.4l0-0.5l0.1-1.1l0.2-1.3l0.3-1.5
	l0.4-1.7l0.6-2.1l0.7-2l0.8-2l0.9-2.1l1.7-3.7l2.4-4.5l2.8-4.7l3.1-4.7l3.3-4.6l3.6-4.5l1.3-1.5"/>
<path class="st0" d="M734.2,1224.6l5.7-19l3.4-19.3l0-0.4l0.1-19.5l-1.3-9.9l-1.4-5.8l-1.6-3.6"/>
<path class="st0" d="M750.8,1352l-10.2-7.8l-9.5-7c-2.3-2.1-3.3-4.3-2.7-7.4l5.4-9.3c2.4-2.1,4.8-2.3,7.1-0.9l6.7,8.5l5.5,14
	l1.5,7.4C754.3,1351.3,753.3,1353.1,750.8,1352z"/>
<path class="st0" d="M648.9,1161.8l0.8-0.6l1.1-0.8l2.2-1.6l2.4-1.5l2.4-1.2l2.3-0.9l2.1-0.7l1.9-0.4l1.7-0.2l1.5-0.1l1.3,0l1,0.1
	l0.8,0.2l0.6,0.2l0.3,0.1l0.1,0.1l0.1,0.1l0.1,0.1l0.2,0.2l0.3,0.3l0.4,0.5l0.5,0.6l0.5,0.8l1.3,2.2l1.5,2.9l1.6,3.7l0,0"/>
<path class="st0" d="M697.4,1323.5l16.9,13l7.8-13.3c2.1-5.7,5.9-16.3-9.8-31.6l-0.9-0.1c-7-0.3-17.7,5.2-27.3,6.7
	c-9.6,1.5-18-1.2-23.4-4.8c-5.4-3.6-7.7-8.3-8.4-14.5c-0.7-6.1,0.1-13.6,2.4-19.5l-22.9-13.2c-24.7-12.1-55.4-18.6-58.7-41.3
	c-3.4-22.7,20.5-61.7,47-81.3c26.5-19.6,55.6-19.9,74.5-8.2c7.1,4.4,12.8,10.5,17.5,17.7c8-5.3,18.8-9.2,29.3-9.9
	c12.8-0.9,25.3,3,34.3,9.1s14.6,14.6,12,28.5c-2.6,13.9-13.3,33.3-22.4,47.8l-14.6,20.5c-9.5,39,7.1,62.5,20,64.2l-2.8,21.2
	l15.5,0.1c6-1,17.1-3,22.5-24.3l-0.4-0.8c-3.2-6.2-13.4-12.7-19.4-20.3c-6-7.6-8-16.2-7.5-22.6c0.5-6.5,3.3-10.8,8.4-14.5
	c4.9-3.6,11.9-6.7,18.1-7.7l0-26.4c-1.9-27.5-11.6-57.3,6.4-71.5c18-14.3,63.7-13.1,94,0.1c30.2,13.1,45,38.2,44.3,60.4
	c-0.3,8.4-2.7,16.3-6.6,24c8.6,4.3,17.4,11.7,23.2,20.4c7.2,10.7,10.1,23.4,9.2,34.3c-0.8,10.9-5.3,19.9-18.7,24.6
	c-13.3,4.7-35.5,5.1-52.5,4.5l-25.1-2.4c-38.5,11.3-50.6,37.4-45.7,49.4l-19.7,8.1l7.6,13.5c3.9,4.7,11.2,13.3,32.3,7.3l0.5-0.8
	c3.7-5.9,4.3-17.9,7.9-27c3.5-9,10-15,15.8-17.8c5.8-2.8,11-2.5,16.8,0c5.6,2.4,11.8,6.9,15.7,11.8l22.8-13.2
	c22.9-15.4,43.8-38.7,65.2-30.2c21.4,8.5,43.2,48.7,46.9,81.4c3.7,32.8-10.6,58.1-30.1,68.6c-7.4,4-15.5,5.8-24.1,6.3
	c0.6,9.6-1.4,20.9-6,30.3c-5.7,11.6-15.2,20.4-25.1,25.1c-9.8,4.7-19.9,5.3-30.7-3.9c-10.8-9.2-22.2-28.2-30.2-43.2l-10.5-22.9
	c-29.1-27.7-57.7-25.1-65.6-14.8l-16.9-13l-7.8,13.3c-2.1,5.7-5.9,16.3,9.8,31.6l0.9,0.1c7,0.3,17.7-5.2,27.3-6.7
	c9.6-1.5,18,1.2,23.4,4.8c5.4,3.6,7.7,8.3,8.4,14.5c0.7,6.1-0.1,13.6-2.4,19.5l22.9,13.2c24.7,12.1,55.4,18.6,58.7,41.3
	c3.4,22.7-20.5,61.7-47,81.3c-26.5,19.6-55.6,19.9-74.5,8.2c-7.1-4.4-12.8-10.5-17.5-17.7c-8,5.3-18.8,9.2-29.3,9.9
	c-12.8,0.9-25.3-3-34.3-9.1c-9-6.1-14.6-14.6-12-28.5c2.6-13.9,13.3-33.3,22.4-47.8l14.6-20.5c9.5-39-7.1-62.5-20-64.2l2.8-21.2
	l-15.5-0.1c-6,1-17.1,3-22.5,24.3l0.4,0.8c3.2,6.2,13.4,12.7,19.4,20.3c6,7.6,8,16.2,7.5,22.6c-0.5,6.5-3.3,10.8-8.4,14.5
	c-4.9,3.6-11.9,6.7-18.1,7.7l0,26.4c1.9,27.5,11.6,57.3-6.4,71.5c-18,14.3-63.7,13.1-94-0.1c-30.2-13.1-45-38.2-44.3-60.4
	c0.3-8.4,2.7-16.3,6.6-24c-8.6-4.3-17.4-11.7-23.2-20.4c-7.2-10.7-10.1-23.4-9.2-34.3c0.8-10.9,5.3-19.9,18.7-24.6
	c13.3-4.7,35.5-5.1,52.5-4.5l25.1,2.4c38.5-11.3,50.6-37.4,45.7-49.4l15-6.1l4.8-2l-7.6-13.5c-3.9-4.7-11.2-13.3-32.3-7.3l-0.5,0.8
	c-3.7,5.9-4.3,17.9-7.9,27c-3.5,9-10,15-15.8,17.8c-5.8,2.8-11,2.5-16.8,0c-5.6-2.4-11.8-6.9-15.7-11.8l-22.8,13.2
	c-22.9,15.4-43.8,38.7-65.2,30.2c-21.4-8.5-43.2-48.7-46.9-81.4c-3.7-32.8,10.6-58.1,30.1-68.6c7.4-4,15.5-5.8,24.1-6.3
	c-0.6-9.6,1.4-20.9,6-30.3c5.7-11.6,15.2-20.4,25.1-25.1c9.8-4.7,19.9-5.3,30.7,3.9c10.8,9.2,22.2,28.2,30.2,43.2l10.5,22.9
	C660.8,1336.4,689.5,1333.7,697.4,1323.5z"/>
<path class="st0" d="M681.6,1176.2l0.7,2.3l0.6,1.9l1.5,5.3l0.7,2.7l0.8,3.2l2.1,8.6l1,4.7l0.7,3.6l0.5,3l0.7,4.8l0.4,3.8l0.2,2.4
	l-2.2-1.4l-6.8-4.3l-6.6-4.1l-9.1-5.4l-8.4-4.6"/>
<path class="st0" d="M671.7,1196l-6.1-3.3l-4.3-2.2l-2.3-1.1l-2.5-1.2l-3.5-1.6l-3.3-1.5"/>
<path class="st0" d="M693,1237.3l-2.2-1.2l-3.2-2l-2.6-1.6l-3.5-2.2l-7-4.4l-2.4-1.5l-6.9-4.2l-5.8-3.3l-6.8-3.6l-3.6-1.8l-2.9-1.4
	l-7.2-3.2l-4.6-2l-7.1-3l-6.2-2.7l-2.8-1.3l-1-0.4"/>
<path class="st0" d="M613.9,1188.7l0.5-1.3l1.4-3l1.9-3.5l2.2-3.6l2.4-3.7l2.6-3.6l2.8-3.6l2.9-3.4l3-3.2l3-3l2.9-2.6l2.3-1.9
	l1.4-1.1l4.4-3l5-2.7l4.8-2l4.5-1.2l4.1-0.5l3.6,0l3.1,0.4l0.2,0"/>
<path class="st0" d="M681.1,1147.2l0.2,0.2l1,1.2l1.1,1.5l1.1,1.8l1.2,2.1l1.2,2.3l1.2,2.5l1.3,3.1l2.3,6.1l2.2,6.8l0.8,2.6l1.1,3.8
	l1,3.6l0.5,1.9l1.3,4.9l1.6,6.5l1.4,6.5l0.7,3.6l1,6.8l0.3,2.3l0.3,3.2l0.2,2.9l0,1.4l0,2.5l-0.1,2.3l-0.2,2l-0.2,1.8"/>
<path class="st0" d="M663.7,1247.5l-3.3-2.1l-10.9-6.5l-7.4-4l-3.4-1.7l-1.9-0.9l-7.8-3.5l-9.3-3.9l-7.2-3l-6.6-3l-5.8-3l-2.5-1.5
	l-1.2-0.8l-0.9-0.7l-2-1.5l-1.7-1.5l-1.4-1.5l-1.1-1.5l-0.9-1.4l-0.7-1.5l-0.5-1.6l-0.3-1.8l-0.1-2.2l0.1-2.6l0.4-2.9l0.7-3.2l1.1-4
	l1.3-3.6l1.6-3.8l3.9-7.8l4.7-7.9l5.5-7.8l6.1-7.5l6.5-6.9l6.7-6.1l3.4-2.7l6.1-4.2l6.7-3.7l6.6-2.8l6.5-1.9l6.3-1.1l6.1-0.4
	l5.8,0.3l5.5,0.9l5.1,1.5l4.6,2.1l2.1,1.2l1,0.7l3.8,2.9l3.5,3.5l3.3,4.1l3,4.4"/>
<path class="st0" d="M648.4,1179.2l1.7-1.9l2-2.1l1.9-1.8l1.7-1.5l1.2-1l0.7-0.6l0.7-0.5l1.1-0.8l2.3-1.4l0.2-0.1"/>
<path class="st0" d="M769.2,1389.8l-0.5-17.3l-4.4-17.2l-3-10.2l3.2-6.3l6.1,0.1l3.8,8.8l0.4,16.1l-1.9,19.4
	C771.8,1388.6,769.8,1392,769.2,1389.8z"/>
<path class="st0" d="M648.5,1197.8l-4.2-1.9l-8.1-3.4l-3.9-1.6l-1.8-0.7l-3.3-1.4l1.5-2.8l2.6-4.2l3-4.3l3.2-4.2l3.4-3.9l0.5-0.5"/>
<path class="st0" d="M726.8,1299.4l3.4-7.9l4.1-7.5l6.2-5.8l8.6-1.4"/>
<path class="st0" d="M706.5,1258.2c5-8.7,10.5-10.2,15-9.9"/>
</svg>
