<?xml version="1.0" encoding="utf-8"?>
<!-- Generator: Adobe Illustrator 25.2.1, SVG Export Plug-In . SVG Version: 6.00 Build 0)  -->
<svg version="1.1" id="Layer_1" xmlns="http://www.w3.org/2000/svg" xmlns:xlink="http://www.w3.org/1999/xlink" x="0px" y="0px"
	 viewBox="0 0 282 388.5" style="enable-background:new 0 0 282 388.5;" xml:space="preserve">
<style type="text/css">
	.st0{fill:none;stroke:#000000;stroke-width:0.75;}
</style>
<path class="st0" d="M85.3,262.5c52,4.7,103.4,5.1,114.2-0.7c23.3-12.4,45.7-43.3,37.1-91.9c-6.8-38.3-17.6-45.8-28.5-60.8
	c-29.3-40.2-35.7-63.2-37.9-59.3c-2.2,3.8,4.1,39.8-25.9,56.3C123,117.8,111,151.2,111,151.2s2.2-24-12.2-34.9S78.3,87.4,78.3,87.4
	s5.5,36.7-27.1,70.4c-14.2,14.6-8.8,49.6-0.8,71.1S75.6,261.6,85.3,262.5z"/>
<path class="st0" d="M111.6,164.5c0,0-9.8-18.6-17.1-24.8c-7.3-6.2-5.1-14.6-6.8-19.1c0,0-8.4,32.7-14.6,37.2
	c-6.2,4.5-15.5,21.1-15.8,32.1c-0.3,11,7.3,43.9,13.8,48.1c6.5,4.2,35.4,25.2,50.4-1.8"/>
<path class="st0" d="M118.2,163.9c0,0,10.7-28.4,19.7-32.4c9-3.9,25.3-14.4,32.7-25.3s5.3-23.4,5.3-23.4s16.6,38.3,28.4,46.7
	c11.8,8.4,21.1,41.7,20.8,51c-0.3,9.3-4.8,40.1-13.8,49.7c-9,9.7-19.4,19.8-29.3,21.2c-9.9,1.4-49.1,0-54.7-5.2"/>
<path class="st0" d="M121.6,188.5c0,0,15.2-18.7,22.8-25.2s13.8-8.4,22.5-15.2s9.3-13.5,9.3-13.5s3.4,15.2,11.3,24.2
	c7.9,9,12.1,29.8,7.3,38.6s-8.4,21.7-17.2,26.5c-28.3,15.4-52.5-9.5-52.5-9.5"/>
<path class="st0" d="M113.3,189.2c-1.4-1.7-25-9.5-25.5-14c-0.6-4.5,0-7.7,0-7.7s-4.5,17.2-5.1,21.7c-0.6,4.6-0.8,20.3,2.3,23.1
	c3.1,2.8,8.4,8.2,11.5,6.5c0,0,19.1,3.3,23.4-9.7"/>
<path class="st0" d="M117.4,200.5c0,0-6.8,5.4-15,2.3s-13.5-11.6-13.9-17.6"/>
<path class="st0" d="M123.6,200.7c0,0,22.1,6.4,28.2,1.7c6-4.7,21-9.9,22.9-20.6"/>
</svg>
