<?xml version="1.0" encoding="utf-8"?>
<!-- Generator: Adobe Illustrator 25.2.1, SVG Export Plug-In . SVG Version: 6.00 Build 0)  -->
<svg version="1.1" id="Layer_1" xmlns="http://www.w3.org/2000/svg" xmlns:xlink="http://www.w3.org/1999/xlink" x="0px" y="0px"
	 viewBox="0 0 1280 1743.7" style="enable-background:new 0 0 1280 1743.7;" xml:space="preserve">
<style type="text/css">
	.st0{fill:none;stroke:#FF0000;stroke-width:0.9921;stroke-linecap:round;stroke-linejoin:round;stroke-miterlimit:10;}
</style>
<path class="st0" d="M1039.3,1025.8c2.1-58.5-53.5-56.7-48-97.9c4.9-36.2,58.8-21.5,58.8-88.4c0-62.3-78.5-52.3-77.8-79.6
	c0.7-26.9,78.6-17.6,72.4-90.4c-5.4-63.3-98.5-50.9-100.8-72.5c-2.2-20.1,82.8-19.2,75.5-79.5c-7.2-59.7-87.7-39-94.1-36.2
	c-241.1,104.6-287.8,72.8-419.7,54.3c-43.1-39.1-38.9-106.8-43.4-132.1c-3.8-21.3,4.8-54.1-7.2-90.4c-6.9-20.7-33-52.2-43.4-65.1
	c-30.5-37.8-97.7-8-83.2,16.3c45.2,76,30.3,80.6,45.2,142.9c29.8,124.6-57.6,214.2,0,387.1c30.8,92.3-25.3,296.7,66.9,327.4
	c69,31.2,227.7-68.4,517.4-34.4C980,1089.9,1036.4,1105.4,1039.3,1025.8z"/>
<path class="st0" d="M1142.4,237.1"/>
<line class="st0" x1="453.2" y1="586.2" x2="402.5" y2="671.2"/>
<line class="st0" x1="502" y1="586.2" x2="409.7" y2="707.4"/>
<line class="st0" x1="597.9" y1="586.2" x2="427.8" y2="770.7"/>
<line class="st0" x1="640" y1="628.7" x2="427.8" y2="893.7"/>
<path class="st0" d="M670.2,695.6c7.2-4.5-226.1,256-226.1,256"/>
<line class="st0" x1="699.2" y1="785.2" x2="444.1" y2="1067.4"/>
<line class="st0" x1="704.3" y1="914.2" x2="520.1" y2="1085.5"/>
<line class="st0" x1="698.5" y1="982.4" x2="612.2" y2="1067.4"/>
<line class="st0" x1="688.2" y1="864.8" x2="485.7" y2="1067.4"/>
<line class="st0" x1="688.2" y1="730.9" x2="435.1" y2="1024.9"/>
<line class="st0" x1="640" y1="586.2" x2="427.8" y2="814.1"/>
<path class="st0" d="M791.4,647.7c-47.6,9.9-83.3-5.1-86.8-21.7c-3.2-15.2,18.9-38.8,54.3-52.5L791.4,647.7z"/>
<path class="st0" d="M813.1,745.4c-58.6-4.5-72-11-72.4-16.3c-0.4-4.9,10.3-12.4,56.1-23.5L813.1,745.4z"/>
<path class="st0" d="M825.8,877.4c-49.8-10.3-84.1-25.7-83.2-38c0.9-11.7,33.7-21.2,76-25.3L825.8,877.4z"/>
<path class="st0" d="M840.3,1063.8c-53.6,4.7-90.7-33.9-88.6-63.3c1.8-25.7,33.9-54,77.8-54.3L840.3,1063.8z"/>
<polygon class="st0" points="813.1,662.4 926.7,612.2 941.6,623 818.1,678.5 "/>
<polygon class="st0" points="825.8,761.2 941.6,750.7 941.6,770.7 825.8,777 "/>
<polygon class="st0" points="834.8,901.2 963.8,914.2 963.8,926.3 840.3,926.3 "/>
</svg>
