<?xml version="1.0" encoding="utf-8"?>
<!-- Generator: Adobe Illustrator 25.2.1, SVG Export Plug-In . SVG Version: 6.00 Build 0)  -->
<svg version="1.1" id="Layer_1" xmlns="http://www.w3.org/2000/svg" xmlns:xlink="http://www.w3.org/1999/xlink" x="0px" y="0px"
	 viewBox="0 0 282 388.5" style="enable-background:new 0 0 282 388.5;" xml:space="preserve">
<style type="text/css">
	.st0{fill:none;stroke:#FF0000;stroke-width:0.9921;stroke-linecap:round;stroke-linejoin:round;stroke-miterlimit:10;}
</style>
<path class="st0" d="M109.8,353.5c-29.4-2.9-58.1-2.7-58.4-7.1c-0.3-4.5,29.6-5.6,33.4-19.9c2.2-8.3-6.5-12.9-12.8-27
	c-13.2-29.5,3.7-57.8-5.1-62.3c-7.9-4-20.4,19.4-37.2,16.1c-10.4-2-19.4-13.7-17.3-20.5c1.4-4.9,8.1-6.3,23.8-10.3
	c43.8-11,46.5-13.3,46.9-15.4c1.3-7.5-28.6-9.1-46.9-31.5C13.4,148,22.9,106.5,25.1,97.3C27.9,85,38.6,48,74.5,26.6
	c42.9-25.6,88.8-9.1,105.3-3.2c17.3,6.2,47.7,17.1,64.2,47.5c18,33.2,7.8,67.8,0,94.4c-4.7,15.9-9.6,32.5-24.4,41.7
	c-5.9,3.7-12.5,5.7-12.2,8.3c0.6,4.5,19.8,1.5,39.8,12.8c4.8,2.7,18.4,10.4,17.3,18.6c-0.8,6.4-10.3,11.5-18.6,12.2
	c-18.9,1.6-33.8-19.3-36-17.3c-2.2,2,18.9,18.3,19.3,39.8c0.4,22.7-22.7,35.4-16.7,46.2c3.2,5.7,10.2,3.4,27.6,15.4
	c9,6.2,10.7,9.3,10.3,11.6c-0.7,3.9-7.4,5.7-10.3,6.4C212.6,368.3,145.1,357,109.8,353.5z"/>
<path class="st0" d="M88.2,100.4c-10.2,0.2-21-6.7-22.9-17.4c-2.2-12.2,8.2-24.2,20.5-25.4c13.1-1.4,26,9.6,25.4,22.3
	C110.7,91.4,99.5,100.2,88.2,100.4z"/>
<path class="st0" d="M185.8,100.4c-10.2,0.2-21-6.7-22.9-17.4c-2.2-12.2,8.2-24.2,20.5-25.4c13.1-1.4,26,9.6,25.4,22.3
	C208.3,91.4,197.1,100.2,185.8,100.4z"/>
<path class="st0" d="M123.4,176.4c5.8-0.6,14.1-0.8,23.8,0.9c21.2,3.8,41.7,15.9,40.3,21.1c-1.3,4.8-21.3,3.9-38.5,3.1
	c-9-0.4-16.5-1.3-21.6-1.9"/>
<path class="st0" d="M121.1,121.1c1.1-1.3,6.3-7.3,15-7.9c10.8-0.8,17.7,7.4,18.5,8.3"/>
<path class="st0" d="M154.6,140.5c-1.1,1.3-6.2,7.4-14.9,8.2c-10.8,1-17.9-7-18.6-7.9"/>
<path class="st0" d="M109.8,156.5c-1.9-1.8-10.6-10.8-10.5-24.4c0.1-17,13.7-26.8,15.2-27.8"/>
<path class="st0" d="M167.1,106.8c1.9,1.8,10.8,10.6,11.1,24.2c0.3,17-13.1,27-14.6,28.1"/>
<path class="st0" d="M78,225.1"/>
<path class="st0" d="M91.6,240.1"/>
<line class="st0" x1="123.4" y1="284.1" x2="170.9" y2="284.1"/>
<path class="st0" d="M98.7,283.3c0.4,3.3,2.3,17.2,14.3,27.4c8.1,6.8,16.7,8.6,20.7,9.2"/>
<path class="st0" d="M200.5,284.3c0.1,1.5,1.6,19.6-12.4,30.9c-9,7.2-19.1,7.4-22.3,7.3"/>
<path class="st0" d="M132,250.9c-1.1-1.1-6.5-6.6-6.4-14.9c0-10.4,8.4-16.4,9.3-17"/>
<path class="st0" d="M162.6,221.5c1.2,1.1,6.6,6.5,6.8,14.9c0.2,10.5-8,16.6-9,17.3"/>
</svg>
