<?xml version="1.0" encoding="utf-8"?>
<!-- Generator: Adobe Illustrator 25.2.1, SVG Export Plug-In . SVG Version: 6.00 Build 0)  -->
<svg version="1.1" id="Layer_1" xmlns="http://www.w3.org/2000/svg" xmlns:xlink="http://www.w3.org/1999/xlink" x="0px" y="0px"
	 viewBox="0 0 496.1 496.1" style="enable-background:new 0 0 496.1 496.1;" xml:space="preserve">
<style type="text/css">
	.st0{fill:none;stroke:#EB1C24;stroke-width:7.000000e-02;stroke-miterlimit:10;}
</style>
<path class="st0" d="M257.7,300.5c1.5,0.8,3,1.6,4.5,2.4l1,0.5c-0.5-2.6-0.9-5.1-1.4-7.6c-0.5-2.8-1-5.7-1.5-8.5
	c-0.1-0.5,0-1,0.3-1.4c3.8-3.7,7.7-7.4,11.5-11.1c0.2-0.1,0.3-0.2,0.5-0.3v-0.2c-5.5-0.8-11.1-1.5-16.6-2.3c-0.4-0.1-0.8-0.5-1-0.9
	c-2.2-4.5-4.4-9.1-6.6-13.6c-0.2-0.3-0.3-0.6-0.6-1.1c-0.2,0.4-0.4,0.7-0.5,1c-2.2,4.5-4.4,9-6.5,13.5c-0.3,0.7-1,1.2-1.7,1.3
	c-5.4,0.7-10.7,1.5-16.1,2.2v0.2c0.3,0.1,0.5,0.3,0.7,0.5c3.7,3.5,7.4,7.1,11.1,10.7c0.5,0.4,0.7,1.1,0.5,1.7
	c-0.9,5.1-1.9,10.3-2.8,15.5c0,0.2,0,0.4,0,0.6l2.8-1.5l2.7-1.5"/>
<path class="st0" d="M255.1,454.9c108.7-3.6,196.1-90.8,199.9-199.5"/>
<path class="st0" d="M41.2,255.4C45,364.1,132.3,451.2,241,454.9"/>
<path class="st0" d="M241.1,41.1c-109,3.6-196.4,91.2-199.9,200.2"/>
<path class="st0" d="M455,241.3c-3.5-109-90.9-196.6-199.9-200.2"/>
<path class="st0" d="M96.7,408.7c85.1,80.1,217.8,80.1,302.8,0"/>
<path class="st0" d="M87.5,96.6C7.7,181.4,7.3,313.5,86.7,398.7"/>
<path class="st0" d="M409.4,398.7c83.4-88.9,78.9-228.6-10-312c-84.9-79.7-217.1-79.7-302,0"/>
<path class="st0" d="M255.1,481.8c123.6-3.6,223.1-102.8,227.2-226.3"/>
<path class="st0" d="M13.8,255C17.7,378.7,117.2,478.1,241,481.8"/>
<path class="st0" d="M241.1,13.2C116.8,16.9,17,117,13.8,241.3"/>
<path class="st0" d="M482.4,241.3C479.1,117,379.3,16.9,255,13.2"/>
<path class="st0" d="M72.7,72.7c92.9-93.2,252.7-98.1,350.8,0c97.6,97.6,93.7,256.8,0,350.8c-87.7,88-230.4,95-325.3,22.3
	C-16,358.2-31.8,177.6,72.7,72.7z"/>
<path class="st0" d="M106.6,379.5c-69-74.1-69-188.9,0-263"/>
<path class="st0" d="M379.6,389.5c-74.1,69-188.9,69-263,0"/>
<path class="st0" d="M389.5,116.5c69,74.1,69,188.9,0,263"/>
<path class="st0" d="M116.6,106.5c74.1-69,189-69,263,0"/>
<path class="st0" d="M427.4,241c-3.6-93.6-78.6-168.7-172.2-172.3"/>
<path class="st0" d="M255.1,427.3c93.6-3.6,168.6-78.7,172.2-172.3"/>
<path class="st0" d="M68.8,255c3.6,93.6,78.7,168.6,172.2,172.3"/>
<path class="st0" d="M241.1,68.7C147.5,72.3,72.4,147.4,68.8,241"/>
<path class="st0" d="M126.2,360c-58.3-63.3-58.3-160.7,0-224"/>
<path class="st0" d="M360.1,369.9c-63.3,58.3-160.7,58.3-224,0"/>
<path class="st0" d="M370,136c58.3,63.3,58.3,160.7,0,224"/>
<path class="st0" d="M136.1,126.1c63.3-58.3,160.7-58.3,224,0"/>
<path class="st0" d="M399.7,241c-3.6-78.4-66.3-141.1-144.6-144.7"/>
<path class="st0" d="M255.1,399.6c78.3-3.6,141-66.3,144.6-144.6"/>
<path class="st0" d="M96.4,255c3.6,78.3,66.3,141.1,144.6,144.6"/>
<path class="st0" d="M241.1,96.3C162.7,99.9,100,162.6,96.4,241"/>
<path class="st0" d="M145.8,340.6c-47.6-52.5-47.6-132.5-0.1-185"/>
<path class="st0" d="M340.5,350.4c-52.5,47.5-132.4,47.5-184.9,0"/>
<path class="st0" d="M350.4,155.4c47.6,52.5,47.6,132.5,0.1,185"/>
<path class="st0" d="M372.1,241c-3.6-63.1-53.9-113.4-117-117"/>
<path class="st0" d="M255.1,372c63.1-3.6,113.4-53.9,117-117"/>
<path class="st0" d="M124.1,255c3.6,63.1,53.9,113.4,117,117"/>
<path class="st0" d="M241.1,124c-63.1,3.6-113.4,53.9-117,117"/>
<path class="st0" d="M165.2,320.9c-36.8-41.7-36.8-104.2,0-145.9"/>
<path class="st0" d="M321,330.9c-41.7,36.8-104.2,36.8-145.9,0"/>
<path class="st0" d="M330.9,175.1c36.8,41.7,36.8,104.2,0,145.9"/>
<path class="st0" d="M175.1,165.1c41.7-36.8,104.2-36.8,145.9,0"/>
<path class="st0" d="M344.5,241c-3.5-47.8-41.5-85.9-89.4-89.4"/>
<path class="st0" d="M255.1,344.4c47.8-3.5,85.9-41.5,89.4-89.4"/>
<path class="st0" d="M151.7,255c3.5,47.8,41.5,85.9,89.4,89.4"/>
<path class="st0" d="M241.1,151.6c-47.8,3.5-85.9,41.5-89.4,89.4"/>
<path class="st0" d="M184.8,301.4c-26-30.8-26-75.9,0-106.7"/>
<path class="st0" d="M301.4,311.3c-30.8,26-75.9,26-106.7,0"/>
<path class="st0" d="M311.4,194.6c26,30.8,26,75.9,0,106.7"/>
<path class="st0" d="M194.7,184.7c30.8-26,75.9-26,106.7,0"/>
<path class="st0" d="M155.6,145.4c52.5-47.5,132.4-47.5,184.9,0"/>
<path class="st0" d="M238.2,316.5c-37.7-5.4-63.9-40.3-58.5-78s40.3-63.9,78-58.5s63.9,40.3,58.5,78c-4.3,30.3-28.2,54.2-58.5,58.5"
	/>
<line class="st0" x1="238.2" y1="300.5" x2="238.2" y2="316.5"/>
<line class="st0" x1="257.7" y1="300.5" x2="257.7" y2="316.5"/>
</svg>
