####
#
# OBJ File Generated by Meshlab
#
####
# Object test.obj
#
# Vertices: 180
# Faces: 230
#
####
vn 0.000000 0.000000 6.283186
v -5.515280 8.023252 0.000000
vn 0.000000 0.000000 1.575580
v -8.848489 8.569829 0.000000
vn 0.000000 0.000000 3.141592
v -8.846877 7.520686 0.000000
vn 0.000000 0.000000 1.567733
v -8.843800 5.517777 0.000000
vn 0.000000 0.000000 3.141591
v 3.537601 5.574691 0.000000
vn 0.000000 0.000000 3.141593
v 11.187256 5.609856 0.000000
vn 0.000000 0.000000 3.141591
v 16.234449 5.633056 0.000000
vn 0.000000 0.000000 3.141593
v 18.758047 5.644657 0.000000
vn 0.000000 0.000000 1.623287
v 21.439369 5.656982 0.000000
vn 0.000000 0.000000 3.141595
v 21.474253 6.384763 0.000000
vn 0.000000 0.000000 1.516580
v 21.588209 8.762179 0.000000
vn 0.000000 0.000000 3.141594
v 19.289604 8.747652 0.000000
vn 0.000000 0.000000 3.141592
v 2.050068 8.638704 0.000000
vn 0.000000 0.000000 3.141591
v -1.080789 8.618919 0.000000
vn 0.000000 0.000000 3.141592
v -3.617182 8.602890 0.000000
vn 0.000000 0.000000 4.850197
v -7.859573 7.289597 0.000000
vn 0.000000 0.000000 3.141592
v -0.654701 7.376060 0.000000
vn 0.000000 0.000000 3.141592
v 4.808334 7.441621 0.000000
vn 0.000000 0.000000 4.765389
v 20.009825 7.624051 0.000000
vn 0.000000 0.000000 4.674896
v 19.980658 6.913059 0.000000
vn 0.000000 0.000000 3.141592
v 12.794214 6.938263 0.000000
vn 0.000000 0.000000 4.559073
v -7.817454 7.010551 0.000000
vn 0.000000 0.000000 3.141593
v -8.845264 6.471543 0.000000
vn 0.000000 0.000000 3.141594
v -5.058403 5.535178 0.000000
vn 0.000000 0.000000 3.141591
v -3.789887 6.996426 0.000000
vn 0.000000 0.000000 3.141593
v 3.791416 6.969837 0.000000
vn 0.000000 0.000000 3.141594
v 4.365655 5.578499 0.000000
vn 0.000000 0.000000 6.283185
v 5.551151 6.198028 0.000000
vn 0.000000 0.000000 3.141593
v -7.067829 7.299098 0.000000
vn 0.000000 0.000000 3.141594
v -4.811357 7.326178 0.000000
vn 0.000000 0.000000 3.141593
v 19.507240 5.648101 0.000000
vn 0.000000 0.000000 3.141593
v 16.940239 6.923721 0.000000
vn 0.000000 0.000000 3.141592
v 10.927439 8.694807 0.000000
vn 0.000000 0.000000 6.283185
v 10.856777 8.162413 0.000000
vn 0.000000 0.000000 3.141593
v 13.107149 8.708581 0.000000
vn 0.000000 0.000000 6.283185
v 20.758528 6.826280 0.000000
vn 0.000000 0.000000 6.283185
v -4.006438 8.014744 0.000000
vn 0.000000 0.000000 6.283185
v -1.475597 6.366444 0.000000
vn 0.000000 0.000000 6.283185
v -1.004425 8.005702 0.000000
vn 0.000000 0.000000 6.283185
v -2.658257 6.270637 0.000000
vn 0.000000 0.000000 6.283185
v 0.143975 6.368582 0.000000
vn 0.000000 0.000000 6.283185
v 3.671978 6.267688 0.000000
vn 0.000000 0.000000 6.283185
v 4.743893 6.200782 0.000000
vn 0.000000 0.000000 6.283185
v -7.907339 7.938540 0.000000
vn 0.000000 0.000000 3.141595
v -0.129643 8.624928 0.000000
vn 0.000000 0.000000 6.283185
v 6.633815 7.910007 0.000000
vn 0.000000 0.000000 6.283185
v 16.100365 6.163158 0.000000
vn 0.000000 0.000000 3.141592
v 16.842846 7.586045 0.000000
vn 0.000000 0.000000 6.283185
v 20.168327 8.279537 0.000000
vn 0.000000 0.000000 6.283185
v 3.087679 8.117090 0.000000
vn 0.000000 0.000000 6.283185
v 4.395020 8.056002 0.000000
vn 0.000000 0.000000 6.283185
v 5.731670 8.033459 0.000000
vn 0.000000 0.000000 6.283185
v 9.914088 6.309224 0.000000
vn 0.000000 0.000000 6.283185
v 17.980755 6.295873 0.000000
vn 0.000000 0.000000 3.141594
v -8.844385 5.899284 0.000000
vn 0.000000 0.000000 6.283185
v -7.930306 6.024894 0.000000
vn 0.000000 0.000000 3.141591
v -4.585229 5.537353 0.000000
vn 0.000000 0.000000 3.141592
v -5.250867 7.001550 0.000000
vn 0.000000 0.000000 3.141594
v -4.500634 6.998918 0.000000
vn 0.000000 0.000000 3.141591
v -3.584155 7.340905 0.000000
vn 0.000000 0.000000 3.141593
v -6.470622 8.584856 0.000000
vn 0.000000 0.000000 3.141592
v -7.738817 8.576842 0.000000
vn 0.000000 0.000000 6.283185
v -6.709488 7.886875 0.000000
vn 0.000000 0.000000 3.141594
v -5.440212 8.591368 0.000000
vn 0.000000 0.000000 3.141593
v -2.634061 7.352307 0.000000
vn 0.000000 0.000000 3.141593
v 0.821504 8.630939 0.000000
vn 0.000000 0.000000 3.141595
v -2.547141 8.609652 0.000000
vn 0.000000 0.000000 3.141592
v -1.714887 8.614912 0.000000
vn 0.000000 0.000000 3.141593
v 6.211336 8.665003 0.000000
vn 0.000000 0.000000 3.141593
v 7.599015 5.593361 0.000000
vn 0.000000 0.000000 6.283185
v 6.638657 6.197031 0.000000
vn 0.000000 0.000000 3.141592
v 6.692097 5.589192 0.000000
vn 0.000000 0.000000 3.141594
v 10.043751 5.604600 0.000000
vn 0.000000 0.000000 3.141593
v 9.215694 5.600793 0.000000
vn 0.000000 0.000000 3.141591
v 7.976927 6.955158 0.000000
vn 0.000000 0.000000 6.283185
v 8.907222 6.380094 0.000000
vn 0.000000 0.000000 3.141593
v 10.504028 6.946295 0.000000
vn 0.000000 0.000000 3.141592
v 15.366962 5.629068 0.000000
vn 0.000000 0.000000 3.141593
v 20.650745 5.653357 0.000000
vn 0.000000 0.000000 3.141593
v 18.048285 5.641395 0.000000
vn 0.000000 0.000000 3.141593
v 9.004580 7.491980 0.000000
vn 0.000000 0.000000 3.141593
v 5.844686 6.962636 0.000000
vn 0.000000 0.000000 3.141593
v 8.747727 8.681031 0.000000
vn 0.000000 0.000000 3.141593
v 7.400269 8.672516 0.000000
vn 0.000000 0.000000 3.141593
v 9.698874 8.687042 0.000000
vn 0.000000 0.000000 3.141592
v 15.180183 7.566091 0.000000
vn 0.000000 0.000000 6.283185
v 20.669182 7.960214 0.000000
vn 0.000000 0.000000 3.141592
v 21.532394 7.597731 0.000000
vn 0.000000 0.000000 6.283185
v -2.369766 7.805699 0.000000
vn 0.000000 0.000000 3.141592
v 2.116404 7.409316 0.000000
vn 0.000000 0.000000 3.141593
v 6.550172 7.462525 0.000000
vn 0.000000 0.000000 6.283185
v -3.156514 8.027714 0.000000
vn 0.000000 0.000000 6.283185
v 7.573871 6.283401 0.000000
vn 0.000000 0.000000 6.283185
v 14.118129 6.235297 0.000000
vn 0.000000 0.000000 3.141592
v -5.965321 5.531009 0.000000
vn 0.000000 0.000000 3.141595
v -6.711847 7.006673 0.000000
vn 0.000000 0.000000 6.283185
v -5.959462 6.406966 0.000000
vn 0.000000 0.000000 6.283185
v -3.577660 6.274949 0.000000
vn 0.000000 0.000000 3.141593
v -0.484383 5.556204 0.000000
vn 0.000000 0.000000 3.141591
v -5.880213 7.313350 0.000000
vn 0.000000 0.000000 3.141594
v 8.766645 6.952388 0.000000
vn 0.000000 0.000000 3.141592
v 7.698201 7.476302 0.000000
vn 0.000000 0.000000 6.283185
v 0.121171 7.914289 0.000000
vn 0.000000 0.000000 6.283185
v 2.836249 6.225093 0.000000
vn 0.000000 0.000000 6.283185
v 9.811652 8.213018 0.000000
vn 0.000000 0.000000 6.283185
v 13.296135 6.204963 0.000000
vn 0.000000 0.000000 6.283185
v -6.873525 6.178185 0.000000
vn 0.000000 0.000000 3.141592
v -7.108827 5.525753 0.000000
vn 0.000000 0.000000 6.283185
v -0.775829 6.042078 0.000000
vn 0.000000 0.000000 3.141593
v -1.657645 6.988947 0.000000
vn 0.000000 0.000000 3.141593
v 3.357895 8.646969 0.000000
vn 0.000000 0.000000 3.141593
v 13.504961 6.935770 0.000000
vn 0.000000 0.000000 3.141593
v 16.130278 7.577494 0.000000
vn 0.000000 0.000000 6.283185
v 14.457676 8.133424 0.000000
vn 0.000000 0.000000 3.141594
v 17.506205 8.736382 0.000000
vn 0.000000 0.000000 6.283185
v 1.219500 7.973569 0.000000
vn 0.000000 0.000000 6.283185
v 10.918849 6.172827 0.000000
vn 0.000000 0.000000 6.283185
v 15.054184 6.311811 0.000000
vn 0.000000 0.000000 3.141595
v -8.055175 5.521403 0.000000
vn 0.000000 0.000000 3.141590
v -6.238016 7.005012 0.000000
vn 0.000000 0.000000 3.141593
v -2.605309 6.992271 0.000000
vn 0.000000 0.000000 3.141593
v -3.362861 5.542973 0.000000
vn 0.000000 0.000000 3.141595
v -2.377081 5.547504 0.000000
vn 0.000000 0.000000 3.141591
v -1.746181 5.550404 0.000000
vn 0.000000 0.000000 3.141593
v 2.472957 5.569798 0.000000
vn 0.000000 0.000000 6.283185
v 1.859197 6.090703 0.000000
vn 0.000000 0.000000 3.141593
v 1.408315 5.564904 0.000000
vn 0.000000 0.000000 3.141592
v 0.777416 5.562004 0.000000
vn 0.000000 0.000000 3.141593
v 1.817119 6.976761 0.000000
vn 0.000000 0.000000 3.141592
v 0.553567 6.981193 0.000000
vn 0.000000 0.000000 6.283186
v 1.074607 6.244673 0.000000
vn 0.000000 0.000000 3.141593
v -0.709983 6.985624 0.000000
vn 0.000000 0.000000 3.141592
v 4.739079 6.966514 0.000000
vn 0.000000 0.000000 3.141592
v 2.843753 6.973161 0.000000
vn 0.000000 0.000000 3.141594
v 5.588023 5.584118 0.000000
vn 0.000000 0.000000 3.141592
v -4.489065 8.597380 0.000000
vn 0.000000 0.000000 3.141594
v -1.604794 7.364659 0.000000
vn 0.000000 0.000000 3.141594
v 1.166311 7.397915 0.000000
vn 0.000000 0.000000 3.141593
v 0.453741 7.389363 0.000000
vn 0.000000 0.000000 3.141592
v 4.333288 7.435920 0.000000
vn 0.000000 0.000000 3.141593
v 3.383195 7.424519 0.000000
vn 0.000000 0.000000 3.141591
v 5.180927 8.658491 0.000000
vn 0.000000 0.000000 3.141594
v 4.309042 8.652980 0.000000
vn 0.000000 0.000000 3.141594
v 5.362556 7.448273 0.000000
vn 0.000000 0.000000 3.141592
v 8.505933 5.597530 0.000000
vn 0.000000 0.000000 3.141593
v 12.646210 5.616562 0.000000
vn 0.000000 0.000000 3.141592
v 11.660430 5.612031 0.000000
vn 0.000000 0.000000 3.141592
v 9.793281 6.948788 0.000000
vn 0.000000 0.000000 3.141593
v 14.334166 6.932862 0.000000
vn 0.000000 0.000000 3.141593
v 11.570148 6.942555 0.000000
vn 0.000000 0.000000 6.283185
v 11.746454 6.177982 0.000000
vn 0.000000 0.000000 3.141593
v 7.147722 6.958066 0.000000
vn 0.000000 0.000000 3.141592
v 13.513697 5.620550 0.000000
vn 0.000000 0.000000 3.141595
v 14.657200 5.625807 0.000000
vn 0.000000 0.000000 3.141594
v 16.944210 5.636319 0.000000
vn 0.000000 0.000000 3.141593
v 15.637202 6.928292 0.000000
vn 0.000000 0.000000 3.141592
v 18.243275 6.919152 0.000000
vn 0.000000 0.000000 3.141593
v 19.190937 6.915829 0.000000
vn 0.000000 0.000000 6.283185
v 18.792465 6.311827 0.000000
vn 0.000000 0.000000 3.141592
v 11.419399 7.520959 0.000000
vn 0.000000 0.000000 3.141593
v 10.310957 7.507658 0.000000
vn 0.000000 0.000000 3.141592
v 7.955105 8.676023 0.000000
vn 0.000000 0.000000 3.141593
v 11.997478 8.701569 0.000000
vn 0.000000 0.000000 3.141594
v 17.555416 7.594597 0.000000
vn 0.000000 0.000000 3.141592
v 18.584684 7.606948 0.000000
vn 0.000000 0.000000 3.141593
v 19.534779 7.618351 0.000000
vn 0.000000 0.000000 3.141593
v 16.356903 8.729118 0.000000
vn 0.000000 0.000000 3.141593
v 15.722804 8.725111 0.000000
vn 0.000000 0.000000 3.141593
v 14.771658 8.719100 0.000000
vn 0.000000 0.000000 3.141593
v 13.820510 8.713089 0.000000
vn 0.000000 0.000000 6.283185
v 18.037331 8.120149 0.000000
vn 0.000000 0.000000 6.283186
v 18.847204 8.266745 0.000000
vn 0.000000 0.000000 3.141593
v 20.478537 8.755166 0.000000
vn 0.000000 0.000000 3.141590
v 18.338459 8.741642 0.000000
vn 0.000000 0.000000 3.141592
v 14.032154 7.552314 0.000000
vn 0.000000 0.000000 3.141593
v 13.200824 7.542337 0.000000
vn 0.000000 0.000000 3.141593
v 12.567429 7.534736 0.000000
vn 0.000000 0.000000 6.283185
v -4.816645 6.186955 0.000000
vn 0.000000 0.000000 6.283185
v 19.947104 6.305972 0.000000
vn 0.000000 0.000000 6.283185
v 8.357946 8.082173 0.000000
# 180 vertices, 0 vertices normals

f 157//157 32//32 54//54
f 22//22 16//16 3//3
f 123//123 38//38 40//40
f 71//71 135//135 72//72
f 30//30 1//1 100//100
f 63//63 61//61 62//62
f 16//16 29//29 44//44
f 78//78 7//7 47//47
f 36//36 79//79 10//10
f 98//98 25//25 57//57
f 132//132 109//109 41//41
f 130//130 41//41 131//131
f 67//67 92//92 89//89
f 77//77 117//117 150//150
f 33//33 105//105 34//34
f 97//97 120//120 107//107
f 50//50 13//13 90//90
f 157//157 54//54 159//159
f 58//58 120//120 97//97
f 135//135 43//43 27//27
f 1//1 30//30 136//136
f 64//64 1//1 136//136
f 16//16 44//44 3//3
f 90//90 13//13 116//116
f 138//138 116//116 139//139
f 14//14 68//68 39//39
f 152//152 71//71 93//93
f 53//53 73//73 117//117
f 76//76 53//53 148//148
f 93//93 75//75 152//152
f 149//149 112//112 94//94
f 112//112 21//21 106//106
f 155//155 47//47 7//7
f 159//159 179//179 158//158
f 82//82 133//133 28//28
f 82//82 28//28 71//71
f 162//162 84//84 102//102
f 88//88 87//87 36//36
f 87//87 49//49 19//19
f 10//10 88//88 36//36
f 160//160 34//34 161//161
f 100//100 1//1 63//63
f 102//102 46//46 91//91
f 48//48 164//164 115//115
f 87//87 88//88 11//11
f 102//102 84//84 46//46
f 107//107 96//96 22//22
f 121//121 98//98 40//40
f 63//63 62//62 44//44
f 65//65 137//137 89//89
f 21//21 151//151 146//146
f 155//155 54//54 32//32
f 85//85 83//83 105//105
f 86//86 113//113 168//168
f 23//23 56//56 22//22
f 25//25 59//59 178//178
f 178//178 57//57 25//25
f 109//109 38//38 124//124
f 99//99 128//128 41//41
f 110//110 121//121 40//40
f 146//146 106//106 21//21
f 117//117 151//151 150//150
f 106//106 146//146 153//153
f 36//36 20//20 179//179
f 47//47 155//155 32//32
f 35//35 163//163 177//177
f 113//113 48//48 167//167
f 63//63 44//44 29//29
f 178//178 58//58 97//97
f 30//30 37//37 136//136
f 37//37 60//60 92//92
f 137//137 68//68 89//89
f 103//103 116//116 66//66
f 139//139 116//116 103//103
f 131//131 126//126 129//129
f 104//104 129//129 126//126
f 138//138 90//90 116//116
f 142//142 18//18 144//144
f 81//81 105//105 83//83
f 149//149 94//94 118//118
f 176//176 170//170 35//35
f 47//47 118//118 78//78
f 54//54 155//155 80//80
f 3//3 23//23 22//22
f 23//23 55//55 56//56
f 22//22 56//56 107//107
f 108//108 56//56 119//119
f 55//55 119//119 56//56
f 119//119 55//55 4//4
f 178//178 97//97 24//24
f 24//24 97//97 95//95
f 178//178 24//24 57//57
f 122//122 98//98 57//57
f 120//120 96//96 107//107
f 56//56 108//108 107//107
f 108//108 95//95 107//107
f 97//97 107//107 95//95
f 98//98 121//121 25//25
f 122//122 123//123 40//40
f 38//38 123//123 124//124
f 124//124 99//99 109//109
f 104//104 125//125 5//5
f 126//126 127//127 125//125
f 41//41 109//109 99//99
f 126//126 131//131 127//127
f 128//128 127//127 131//131
f 128//128 131//131 41//41
f 42//42 104//104 5//5
f 129//129 130//130 131//131
f 130//130 132//132 41//41
f 38//38 110//110 40//40
f 110//110 38//38 132//132
f 109//109 132//132 38//38
f 26//26 43//43 133//133
f 42//42 43//43 26//26
f 104//104 42//42 134//134
f 134//134 42//42 26//26
f 104//104 134//134 129//129
f 42//42 27//27 43//43
f 27//27 42//42 5//5
f 135//135 28//28 43//43
f 29//29 100//100 63//63
f 30//30 60//60 37//37
f 63//63 1//1 61//61
f 15//15 37//37 92//92
f 15//15 136//136 37//37
f 1//1 64//64 61//61
f 89//89 92//92 65//65
f 92//92 60//60 65//65
f 17//17 39//39 137//137
f 139//139 103//103 17//17
f 142//142 51//51 18//18
f 50//50 90//90 141//141
f 45//45 14//14 39//39
f 103//103 66//66 45//45
f 15//15 92//92 67//67
f 67//67 89//89 68//68
f 13//13 66//66 116//116
f 50//50 111//111 13//13
f 143//143 111//111 50//50
f 141//141 140//140 51//51
f 142//142 143//143 51//51
f 46//46 52//52 91//91
f 144//144 91//91 52//52
f 144//144 52//52 142//142
f 17//17 103//103 39//39
f 72//72 70//70 93//93
f 73//73 6//6 117//117
f 151//151 117//117 6//6
f 74//74 76//76 145//145
f 74//74 53//53 76//76
f 73//73 53//53 74//74
f 146//146 151//151 147//147
f 6//6 147//147 151//151
f 77//77 53//53 117//117
f 101//101 75//75 76//76
f 101//101 76//76 148//148
f 106//106 94//94 112//112
f 53//53 77//77 148//148
f 21//21 150//150 151//151
f 94//94 106//106 153//153
f 82//82 71//71 152//152
f 80//80 8//8 54//54
f 153//153 154//154 94//94
f 154//154 78//78 118//118
f 94//94 154//154 118//118
f 79//79 179//179 31//31
f 159//159 31//31 179//179
f 156//156 118//118 47//47
f 149//149 118//118 156//156
f 32//32 156//156 47//47
f 157//157 159//159 158//158
f 158//158 179//179 20//20
f 8//8 31//31 159//159
f 54//54 8//8 159//159
f 10//10 79//79 9//9
f 105//105 81//81 161//161
f 133//133 43//43 28//28
f 81//81 180//180 102//102
f 46//46 84//84 69//69
f 46//46 69//69 52//52
f 142//142 52//52 69//69
f 162//162 180//180 83//83
f 161//161 34//34 105//105
f 177//177 176//176 35//35
f 34//34 163//163 33//33
f 163//163 34//34 160//160
f 87//87 19//19 36//36
f 115//115 164//164 171//171
f 165//165 171//171 164//164
f 172//172 165//165 166//166
f 167//167 48//48 115//115
f 114//114 169//169 170//170
f 86//86 168//168 169//169
f 160//160 177//177 163//163
f 86//86 169//169 114//114
f 172//172 171//171 165//165
f 173//173 87//87 11//11
f 87//87 173//173 49//49
f 49//49 173//173 12//12
f 12//12 172//172 166//166
f 166//166 49//49 12//12
f 36//36 19//19 20//20
f 19//19 49//49 166//166
f 172//172 174//174 171//171
f 115//115 171//171 174//174
f 12//12 174//174 172//172
f 175//175 114//114 170//170
f 168//168 113//113 167//167
f 175//175 86//86 114//114
f 175//175 170//170 176//176
f 93//93 70//70 145//145
f 135//135 71//71 28//28
f 85//85 105//105 33//33
f 58//58 178//178 59//59
f 44//44 62//62 2//2
f 36//36 179//179 79//79
f 104//104 126//126 125//125
f 3//3 44//44 2//2
f 39//39 103//103 45//45
f 180//180 162//162 102//102
f 180//180 81//81 83//83
f 39//39 68//68 137//137
f 71//71 72//72 93//93
f 40//40 98//98 122//122
f 51//51 140//140 18//18
f 50//50 141//141 143//143
f 51//51 143//143 141//141
f 75//75 93//93 145//145
f 76//76 75//75 145//145
# 230 faces, 0 coords texture

# End of File
